<?xml version="1.0" encoding="UTF-8" standalone="no"?>
<!DOCTYPE svg PUBLIC "-//W3C//DTD SVG 1.1//EN" "http://www.w3.org/Graphics/SVG/1.1/DTD/svg11.dtd">
<svg width="100%" height="100%" viewBox="0 0 2567 117" version="1.1" xmlns="http://www.w3.org/2000/svg" xmlns:xlink="http://www.w3.org/1999/xlink" xml:space="preserve" xmlns:serif="http://www.serif.com/" style="fill-rule:evenodd;clip-rule:evenodd;stroke-linejoin:round;stroke-miterlimit:2;">
    <g transform="matrix(1,0,0,1,-4242,-6815.2)">
        <g transform="matrix(1.1068,0,0,0.5,2886.17,3503.95)">
            <rect x="1225" y="6622.49" width="2319" height="233.338" style="fill:url(#_Linear1);"/>
        </g>
        <g transform="matrix(4.16667,0,0,4.16667,6575.33,6815.2)">
            <path d="M0,16C-9.2,16 -17.3,20.78 -21.91,28L-26,28C-26,26.903 -26.903,26 -28,26C-29.097,26 -30,26.903 -30,28L-34.09,28C-38.86,20.529 -47.136,15.996 -56,16C-65.2,16 -73.3,20.78 -77.91,28L-82,28C-82,26.903 -82.903,26 -84,26C-85.097,26 -86,26.903 -86,28L-90.09,28C-94.86,20.529 -103.136,15.996 -112,16C-121.2,16 -129.3,20.78 -133.91,28L-138,28C-138,26.903 -138.903,26 -140,26C-141.097,26 -142,26.903 -142,28L-146.09,28C-150.86,20.529 -159.136,15.996 -168,16C-177.2,16 -185.3,20.78 -189.91,28L-194,28C-194,26.903 -194.903,26 -196,26C-197.097,26 -198,26.903 -198,28L-202.09,28C-206.86,20.529 -215.136,15.996 -224,16C-233.2,16 -241.3,20.78 -245.91,28L-250,28C-250,26.903 -250.903,26 -252,26C-253.097,26 -254,26.903 -254,28L-258.09,28C-262.86,20.529 -271.136,15.996 -280,16C-289.2,16 -297.3,20.78 -301.91,28L-306,28C-306,26.903 -306.903,26 -308,26C-309.097,26 -310,26.903 -310,28L-314.09,28C-318.86,20.529 -327.136,15.996 -336,16C-345.2,16 -353.3,20.78 -357.91,28L-362,28C-362,26.903 -362.903,26 -364,26C-365.097,26 -366,26.903 -366,28L-370.09,28C-374.86,20.529 -383.136,15.996 -392,16C-401.2,16 -409.3,20.78 -413.91,28L-418,28C-418,26.903 -418.903,26 -420,26C-421.097,26 -422,26.903 -422,28L-426.09,28C-430.86,20.529 -439.136,15.996 -448,16C-457.2,16 -465.3,20.78 -469.91,28L-474,28C-474,26.903 -474.903,26 -476,26C-477.097,26 -478,26.903 -478,28L-482.09,28C-486.86,20.529 -495.136,15.996 -504,16C-513.2,16 -521.3,20.78 -525.91,28L-530,28C-530,26.903 -530.903,26 -532,26C-533.097,26 -534,26.903 -534,28L-538.09,28C-542.86,20.529 -551.136,15.996 -560,16L-560,14C-559.33,14 -558.66,14.02 -558,14.07L-558,14C-558,12.903 -558.903,12 -560,12L-560,10C-557.956,10 -556.224,11.566 -556.02,13.6C-555.198,12.236 -554.261,10.945 -553.22,9.74C-554.684,7.412 -557.25,5.997 -560,6L-560,4C-556.754,3.997 -553.702,5.578 -551.83,8.23C-550.89,7.28 -549.87,6.4 -548.8,5.6C-551.436,2.08 -555.583,0.003 -559.98,0L-552.25,0C-550.25,1.1 -548.52,2.63 -547.15,4.45C-546.03,3.73 -544.85,3.08 -543.62,2.52C-544.25,1.624 -544.953,0.781 -545.72,0L-543.02,0C-542.57,0.56 -542.14,1.14 -541.73,1.74C-540.43,1.26 -539.1,0.87 -537.73,0.59C-537.84,0.39 -537.96,0.19 -538.09,0L-534,0L-534,0.07C-532.668,-0.024 -531.332,-0.024 -530,0.07L-530,0L-525.91,0L-526.28,0.59C-524.9,0.87 -523.56,1.26 -522.27,1.74C-521.87,1.14 -521.43,0.56 -520.97,0L-518.28,0C-519.047,0.781 -519.75,1.624 -520.38,2.52C-519.15,3.08 -517.97,3.72 -516.84,4.45C-515.478,2.623 -513.743,1.106 -511.75,0L-504,0C-508.58,0 -512.65,2.2 -515.2,5.6C-514.13,6.4 -513.11,7.28 -512.17,8.23C-510.298,5.578 -507.246,3.997 -504,4C-500.754,3.997 -497.702,5.578 -495.83,8.23C-494.89,7.28 -493.87,6.4 -492.8,5.6C-495.436,2.08 -499.583,0.003 -503.98,0L-496.25,0C-494.25,1.1 -492.52,2.63 -491.15,4.45C-490.03,3.73 -488.85,3.08 -487.62,2.52C-488.25,1.624 -488.953,0.781 -489.72,0L-487.02,0C-486.57,0.56 -486.14,1.14 -485.73,1.74C-484.43,1.26 -483.1,0.87 -481.73,0.59C-481.84,0.39 -481.96,0.19 -482.09,0L-478,0L-478,0.07C-476.668,-0.024 -475.332,-0.024 -474,0.07L-474,0L-469.91,0L-470.28,0.59C-468.9,0.87 -467.56,1.26 -466.27,1.74C-465.87,1.14 -465.43,0.56 -464.97,0L-462.28,0C-463.047,0.781 -463.75,1.624 -464.38,2.52C-463.15,3.08 -461.97,3.72 -460.84,4.45C-459.478,2.623 -457.743,1.106 -455.75,0L-448,0C-452.58,0 -456.65,2.2 -459.2,5.6C-458.13,6.4 -457.11,7.28 -456.17,8.23C-454.298,5.578 -451.246,3.997 -448,4C-444.754,3.997 -441.702,5.578 -439.83,8.23C-438.89,7.28 -437.87,6.4 -436.8,5.6C-439.436,2.08 -443.583,0.003 -447.98,0L-440.25,0C-438.25,1.1 -436.52,2.63 -435.15,4.45C-434.03,3.73 -432.85,3.08 -431.62,2.52C-432.25,1.624 -432.953,0.781 -433.72,0L-431.02,0C-430.57,0.56 -430.14,1.14 -429.73,1.74C-428.43,1.26 -427.1,0.87 -425.73,0.59C-425.84,0.39 -425.96,0.19 -426.09,0L-422,0L-422,0.07C-420.668,-0.024 -419.332,-0.024 -418,0.07L-418,0L-413.91,0L-414.28,0.59C-412.9,0.87 -411.56,1.26 -410.27,1.74C-409.87,1.14 -409.43,0.56 -408.97,0L-406.28,0C-407.047,0.781 -407.75,1.624 -408.38,2.52C-407.15,3.08 -405.97,3.72 -404.84,4.45C-403.478,2.623 -401.743,1.106 -399.75,0L-392,0C-396.58,0 -400.65,2.2 -403.2,5.6C-402.13,6.4 -401.11,7.28 -400.17,8.23C-398.298,5.578 -395.246,3.997 -392,4C-388.754,3.997 -385.702,5.578 -383.83,8.23C-382.89,7.28 -381.87,6.4 -380.8,5.6C-383.436,2.08 -387.583,0.003 -391.98,0L-384.25,-0C-382.25,1.1 -380.52,2.63 -379.15,4.45C-378.03,3.73 -376.85,3.08 -375.62,2.52C-376.25,1.624 -376.953,0.781 -377.72,-0L-375.02,-0C-374.57,0.56 -374.14,1.14 -373.73,1.74C-372.43,1.26 -371.1,0.87 -369.73,0.59C-369.84,0.39 -369.96,0.19 -370.09,-0L-366,-0L-366,0.07C-364.668,-0.024 -363.332,-0.024 -362,0.07L-362,-0L-357.91,-0L-358.28,0.59C-356.9,0.87 -355.56,1.26 -354.27,1.74C-353.87,1.14 -353.43,0.56 -352.97,-0L-350.28,-0C-351.047,0.781 -351.75,1.624 -352.38,2.52C-351.15,3.08 -349.97,3.72 -348.84,4.45C-347.478,2.623 -345.743,1.106 -343.75,-0L-336,0C-340.58,0 -344.65,2.2 -347.2,5.6C-346.13,6.4 -345.11,7.28 -344.17,8.23C-342.298,5.578 -339.246,3.997 -336,4C-332.754,3.997 -329.702,5.578 -327.83,8.23C-326.89,7.28 -325.87,6.4 -324.8,5.6C-327.436,2.08 -331.583,0.003 -335.98,0L-328.25,0C-326.25,1.1 -324.52,2.63 -323.15,4.45C-322.03,3.73 -320.85,3.08 -319.62,2.52C-320.25,1.624 -320.953,0.781 -321.72,0L-319.02,0C-318.57,0.56 -318.14,1.14 -317.73,1.74C-316.43,1.26 -315.1,0.87 -313.73,0.59C-313.84,0.39 -313.96,0.19 -314.09,0L-310,0L-310,0.07C-308.668,-0.024 -307.332,-0.024 -306,0.07L-306,0L-301.91,0L-302.28,0.59C-300.9,0.87 -299.56,1.26 -298.27,1.74C-297.87,1.14 -297.43,0.56 -296.97,0L-294.28,0C-295.047,0.781 -295.75,1.624 -296.38,2.52C-295.15,3.08 -293.97,3.72 -292.84,4.45C-291.478,2.623 -289.743,1.106 -287.75,0L-280,0C-284.58,0 -288.65,2.2 -291.2,5.6C-290.13,6.4 -289.11,7.28 -288.17,8.23C-286.298,5.578 -283.246,3.997 -280,4C-276.754,3.997 -273.702,5.578 -271.83,8.23C-270.89,7.28 -269.87,6.4 -268.8,5.6C-271.436,2.08 -275.583,0.003 -279.98,0L-272.25,0C-270.25,1.1 -268.52,2.63 -267.15,4.45C-266.03,3.73 -264.85,3.08 -263.62,2.52C-264.25,1.624 -264.953,0.781 -265.72,0L-263.02,0C-262.57,0.56 -262.14,1.14 -261.73,1.74C-260.43,1.26 -259.1,0.87 -257.73,0.59C-257.84,0.39 -257.96,0.19 -258.09,0L-254,0L-254,0.07C-252.668,-0.024 -251.332,-0.024 -250,0.07L-250,0L-245.91,0L-246.28,0.59C-244.9,0.87 -243.56,1.26 -242.27,1.74C-241.87,1.14 -241.43,0.56 -240.97,0L-238.28,0C-239.047,0.781 -239.75,1.624 -240.38,2.52C-239.15,3.08 -237.97,3.72 -236.84,4.45C-235.478,2.623 -233.743,1.106 -231.75,0L-224,0C-228.58,0 -232.65,2.2 -235.2,5.6C-234.13,6.4 -233.11,7.28 -232.17,8.23C-230.298,5.578 -227.246,3.997 -224,4C-220.754,3.997 -217.702,5.578 -215.83,8.23C-214.89,7.28 -213.87,6.4 -212.8,5.6C-215.436,2.08 -219.583,0.003 -223.98,0L-216.25,0C-214.25,1.1 -212.52,2.63 -211.15,4.45C-210.03,3.73 -208.85,3.08 -207.62,2.52C-208.25,1.624 -208.953,0.781 -209.72,0L-207.02,0C-206.57,0.56 -206.14,1.14 -205.73,1.74C-204.43,1.26 -203.1,0.87 -201.73,0.59C-201.84,0.39 -201.96,0.19 -202.09,0L-198,0L-198,0.07C-196.668,-0.024 -195.332,-0.024 -194,0.07L-194,0L-189.91,0L-190.28,0.59C-188.9,0.87 -187.56,1.26 -186.27,1.74C-185.87,1.14 -185.43,0.56 -184.97,0L-182.28,0C-183.047,0.781 -183.75,1.624 -184.38,2.52C-183.15,3.08 -181.97,3.72 -180.84,4.45C-179.478,2.623 -177.743,1.106 -175.75,0L-168,0C-172.58,0 -176.65,2.2 -179.2,5.6C-178.13,6.4 -177.11,7.28 -176.17,8.23C-174.298,5.578 -171.246,3.997 -168,4C-164.754,3.997 -161.702,5.578 -159.83,8.23C-158.89,7.28 -157.87,6.4 -156.8,5.6C-159.436,2.08 -163.583,0.003 -167.98,0L-160.25,0C-158.25,1.1 -156.52,2.63 -155.15,4.45C-154.03,3.73 -152.85,3.08 -151.62,2.52C-152.25,1.624 -152.953,0.781 -153.72,0L-151.02,0C-150.57,0.56 -150.14,1.14 -149.73,1.74C-148.43,1.26 -147.1,0.87 -145.73,0.59C-145.84,0.39 -145.96,0.19 -146.09,0L-142,0L-142,0.07C-140.668,-0.024 -139.332,-0.024 -138,0.07L-138,0L-133.91,0L-134.28,0.59C-132.9,0.87 -131.56,1.26 -130.27,1.74C-129.87,1.14 -129.43,0.56 -128.97,0L-126.28,0C-127.047,0.781 -127.75,1.624 -128.38,2.52C-127.15,3.08 -125.97,3.72 -124.84,4.45C-123.478,2.623 -121.743,1.106 -119.75,0L-112,0C-116.58,0 -120.65,2.2 -123.2,5.6C-122.13,6.4 -121.11,7.28 -120.17,8.23C-118.298,5.578 -115.246,3.997 -112,4C-108.754,3.997 -105.702,5.578 -103.83,8.23C-102.89,7.28 -101.87,6.4 -100.8,5.6C-103.436,2.08 -107.583,0.003 -111.98,0L-104.25,0C-102.25,1.1 -100.52,2.63 -99.15,4.45C-98.03,3.73 -96.85,3.08 -95.62,2.52C-96.25,1.624 -96.953,0.781 -97.72,0L-95.02,0C-94.57,0.56 -94.14,1.14 -93.73,1.74C-92.43,1.26 -91.1,0.87 -89.73,0.59C-89.84,0.39 -89.96,0.19 -90.09,0L-86,0L-86,0.07C-84.668,-0.024 -83.332,-0.024 -82,0.07L-82,0L-77.91,0L-78.28,0.59C-76.9,0.87 -75.56,1.26 -74.27,1.74C-73.87,1.14 -73.43,0.56 -72.97,0L-70.28,0C-71.047,0.781 -71.75,1.624 -72.38,2.52C-71.15,3.08 -69.97,3.72 -68.84,4.45C-67.478,2.623 -65.743,1.106 -63.75,0L-56,0C-60.58,0 -64.65,2.2 -67.2,5.6C-66.13,6.4 -65.11,7.28 -64.17,8.23C-62.298,5.578 -59.246,3.997 -56,4C-52.754,3.997 -49.702,5.578 -47.83,8.23C-46.89,7.28 -45.87,6.4 -44.8,5.6C-47.436,2.08 -51.583,0.003 -55.98,0L-48.25,0C-46.25,1.1 -44.52,2.63 -43.15,4.45C-42.03,3.73 -40.85,3.08 -39.62,2.52C-40.25,1.624 -40.953,0.781 -41.72,0L-39.02,0C-38.57,0.56 -38.14,1.14 -37.73,1.74C-36.43,1.26 -35.1,0.87 -33.73,0.59C-33.84,0.39 -33.96,0.19 -34.09,0L-30,0L-30,0.07C-28.668,-0.024 -27.332,-0.024 -26,0.07L-26,0L-21.91,0L-22.28,0.59C-20.9,0.87 -19.56,1.26 -18.27,1.74C-17.87,1.14 -17.43,0.56 -16.97,0L-14.28,0C-15.047,0.781 -15.75,1.624 -16.38,2.52C-15.15,3.08 -13.97,3.72 -12.84,4.45C-11.478,2.623 -9.743,1.106 -7.75,0L0,0C-4.58,0 -8.65,2.2 -11.2,5.6C-10.13,6.4 -9.11,7.28 -8.17,8.23C-6.298,5.578 -3.246,3.997 0,4C3.246,3.997 6.298,5.578 8.17,8.23C9.11,7.28 10.13,6.4 11.2,5.6C8.564,2.08 4.417,0.003 0.02,0L7.75,0C9.75,1.1 11.48,2.63 12.85,4.45C13.97,3.73 15.15,3.08 16.38,2.52C15.75,1.624 15.047,0.781 14.28,0L16.98,0C17.43,0.56 17.86,1.14 18.27,1.74C19.57,1.26 20.9,0.87 22.27,0.59C22.16,0.39 22.04,0.19 21.91,0L26,0L26,0.07C27.332,-0.024 28.668,-0.024 30,0.07L30,0L34.09,0L33.72,0.59C35.1,0.87 36.44,1.26 37.73,1.74C38.13,1.14 38.57,0.56 39.03,0L41.72,0C40.953,0.781 40.25,1.624 39.62,2.52C40.85,3.08 42.03,3.72 43.16,4.45C44.522,2.623 46.257,1.106 48.25,0L56,0C51.42,0 47.35,2.2 44.8,5.6C45.87,6.4 46.89,7.28 47.83,8.23C49.702,5.578 52.754,3.997 56,4L56,6C53.254,6 50.693,7.415 49.23,9.74C50.26,10.94 51.2,12.24 52.02,13.6C52.224,11.566 53.956,10 56,10L56,12L55.999,12C54.902,12 53.999,12.903 53.999,14C53.999,14.023 53.999,14.047 54,14.07C54.666,14.023 55.333,14 56,14L56,16C46.8,16 38.7,20.78 34.09,28L30,28C30,26.903 29.097,26 28,26C26.903,26 26,26.903 26,28L21.91,28C17.14,20.529 8.864,15.996 0,16ZM0,6C-2.746,6 -5.307,7.415 -6.77,9.74C-5.74,10.94 -4.8,12.24 -3.98,13.6C-3.776,11.566 -2.044,10 0,10C2.044,10 3.776,11.566 3.98,13.6C4.802,12.236 5.739,10.945 6.78,9.74C5.316,7.412 2.75,5.997 0,6ZM0,12L-0.001,12C-1.098,12 -2.001,12.903 -2.001,14C-2.001,14.023 -2.001,14.047 -2,14.07C-1.334,14.023 -0.667,14 0,14C0.67,14 1.34,14.02 2,14.07L2,14C2,12.903 1.097,12 0,12ZM31.98,27.6C32.802,26.236 33.739,24.945 34.78,23.74C33.318,21.412 30.754,19.994 28.005,19.994C25.256,19.994 22.692,21.412 21.23,23.74C22.26,24.94 23.2,26.24 24.02,27.6C24.224,25.566 25.956,23.999 28,23.999C30.044,23.999 31.776,25.566 31.98,27.6ZM36.17,22.23C37.11,21.28 38.13,20.4 39.2,19.6C36.563,16.07 32.406,13.987 28,13.987C23.594,13.987 19.437,16.07 16.8,19.6C17.87,20.4 18.89,21.28 19.83,22.23C21.699,19.573 24.752,17.989 28,17.989C31.248,17.989 34.301,19.573 36.17,22.23ZM46.27,15.74C47.57,15.26 48.9,14.87 50.27,14.59C45.576,6.781 37.106,1.99 27.995,1.99C18.884,1.99 10.414,6.781 5.72,14.59C7.1,14.87 8.44,15.26 9.73,15.74C13.805,9.647 20.67,5.98 28,5.98C35.33,5.98 42.195,9.647 46.27,15.74ZM40.84,18.45C41.97,17.73 43.14,17.08 44.38,16.52C40.646,11.174 34.521,7.981 28,7.981C21.479,7.981 15.354,11.174 11.62,16.52C12.85,17.08 14.03,17.72 15.16,18.45C18.172,14.385 22.941,11.983 28,11.983C33.059,11.983 37.828,14.385 40.84,18.45ZM-243.83,22.23C-242.89,21.28 -241.87,20.4 -240.8,19.6C-243.437,16.07 -247.594,13.987 -252,13.987C-256.406,13.987 -260.563,16.07 -263.2,19.6C-262.13,20.4 -261.11,21.28 -260.17,22.23C-258.301,19.573 -255.248,17.989 -252,17.989C-248.752,17.989 -245.699,19.573 -243.83,22.23ZM-416.02,27.6C-415.198,26.236 -414.261,24.945 -413.22,23.74C-414.682,21.412 -417.246,19.994 -419.995,19.994C-422.744,19.994 -425.308,21.412 -426.77,23.74C-425.74,24.94 -424.8,26.24 -423.98,27.6C-423.776,25.566 -422.044,23.999 -420,23.999C-417.956,23.999 -416.224,25.566 -416.02,27.6ZM-411.83,22.23C-410.89,21.28 -409.87,20.4 -408.8,19.6C-411.437,16.07 -415.594,13.987 -420,13.987C-424.406,13.987 -428.563,16.07 -431.2,19.6C-430.13,20.4 -429.11,21.28 -428.17,22.23C-426.301,19.573 -423.248,17.989 -420,17.989C-416.752,17.989 -413.699,19.573 -411.83,22.23ZM-136.02,27.6C-135.198,26.236 -134.261,24.945 -133.22,23.74C-134.682,21.412 -137.246,19.994 -139.995,19.994C-142.744,19.994 -145.308,21.412 -146.77,23.74C-145.74,24.94 -144.8,26.24 -143.98,27.6C-143.776,25.566 -142.044,23.999 -140,23.999C-137.956,23.999 -136.224,25.566 -136.02,27.6ZM-168,6C-170.746,6 -173.307,7.415 -174.77,9.74C-173.74,10.94 -172.8,12.24 -171.98,13.6C-171.776,11.566 -170.044,10 -168,10C-165.956,10 -164.224,11.566 -164.02,13.6C-163.198,12.236 -162.261,10.945 -161.22,9.74C-162.684,7.412 -165.25,5.997 -168,6ZM-56,6C-58.746,6 -61.307,7.415 -62.77,9.74C-61.74,10.94 -60.8,12.24 -59.98,13.6C-59.776,11.566 -58.044,10 -56,10C-53.956,10 -52.224,11.566 -52.02,13.6C-51.198,12.236 -50.261,10.945 -49.22,9.74C-50.684,7.412 -53.25,5.997 -56,6ZM-336,12L-336.001,12C-337.098,12 -338.001,12.903 -338.001,14C-338.001,14.023 -338.001,14.047 -338,14.07C-337.334,14.023 -336.667,14 -336,14C-335.33,14 -334.66,14.02 -334,14.07L-334,14C-334,12.903 -334.903,12 -336,12ZM-224,6C-226.746,6 -229.307,7.415 -230.77,9.74C-229.74,10.94 -228.8,12.24 -227.98,13.6C-227.776,11.566 -226.044,10 -224,10C-221.956,10 -220.224,11.566 -220.02,13.6C-219.198,12.236 -218.261,10.945 -217.22,9.74C-218.684,7.412 -221.25,5.997 -224,6ZM-392,12L-392.001,12C-393.098,12 -394.001,12.903 -394.001,14C-394.001,14.023 -394.001,14.047 -394,14.07C-393.334,14.023 -392.667,14 -392,14C-391.33,14 -390.66,14.02 -390,14.07L-390,14C-390,12.903 -390.903,12 -392,12ZM-504,12L-504.001,12C-505.098,12 -506.001,12.903 -506.001,14C-506.001,14.023 -506.001,14.047 -506,14.07C-505.334,14.023 -504.667,14 -504,14C-503.33,14 -502.66,14.02 -502,14.07L-502,14C-502,12.903 -502.903,12 -504,12ZM-392,6C-394.746,6 -397.307,7.415 -398.77,9.74C-397.74,10.94 -396.8,12.24 -395.98,13.6C-395.776,11.566 -394.044,10 -392,10C-389.956,10 -388.224,11.566 -388.02,13.6C-387.198,12.236 -386.261,10.945 -385.22,9.74C-386.684,7.412 -389.25,5.997 -392,6ZM-56,12L-56.001,12C-57.098,12 -58.001,12.903 -58.001,14C-58.001,14.023 -58.001,14.047 -58,14.07C-57.334,14.023 -56.667,14 -56,14C-55.33,14 -54.66,14.02 -54,14.07L-54,14C-54,12.903 -54.903,12 -56,12ZM-448,12L-448.001,12C-449.098,12 -450.001,12.903 -450.001,14C-450.001,14.023 -450.001,14.047 -450,14.07C-449.334,14.023 -448.667,14 -448,14C-447.33,14 -446.66,14.02 -446,14.07L-446,14C-446,12.903 -446.903,12 -448,12ZM-112,6C-114.746,6 -117.307,7.415 -118.77,9.74C-117.74,10.94 -116.8,12.24 -115.98,13.6C-115.776,11.566 -114.044,10 -112,10C-109.956,10 -108.224,11.566 -108.02,13.6C-107.198,12.236 -106.261,10.945 -105.22,9.74C-106.684,7.412 -109.25,5.997 -112,6ZM-121.73,15.74C-120.43,15.26 -119.1,14.87 -117.73,14.59C-122.424,6.781 -130.894,1.99 -140.005,1.99C-149.116,1.99 -157.586,6.781 -162.28,14.59C-160.9,14.87 -159.56,15.26 -158.27,15.74C-154.195,9.647 -147.33,5.98 -140,5.98C-132.67,5.98 -125.805,9.647 -121.73,15.74ZM-127.16,18.45C-126.03,17.73 -124.86,17.08 -123.62,16.52C-127.354,11.174 -133.479,7.981 -140,7.981C-146.521,7.981 -152.646,11.174 -156.38,16.52C-155.15,17.08 -153.97,17.72 -152.84,18.45C-149.828,14.385 -145.059,11.983 -140,11.983C-134.941,11.983 -130.172,14.385 -127.16,18.45ZM-280,12L-280.001,12C-281.098,12 -282.001,12.903 -282.001,14C-282.001,14.023 -282.001,14.047 -282,14.07C-281.334,14.023 -280.667,14 -280,14C-279.33,14 -278.66,14.02 -278,14.07L-278,14C-278,12.903 -278.903,12 -280,12ZM-224,12L-224.001,12C-225.098,12 -226.001,12.903 -226.001,14C-226.001,14.023 -226.001,14.047 -226,14.07C-225.334,14.023 -224.667,14 -224,14C-223.33,14 -222.66,14.02 -222,14.07L-222,14C-222,12.903 -222.903,12 -224,12ZM-401.73,15.74C-400.43,15.26 -399.1,14.87 -397.73,14.59C-402.424,6.781 -410.894,1.99 -420.005,1.99C-429.116,1.99 -437.586,6.781 -442.28,14.59C-440.9,14.87 -439.56,15.26 -438.27,15.74C-434.195,9.647 -427.33,5.98 -420,5.98C-412.67,5.98 -405.805,9.647 -401.73,15.74ZM-407.16,18.45C-406.03,17.73 -404.86,17.08 -403.62,16.52C-407.354,11.174 -413.479,7.981 -420,7.981C-426.521,7.981 -432.646,11.174 -436.38,16.52C-435.15,17.08 -433.97,17.72 -432.84,18.45C-429.828,14.385 -425.059,11.983 -420,11.983C-414.941,11.983 -410.172,14.385 -407.16,18.45ZM-504,6C-506.746,6 -509.307,7.415 -510.77,9.74C-509.74,10.94 -508.8,12.24 -507.98,13.6C-507.776,11.566 -506.044,10 -504,10C-501.956,10 -500.224,11.566 -500.02,13.6C-499.198,12.236 -498.261,10.945 -497.22,9.74C-498.684,7.412 -501.25,5.997 -504,6ZM-112,12L-112.001,12C-113.098,12 -114.001,12.903 -114.001,14C-114.001,14.023 -114.001,14.047 -114,14.07C-113.334,14.023 -112.667,14 -112,14C-111.33,14 -110.66,14.02 -110,14.07L-110,14C-110,12.903 -110.903,12 -112,12ZM-280,6C-282.746,6 -285.307,7.415 -286.77,9.74C-285.74,10.94 -284.8,12.24 -283.98,13.6C-283.776,11.566 -282.044,10 -280,10C-277.956,10 -276.224,11.566 -276.02,13.6C-275.198,12.236 -274.261,10.945 -273.22,9.74C-274.684,7.412 -277.25,5.997 -280,6ZM-351.16,18.45C-350.03,17.73 -348.86,17.08 -347.62,16.52C-351.354,11.174 -357.479,7.981 -364,7.981C-370.521,7.981 -376.646,11.174 -380.38,16.52C-379.15,17.08 -377.97,17.72 -376.84,18.45C-373.828,14.385 -369.059,11.983 -364,11.983C-358.941,11.983 -354.172,14.385 -351.16,18.45ZM-168,12L-168.001,12C-169.098,12 -170.001,12.903 -170.001,14C-170.001,14.023 -170.001,14.047 -170,14.07C-169.334,14.023 -168.667,14 -168,14C-167.33,14 -166.66,14.02 -166,14.07L-166,14C-166,12.903 -166.903,12 -168,12ZM-336,6C-338.746,6 -341.307,7.415 -342.77,9.74C-341.74,10.94 -340.8,12.24 -339.98,13.6C-339.776,11.566 -338.044,10 -336,10C-333.956,10 -332.224,11.566 -332.02,13.6C-331.198,12.236 -330.261,10.945 -329.22,9.74C-330.684,7.412 -333.25,5.997 -336,6ZM-183.16,18.45C-182.03,17.73 -180.86,17.08 -179.62,16.52C-183.354,11.174 -189.479,7.981 -196,7.981C-202.521,7.981 -208.646,11.174 -212.38,16.52C-211.15,17.08 -209.97,17.72 -208.84,18.45C-205.828,14.385 -201.059,11.983 -196,11.983C-190.941,11.983 -186.172,14.385 -183.16,18.45ZM-448,6C-450.746,6 -453.307,7.415 -454.77,9.74C-453.74,10.94 -452.8,12.24 -451.98,13.6C-451.776,11.566 -450.044,10 -448,10C-445.956,10 -444.224,11.566 -444.02,13.6C-443.198,12.236 -442.261,10.945 -441.22,9.74C-442.684,7.412 -445.25,5.997 -448,6ZM-528.02,27.6C-527.198,26.236 -526.261,24.945 -525.22,23.74C-526.682,21.412 -529.246,19.994 -531.995,19.994C-534.744,19.994 -537.308,21.412 -538.77,23.74C-537.74,24.94 -536.8,26.24 -535.98,27.6C-535.776,25.566 -534.044,23.999 -532,23.999C-529.956,23.999 -528.224,25.566 -528.02,27.6ZM-355.83,22.23C-354.89,21.28 -353.87,20.4 -352.8,19.6C-355.437,16.07 -359.594,13.987 -364,13.987C-368.406,13.987 -372.563,16.07 -375.2,19.6C-374.13,20.4 -373.11,21.28 -372.17,22.23C-370.301,19.573 -367.248,17.989 -364,17.989C-360.752,17.989 -357.699,19.573 -355.83,22.23ZM-289.73,15.74C-288.43,15.26 -287.1,14.87 -285.73,14.59C-290.424,6.781 -298.894,1.99 -308.005,1.99C-317.116,1.99 -325.586,6.781 -330.28,14.59C-328.9,14.87 -327.56,15.26 -326.27,15.74C-322.195,9.647 -315.33,5.98 -308,5.98C-300.67,5.98 -293.805,9.647 -289.73,15.74ZM-463.16,18.45C-462.03,17.73 -460.86,17.08 -459.62,16.52C-463.354,11.174 -469.479,7.981 -476,7.981C-482.521,7.981 -488.646,11.174 -492.38,16.52C-491.15,17.08 -489.97,17.72 -488.84,18.45C-485.828,14.385 -481.059,11.983 -476,11.983C-470.941,11.983 -466.172,14.385 -463.16,18.45ZM-304.02,27.6C-303.198,26.236 -302.261,24.945 -301.22,23.74C-302.682,21.412 -305.246,19.994 -307.995,19.994C-310.744,19.994 -313.308,21.412 -314.77,23.74C-313.74,24.94 -312.8,26.24 -311.98,27.6C-311.776,25.566 -310.044,23.999 -308,23.999C-305.956,23.999 -304.224,25.566 -304.02,27.6ZM-24.02,27.6C-23.198,26.236 -22.261,24.945 -21.22,23.74C-22.682,21.412 -25.246,19.994 -27.995,19.994C-30.744,19.994 -33.308,21.412 -34.77,23.74C-33.74,24.94 -32.8,26.24 -31.98,27.6C-31.776,25.566 -30.044,23.999 -28,23.999C-25.956,23.999 -24.224,25.566 -24.02,27.6ZM-187.83,22.23C-186.89,21.28 -185.87,20.4 -184.8,19.6C-187.437,16.07 -191.594,13.987 -196,13.987C-200.406,13.987 -204.563,16.07 -207.2,19.6C-206.13,20.4 -205.11,21.28 -204.17,22.23C-202.301,19.573 -199.248,17.989 -196,17.989C-192.752,17.989 -189.699,19.573 -187.83,22.23ZM-9.73,15.74C-8.43,15.26 -7.1,14.87 -5.73,14.59C-10.424,6.781 -18.894,1.99 -28.005,1.99C-37.116,1.99 -45.586,6.781 -50.28,14.59C-48.9,14.87 -47.56,15.26 -46.27,15.74C-42.195,9.647 -35.33,5.98 -28,5.98C-20.67,5.98 -13.805,9.647 -9.73,15.74ZM-75.83,22.23C-74.89,21.28 -73.87,20.4 -72.8,19.6C-75.437,16.07 -79.594,13.987 -84,13.987C-88.406,13.987 -92.563,16.07 -95.2,19.6C-94.13,20.4 -93.11,21.28 -92.17,22.23C-90.301,19.573 -87.248,17.989 -84,17.989C-80.752,17.989 -77.699,19.573 -75.83,22.23ZM-248.02,27.6C-247.198,26.236 -246.261,24.945 -245.22,23.74C-246.682,21.412 -249.246,19.994 -251.995,19.994C-254.744,19.994 -257.308,21.412 -258.77,23.74C-257.74,24.94 -256.8,26.24 -255.98,27.6C-255.776,25.566 -254.044,23.999 -252,23.999C-249.956,23.999 -248.224,25.566 -248.02,27.6ZM-192.02,27.6C-191.198,26.236 -190.261,24.945 -189.22,23.74C-190.682,21.412 -193.246,19.994 -195.995,19.994C-198.744,19.994 -201.308,21.412 -202.77,23.74C-201.74,24.94 -200.8,26.24 -199.98,27.6C-199.776,25.566 -198.044,23.999 -196,23.999C-193.956,23.999 -192.224,25.566 -192.02,27.6ZM-71.16,18.45C-70.03,17.73 -68.86,17.08 -67.62,16.52C-71.354,11.174 -77.479,7.981 -84,7.981C-90.521,7.981 -96.646,11.174 -100.38,16.52C-99.15,17.08 -97.97,17.72 -96.84,18.45C-93.828,14.385 -89.059,11.983 -84,11.983C-78.941,11.983 -74.172,14.385 -71.16,18.45ZM-467.83,22.23C-466.89,21.28 -465.87,20.4 -464.8,19.6C-467.437,16.07 -471.594,13.987 -476,13.987C-480.406,13.987 -484.563,16.07 -487.2,19.6C-486.13,20.4 -485.11,21.28 -484.17,22.23C-482.301,19.573 -479.248,17.989 -476,17.989C-472.752,17.989 -469.699,19.573 -467.83,22.23ZM-131.83,22.23C-130.89,21.28 -129.87,20.4 -128.8,19.6C-131.437,16.07 -135.594,13.987 -140,13.987C-144.406,13.987 -148.563,16.07 -151.2,19.6C-150.13,20.4 -149.11,21.28 -148.17,22.23C-146.301,19.573 -143.248,17.989 -140,17.989C-136.752,17.989 -133.699,19.573 -131.83,22.23ZM-177.73,15.74C-176.43,15.26 -175.1,14.87 -173.73,14.59C-178.424,6.781 -186.894,1.99 -196.005,1.99C-205.116,1.99 -213.586,6.781 -218.28,14.59C-216.9,14.87 -215.56,15.26 -214.27,15.74C-210.195,9.647 -203.33,5.98 -196,5.98C-188.67,5.98 -181.805,9.647 -177.73,15.74ZM-65.73,15.74C-64.43,15.26 -63.1,14.87 -61.73,14.59C-66.424,6.781 -74.894,1.99 -84.005,1.99C-93.116,1.99 -101.586,6.781 -106.28,14.59C-104.9,14.87 -103.56,15.26 -102.27,15.74C-98.195,9.647 -91.33,5.98 -84,5.98C-76.67,5.98 -69.805,9.647 -65.73,15.74ZM-360.02,27.6C-359.198,26.236 -358.261,24.945 -357.22,23.74C-358.682,21.412 -361.246,19.994 -363.995,19.994C-366.744,19.994 -369.308,21.412 -370.77,23.74C-369.74,24.94 -368.8,26.24 -367.98,27.6C-367.776,25.566 -366.044,23.999 -364,23.999C-361.956,23.999 -360.224,25.566 -360.02,27.6ZM-345.73,15.74C-344.43,15.26 -343.1,14.87 -341.73,14.59C-346.424,6.781 -354.894,1.99 -364.005,1.99C-373.116,1.99 -381.586,6.781 -386.28,14.59C-384.9,14.87 -383.56,15.26 -382.27,15.74C-378.195,9.647 -371.33,5.98 -364,5.98C-356.67,5.98 -349.805,9.647 -345.73,15.74ZM-519.16,18.45C-518.03,17.73 -516.86,17.08 -515.62,16.52C-519.354,11.174 -525.479,7.981 -532,7.981C-538.521,7.981 -544.646,11.174 -548.38,16.52C-547.15,17.08 -545.97,17.72 -544.84,18.45C-541.828,14.385 -537.059,11.983 -532,11.983C-526.941,11.983 -522.172,14.385 -519.16,18.45ZM-523.83,22.23C-522.89,21.28 -521.87,20.4 -520.8,19.6C-523.437,16.07 -527.594,13.987 -532,13.987C-536.406,13.987 -540.563,16.07 -543.2,19.6C-542.13,20.4 -541.11,21.28 -540.17,22.23C-538.301,19.573 -535.248,17.989 -532,17.989C-528.752,17.989 -525.699,19.573 -523.83,22.23ZM-472.02,27.6C-471.198,26.236 -470.261,24.945 -469.22,23.74C-470.682,21.412 -473.246,19.994 -475.995,19.994C-478.744,19.994 -481.308,21.412 -482.77,23.74C-481.74,24.94 -480.8,26.24 -479.98,27.6C-479.776,25.566 -478.044,23.999 -476,23.999C-473.956,23.999 -472.224,25.566 -472.02,27.6ZM-19.83,22.23C-18.89,21.28 -17.87,20.4 -16.8,19.6C-19.437,16.07 -23.594,13.987 -28,13.987C-32.406,13.987 -36.563,16.07 -39.2,19.6C-38.13,20.4 -37.11,21.28 -36.17,22.23C-34.301,19.573 -31.248,17.989 -28,17.989C-24.752,17.989 -21.699,19.573 -19.83,22.23ZM-513.73,15.74C-512.43,15.26 -511.1,14.87 -509.73,14.59C-514.424,6.781 -522.894,1.99 -532.005,1.99C-541.116,1.99 -549.586,6.781 -554.28,14.59C-552.9,14.87 -551.56,15.26 -550.27,15.74C-546.195,9.647 -539.33,5.98 -532,5.98C-524.67,5.98 -517.805,9.647 -513.73,15.74ZM-299.83,22.23C-298.89,21.28 -297.87,20.4 -296.8,19.6C-299.437,16.07 -303.594,13.987 -308,13.987C-312.406,13.987 -316.563,16.07 -319.2,19.6C-318.13,20.4 -317.11,21.28 -316.17,22.23C-314.301,19.573 -311.248,17.989 -308,17.989C-304.752,17.989 -301.699,19.573 -299.83,22.23ZM-15.16,18.45C-14.03,17.73 -12.86,17.08 -11.62,16.52C-15.354,11.174 -21.479,7.981 -28,7.981C-34.521,7.981 -40.646,11.174 -44.38,16.52C-43.15,17.08 -41.97,17.72 -40.84,18.45C-37.828,14.385 -33.059,11.983 -28,11.983C-22.941,11.983 -18.172,14.385 -15.16,18.45ZM-295.16,18.45C-294.03,17.73 -292.86,17.08 -291.62,16.52C-295.354,11.174 -301.479,7.981 -308,7.981C-314.521,7.981 -320.646,11.174 -324.38,16.52C-323.15,17.08 -321.97,17.72 -320.84,18.45C-317.828,14.385 -313.059,11.983 -308,11.983C-302.941,11.983 -298.172,14.385 -295.16,18.45ZM-80.02,27.6C-79.198,26.236 -78.261,24.945 -77.22,23.74C-78.682,21.412 -81.246,19.994 -83.995,19.994C-86.744,19.994 -89.308,21.412 -90.77,23.74C-89.74,24.94 -88.8,26.24 -87.98,27.6C-87.776,25.566 -86.044,23.999 -84,23.999C-81.956,23.999 -80.224,25.566 -80.02,27.6ZM-239.16,18.45C-238.03,17.73 -236.86,17.08 -235.62,16.52C-239.354,11.174 -245.479,7.981 -252,7.981C-258.521,7.981 -264.646,11.174 -268.38,16.52C-267.15,17.08 -265.97,17.72 -264.84,18.45C-261.828,14.385 -257.059,11.983 -252,11.983C-246.941,11.983 -242.172,14.385 -239.16,18.45ZM-457.73,15.74C-456.43,15.26 -455.1,14.87 -453.73,14.59C-458.424,6.781 -466.894,1.99 -476.005,1.99C-485.116,1.99 -493.586,6.781 -498.28,14.59C-496.9,14.87 -495.56,15.26 -494.27,15.74C-490.195,9.647 -483.33,5.98 -476,5.98C-468.67,5.98 -461.805,9.647 -457.73,15.74ZM-233.73,15.74C-232.43,15.26 -231.1,14.87 -229.73,14.59C-234.424,6.781 -242.894,1.99 -252.005,1.99C-261.116,1.99 -269.586,6.781 -274.28,14.59C-272.9,14.87 -271.56,15.26 -270.27,15.74C-266.195,9.647 -259.33,5.98 -252,5.98C-244.67,5.98 -237.805,9.647 -233.73,15.74ZM7.75,28L-7.75,28C-5.45,26.73 -2.81,26 0,26C2.81,26 5.46,26.73 7.75,28ZM0,22C-5.6,22 -10.65,24.3 -14.28,28L-16.98,28C-12.94,23.11 -6.83,20 0,20C6.83,20 12.94,23.11 16.97,28L14.28,28C10.65,24.3 5.6,22 0,22ZM56,26L56,28L48.25,28C50.55,26.73 53.19,26 56,26ZM56,20L56,22C50.4,22 45.35,24.3 41.72,28L39.02,28C43.06,23.11 49.17,20 56,20ZM-496.25,28L-511.75,28C-509.45,26.73 -506.81,26 -504,26C-501.19,26 -498.54,26.73 -496.25,28ZM-504,22C-509.6,22 -514.65,24.3 -518.28,28L-520.98,28C-516.94,23.11 -510.83,20 -504,20C-497.17,20 -491.06,23.11 -487.03,28L-489.72,28C-493.35,24.3 -498.4,22 -504,22ZM-440.25,28L-455.75,28C-453.45,26.73 -450.81,26 -448,26C-445.19,26 -442.54,26.73 -440.25,28ZM-448,22C-453.6,22 -458.65,24.3 -462.28,28L-464.98,28C-460.94,23.11 -454.83,20 -448,20C-441.17,20 -435.06,23.11 -431.03,28L-433.72,28C-437.35,24.3 -442.4,22 -448,22ZM-384.25,28L-399.75,28C-397.45,26.73 -394.81,26 -392,26C-389.19,26 -386.54,26.73 -384.25,28ZM-392,22C-397.6,22 -402.65,24.3 -406.28,28L-408.98,28C-404.94,23.11 -398.83,20 -392,20C-385.17,20 -379.06,23.11 -375.03,28L-377.72,28C-381.35,24.3 -386.4,22 -392,22ZM-328.25,28L-343.75,28C-341.45,26.73 -338.81,26 -336,26C-333.19,26 -330.54,26.73 -328.25,28ZM-336,22C-341.6,22 -346.65,24.3 -350.28,28L-352.98,28C-348.94,23.11 -342.83,20 -336,20C-329.17,20 -323.06,23.11 -319.03,28L-321.72,28C-325.35,24.3 -330.4,22 -336,22ZM-272.25,28L-287.75,28C-285.45,26.73 -282.81,26 -280,26C-277.19,26 -274.54,26.73 -272.25,28ZM-280,22C-285.6,22 -290.65,24.3 -294.28,28L-296.98,28C-292.94,23.11 -286.83,20 -280,20C-273.17,20 -267.06,23.11 -263.03,28L-265.72,28C-269.35,24.3 -274.4,22 -280,22ZM-216.25,28L-231.75,28C-229.45,26.73 -226.81,26 -224,26C-221.19,26 -218.54,26.73 -216.25,28ZM-224,22C-229.6,22 -234.65,24.3 -238.28,28L-240.98,28C-236.94,23.11 -230.83,20 -224,20C-217.17,20 -211.06,23.11 -207.03,28L-209.72,28C-213.35,24.3 -218.4,22 -224,22ZM-160.25,28L-175.75,28C-173.45,26.73 -170.81,26 -168,26C-165.19,26 -162.54,26.73 -160.25,28ZM-168,22C-173.6,22 -178.65,24.3 -182.28,28L-184.98,28C-180.94,23.11 -174.83,20 -168,20C-161.17,20 -155.06,23.11 -151.03,28L-153.72,28C-157.35,24.3 -162.4,22 -168,22ZM-104.25,28L-119.75,28C-117.45,26.73 -114.81,26 -112,26C-109.19,26 -106.54,26.73 -104.25,28ZM-112,22C-117.6,22 -122.65,24.3 -126.28,28L-128.98,28C-124.94,23.11 -118.83,20 -112,20C-105.17,20 -99.06,23.11 -95.03,28L-97.72,28C-101.35,24.3 -106.4,22 -112,22ZM-48.25,28L-63.75,28C-61.45,26.73 -58.81,26 -56,26C-53.19,26 -50.54,26.73 -48.25,28ZM-56,22C-61.6,22 -66.65,24.3 -70.28,28L-72.98,28C-68.94,23.11 -62.83,20 -56,20C-49.17,20 -43.06,23.11 -39.03,28L-41.72,28C-45.35,24.3 -50.4,22 -56,22ZM-552.25,28L-560,28L-560,26C-557.19,26 -554.54,26.73 -552.25,28ZM-543.03,28L-545.72,28C-549.35,24.3 -554.4,22 -560,22L-560,20C-553.17,20 -547.06,23.11 -543.03,28Z" style="fill:url(#_Linear2);"/>
        </g>
        <g transform="matrix(0.553054,0,0,0.480484,4672.53,6873.53)">
            <g transform="matrix(1,0,0,1,-347.917,-72.9167)">
                <g transform="matrix(4.16667,0,0,4.16667,0,0)">
                    <path d="M107.456,9.972C107.64,8.73 108.7,7.809 109.948,7.809C117.107,7.792 162.169,7.792 162.169,7.792C164.304,7.792 166.039,6.046 166.039,3.896C166.039,1.746 164.304,0 162.169,0L74.474,0C72.339,0 70.605,1.746 70.605,3.896C70.605,6.046 72.339,7.792 74.474,7.792L91.641,7.792C92.897,7.792 93.966,8.717 94.151,9.968C94.156,10.118 94.167,10.27 94.167,10.424C94.167,11.376 93.721,12.225 93.029,12.77C92.581,13.126 92.029,13.317 91.459,13.317C86.872,13.319 48.427,13.319 48.427,13.319C46.29,13.319 44.557,15.065 44.557,17.215C44.557,19.365 46.29,21.11 48.427,21.11L55.792,21.11C56.554,21.11 57.273,21.454 57.756,22.045C58.146,22.53 58.379,23.137 58.379,23.798C58.379,24.665 57.976,25.442 57.34,25.966C56.888,26.34 56.32,26.543 55.736,26.543L3.87,26.543C1.734,26.543 0,28.289 0,30.439C0,32.589 1.734,34.335 3.87,34.335L78.073,34.335C80.208,34.335 81.943,32.589 81.943,30.439C81.943,28.289 80.208,26.543 78.073,26.543L70.019,26.543C69.433,26.543 68.865,26.34 68.412,25.966C67.777,25.442 67.374,24.665 67.374,23.798C67.374,23.137 67.608,22.53 67.999,22.045C68.48,21.454 69.2,21.11 69.96,21.11L115.352,21.11C117.487,21.11 119.222,19.365 119.222,17.215C119.222,15.065 117.487,13.319 115.352,13.319L110.129,13.319C109.559,13.319 109.007,13.126 108.56,12.772C107.867,12.225 107.422,11.376 107.422,10.424C107.422,10.27 107.433,10.118 107.456,9.972ZM103.28,34.692C105.416,34.692 107.15,32.946 107.15,30.796C107.15,28.647 105.416,26.901 103.28,26.901L98.487,26.901C96.35,26.901 94.618,28.647 94.618,30.796C94.618,32.946 96.35,34.692 98.487,34.692L103.28,34.692Z" style="fill:url(#_Linear3);"/>
                </g>
            </g>
        </g>
        <g transform="matrix(-0.567545,0,0,0.567545,5549.79,6873.53)">
            <g transform="matrix(1,0,0,1,-347.917,-72.9167)">
                <g transform="matrix(4.16667,0,0,4.16667,0,0)">
                    <path d="M107.456,9.972C107.64,8.73 108.7,7.809 109.948,7.809C117.107,7.792 162.169,7.792 162.169,7.792C164.304,7.792 166.039,6.046 166.039,3.896C166.039,1.746 164.304,0 162.169,0L74.474,0C72.339,0 70.605,1.746 70.605,3.896C70.605,6.046 72.339,7.792 74.474,7.792L91.641,7.792C92.897,7.792 93.966,8.717 94.151,9.968C94.156,10.118 94.167,10.27 94.167,10.424C94.167,11.376 93.721,12.225 93.029,12.77C92.581,13.126 92.029,13.317 91.459,13.317C86.872,13.319 48.427,13.319 48.427,13.319C46.29,13.319 44.557,15.065 44.557,17.215C44.557,19.365 46.29,21.11 48.427,21.11L55.792,21.11C56.554,21.11 57.273,21.454 57.756,22.045C58.146,22.53 58.379,23.137 58.379,23.798C58.379,24.665 57.976,25.442 57.34,25.966C56.888,26.34 56.32,26.543 55.736,26.543L3.87,26.543C1.734,26.543 0,28.289 0,30.439C0,32.589 1.734,34.335 3.87,34.335L78.073,34.335C80.208,34.335 81.943,32.589 81.943,30.439C81.943,28.289 80.208,26.543 78.073,26.543L70.019,26.543C69.433,26.543 68.865,26.34 68.412,25.966C67.777,25.442 67.374,24.665 67.374,23.798C67.374,23.137 67.608,22.53 67.999,22.045C68.48,21.454 69.2,21.11 69.96,21.11L115.352,21.11C117.487,21.11 119.222,19.365 119.222,17.215C119.222,15.065 117.487,13.319 115.352,13.319L110.129,13.319C109.559,13.319 109.007,13.126 108.56,12.772C107.867,12.225 107.422,11.376 107.422,10.424C107.422,10.27 107.433,10.118 107.456,9.972ZM103.28,34.692C105.416,34.692 107.15,32.946 107.15,30.796C107.15,28.647 105.416,26.901 103.28,26.901L98.487,26.901C96.35,26.901 94.618,28.647 94.618,30.796C94.618,32.946 96.35,34.692 98.487,34.692L103.28,34.692Z" style="fill:url(#_Linear4);"/>
                </g>
            </g>
        </g>
    </g>
    <defs>
        <linearGradient id="_Linear1" x1="0" y1="0" x2="1" y2="0" gradientUnits="userSpaceOnUse" gradientTransform="matrix(2319,0,0,233.338,1225,6739.16)"><stop offset="0" style="stop-color:rgb(255,239,218);stop-opacity:1"/><stop offset="1" style="stop-color:rgb(255,187,187);stop-opacity:1"/></linearGradient>
        <linearGradient id="_Linear2" x1="0" y1="0" x2="1" y2="0" gradientUnits="userSpaceOnUse" gradientTransform="matrix(616,0,0,28.0005,-560,13.9997)"><stop offset="0" style="stop-color:rgb(241,194,179);stop-opacity:1"/><stop offset="1" style="stop-color:rgb(242,144,149);stop-opacity:1"/></linearGradient>
        <linearGradient id="_Linear3" x1="0" y1="0" x2="1" y2="0" gradientUnits="userSpaceOnUse" gradientTransform="matrix(166.039,0,0,166.039,0,17.3461)"><stop offset="0" style="stop-color:white;stop-opacity:1"/><stop offset="1" style="stop-color:white;stop-opacity:0.75"/></linearGradient>
        <linearGradient id="_Linear4" x1="0" y1="0" x2="1" y2="0" gradientUnits="userSpaceOnUse" gradientTransform="matrix(166.039,0,0,166.039,0,17.3461)"><stop offset="0" style="stop-color:white;stop-opacity:1"/><stop offset="1" style="stop-color:white;stop-opacity:0.75"/></linearGradient>
    </defs>
</svg>
