<svg width="400" height="400" viewBox="0 0 400 400" fill="none" xmlns="http://www.w3.org/2000/svg">
<path d="M395.767 117.28L334.96 48.44C334.849 48.3126 334.711 48.2105 334.557 48.1406C334.403 48.0706 334.236 48.0344 334.067 48.0344C333.897 48.0344 333.73 48.0706 333.576 48.1406C333.422 48.2105 333.285 48.3126 333.173 48.44L272.367 117.28C272.209 117.452 272.105 117.665 272.068 117.895C272.031 118.125 272.061 118.361 272.156 118.573C272.251 118.786 272.406 118.966 272.603 119.092C272.799 119.217 273.027 119.283 273.26 119.28H303.733C303.333 190.533 245.193 248.387 173.827 248.387H67.9133C59.8714 248.387 52.1587 251.581 46.4715 257.267C40.7843 262.953 37.5884 270.665 37.5867 278.707C37.5884 286.749 40.7843 294.461 46.4715 300.147C52.1587 305.832 59.8714 309.027 67.9133 309.027H173.827C224.227 309.027 272.576 289.06 308.289 253.496C344.001 217.931 364.17 169.667 364.38 119.267H394.873C395.104 119.267 395.329 119.201 395.523 119.076C395.716 118.951 395.869 118.773 395.964 118.563C396.058 118.353 396.09 118.12 396.055 117.892C396.02 117.665 395.92 117.452 395.767 117.28Z" fill="url(#paint0_linear_2021_10820)"/>
<path d="M127.707 322.407H36.8934V386.567H127.707V322.407Z" fill="white" stroke="#202124" stroke-linecap="round" stroke-linejoin="round"/>
<path d="M238.507 183.96H147.693V386.567H238.507V183.96Z" fill="white" stroke="#202124" stroke-linecap="round" stroke-linejoin="round"/>
<path d="M349.307 275.127H258.493V386.567H349.307V275.127Z" fill="white" stroke="#202124" stroke-linecap="round" stroke-linejoin="round"/>
<path d="M221.007 43.9999C225.373 46.8866 222.947 50.6666 228.28 58.6666C232.2 64.5466 242.353 67.8333 242.467 71.8533C242.567 75.4799 240.12 78.2599 238.507 80.0999C231.173 88.4399 213.453 86.3466 206.88 86.2999C201.547 86.2666 194.26 86.2133 193.06 82.4666C191.86 78.7199 198 75.7266 198.16 68.2466C198.287 62.2466 193.253 59.3933 193.82 54.0266C195.06 42.2866 207.527 35.0799 221.007 43.9999Z" fill="#202124" stroke="#202124" stroke-miterlimit="10"/>
<path d="M216.96 43.7134C216.96 43.7134 217.36 31.9601 225.627 33.9267C233.893 35.8934 227.233 46.4801 221.313 48.0734C215.393 49.6667 216.96 43.7134 216.96 43.7134Z" fill="#202124" stroke="#202124" stroke-miterlimit="10"/>
<path d="M247.167 131.113C251.307 123.78 258.013 107.867 249.733 92.4466C249.145 90.9549 248.288 89.5835 247.207 88.3999C242.873 83.5732 236.507 82.5399 228.813 81.2932C222.033 80.1932 206.373 77.6466 197.327 85.5066C196.162 86.4967 195.167 87.6698 194.38 88.9799C192.86 90.8332 188.927 96.4532 186.38 107.527C183.213 121.493 165.427 130.4 156.26 126.04C147.093 121.68 146.8 119.44 146.8 119.44L147.527 126.473C147.527 126.473 162.92 154.82 187.527 139.707C182.727 154.893 177.287 159.04 180.147 167.94C185.053 183.24 205.26 180.747 209.093 181.573C220.013 183.927 236.667 188.907 246.427 179.573C252.207 174.08 246.487 160.567 247.167 131.113Z" fill="#F1F3F4" stroke="#202124" stroke-linecap="round" stroke-linejoin="round"/>
<path d="M238.507 138.66L247.114 134.853V131.64L244.034 134.973L238.507 138.66Z" fill="#202124"/>
<path d="M151.28 109.373L184.907 148.193L164.807 150.467L130.167 112.94L151.28 109.373Z" fill="white"/>
<path d="M164.807 151.12C164.717 151.12 164.628 151.101 164.546 151.066C164.463 151.03 164.389 150.978 164.327 150.913L129.66 113.38C129.579 113.292 129.523 113.183 129.499 113.066C129.474 112.949 129.481 112.827 129.52 112.713C129.56 112.602 129.628 112.503 129.718 112.427C129.808 112.351 129.917 112.3 130.034 112.28L151.14 108.72C151.251 108.702 151.365 108.711 151.471 108.749C151.577 108.786 151.672 108.85 151.747 108.933L185.374 147.753C185.45 147.844 185.501 147.954 185.521 148.071C185.541 148.188 185.529 148.309 185.487 148.42C185.443 148.53 185.37 148.626 185.276 148.699C185.183 148.772 185.071 148.818 184.954 148.833L164.854 151.107L164.807 151.12Z" fill="#FBBC04" stroke="#202124" stroke-linecap="round" stroke-linejoin="round"/>
<path d="M151.1 136.3C150.793 136.3 143.567 135.88 141.06 130.62C139.987 128.38 140.613 124.007 141.327 120.733C141.407 120.38 141.596 120.061 141.867 119.822C142.139 119.582 142.48 119.435 142.84 119.4C143.206 119.355 143.576 119.428 143.898 119.606C144.22 119.784 144.477 120.06 144.633 120.393L151.72 135.393C151.764 135.493 151.782 135.603 151.774 135.712C151.765 135.821 151.73 135.926 151.672 136.018C151.613 136.11 151.533 136.186 151.438 136.24C151.343 136.294 151.236 136.324 151.127 136.327L151.1 136.3Z" fill="#A94B37" stroke="#202124" stroke-miterlimit="10"/>
<path d="M187.547 139.733C192.88 123.733 194.447 110.933 203.78 98.2666" stroke="#202124" stroke-linecap="round" stroke-linejoin="round"/>
<path d="M194.04 139.74C193.965 139.739 193.89 139.726 193.82 139.7C179.573 134.6 173.693 118.367 172.767 115.58C170.541 115.166 168.456 114.196 166.707 112.76C162.893 109.207 164.96 104.76 165.867 103.247C162.893 100.973 162.18 98.9734 162.12 97.6667C162.106 97.3558 162.182 97.0475 162.34 96.779C162.497 96.5105 162.729 96.2932 163.007 96.1534C163.292 96.0029 163.615 95.9392 163.936 95.97C164.257 96.0008 164.562 96.1248 164.813 96.3267L173.353 102.993C175.021 104.291 176.449 105.87 177.573 107.66C183.813 117.66 197.96 123.747 198.107 123.807C198.218 123.856 198.313 123.935 198.382 124.035C198.452 124.135 198.492 124.252 198.5 124.373C198.712 129.666 197.35 134.902 194.587 139.42C194.529 139.515 194.449 139.593 194.354 139.649C194.258 139.705 194.15 139.736 194.04 139.74Z" fill="#A94B37" stroke="#202124" stroke-miterlimit="10"/>
<path d="M247.167 131.113C241.607 140.6 223.553 144.353 216.353 144.333C208.62 144.333 201.02 142.333 193.82 139.7" stroke="#202124" stroke-linecap="round" stroke-linejoin="round"/>
<path d="M235.453 96C234.416 101.54 232.339 106.833 229.333 111.6C225.213 118.007 217.693 125.273 204.78 125.273C203.6 125.273 199.447 124.607 198.113 123.833" stroke="#202124" stroke-linecap="round" stroke-linejoin="round"/>
<path d="M220.093 88.6001C217.256 88.5805 214.522 87.5364 212.393 85.6601C212.256 85.5348 212.171 85.363 212.154 85.1781C212.136 84.9932 212.189 84.8085 212.3 84.6601L213.633 82.8734C213.975 82.3201 214.167 81.688 214.191 81.0385C214.216 80.389 214.072 79.7441 213.773 79.1667L211.427 75.2334C210.905 75.8229 210.322 76.3548 209.687 76.8201C208.821 77.4355 207.766 77.7266 206.707 77.6425C205.647 77.5584 204.652 77.1044 203.893 76.3601C202.21 74.8352 200.903 72.9413 200.073 70.8267L197.853 70.5467C197.652 70.5198 197.47 70.4143 197.347 70.2534C197.285 70.1729 197.239 70.0805 197.214 69.9819C197.189 69.8833 197.184 69.7806 197.2 69.6801C197.587 67.1267 197.793 61.7267 197.867 58.7334C197.933 56.5467 199.66 50.8601 206.753 50.8467C207.544 50.8002 208.335 50.9157 209.079 51.1863C209.823 51.4568 210.504 51.8767 211.08 52.4201C211.547 52.8983 211.91 53.468 212.147 54.0934C212.719 53.3544 213.514 52.8191 214.413 52.5667C214.912 52.4614 215.428 52.476 215.919 52.6093C216.411 52.7426 216.863 52.9908 217.24 53.3334C218.133 54.0734 218.627 55.4134 218.633 57.1067C218.664 59.0091 218.1 60.8735 217.02 62.4401C217.233 62.7334 217.54 63.1734 217.98 63.7734C220.733 67.7134 227.187 76.9334 231.367 81.2534C231.441 81.331 231.499 81.4232 231.535 81.5243C231.572 81.6253 231.587 81.7328 231.58 81.8401C231.572 81.9473 231.541 82.0516 231.489 82.1459C231.438 82.2402 231.366 82.3223 231.28 82.3867L225.093 87.0534C223.639 88.0991 221.884 88.6421 220.093 88.6001Z" fill="#A94B37" stroke="#202124" stroke-miterlimit="10"/>
<path d="M211.513 75.0867L212.553 73.8267" stroke="#202124" stroke-linecap="round" stroke-linejoin="round"/>
<path d="M116 261.693C115.911 261.692 115.824 261.673 115.742 261.638C115.661 261.602 115.588 261.551 115.527 261.487C115.454 261.408 115.402 261.313 115.374 261.21C115.346 261.106 115.344 260.998 115.367 260.893C117.247 252.393 120.033 239.48 120.153 238.473C120.149 238.298 120.213 238.128 120.333 238C120.41 237.922 120.505 237.864 120.61 237.832C120.715 237.799 120.826 237.793 120.933 237.813L130.793 239.813C130.96 239.85 131.106 239.95 131.201 240.091C131.297 240.232 131.335 240.405 131.307 240.573L127.913 259.313C127.889 259.446 127.825 259.568 127.729 259.663C127.634 259.758 127.512 259.822 127.38 259.847L116.107 261.707L116 261.693Z" fill="#A94B37" stroke="#202124" stroke-miterlimit="10"/>
<path d="M174.527 263.607C174.442 263.608 174.358 263.592 174.28 263.56C174.182 263.519 174.095 263.456 174.027 263.374C173.958 263.293 173.91 263.197 173.887 263.093C171.973 254.6 169.033 241.713 168.693 240.767C168.659 240.685 168.642 240.598 168.642 240.51C168.642 240.422 168.659 240.335 168.693 240.253C168.731 240.15 168.793 240.058 168.874 239.985C168.956 239.912 169.054 239.86 169.16 239.833L178.947 237.527C179.112 237.491 179.284 237.52 179.429 237.607C179.573 237.693 179.68 237.831 179.727 237.993L184.62 256.413C184.652 256.544 184.644 256.682 184.596 256.808C184.549 256.934 184.464 257.043 184.353 257.12L174.92 263.493C174.804 263.572 174.666 263.611 174.527 263.607Z" fill="#A94B37" stroke="#202124" stroke-miterlimit="10"/>
<path d="M222 153.153C222 153.153 153.38 150.207 145.873 157.093C135.7 166.427 118.22 244.167 118.22 244.167L135.1 248.833C135.1 248.833 160.527 185.04 166.833 185.04C170.613 185.04 193.5 184.287 211.253 183.707C223.033 183.287 222 153.153 222 153.153Z" fill="#CDD0D5" stroke="#202124" stroke-miterlimit="10"/>
<path d="M174.227 153.073L193.233 154.36L207.407 152.713L196.267 152.527L174.227 153.073Z" fill="#202124"/>
<path d="M146.253 181.833L152.147 209.167L153.593 206.093V182.92L146.253 181.833Z" fill="#202124"/>
<path d="M226.08 152C234.5 151.94 239.413 155.74 240.7 160.96C242.7 169.04 242.033 177.5 232.5 182.6C224.873 186.693 178.22 186.98 180.02 186.387C181.82 185.793 184.687 229.373 184.687 246.133L168.34 246.76C168.34 246.76 142.267 179.333 145.073 171.8C150.1 158.34 188.767 155.253 201.14 153.453C202.8 153.213 216.46 152.06 226.08 152Z" fill="#CDD0D5" stroke="#202124" stroke-miterlimit="10"/>
<path d="M161.94 283.9C161.457 283.704 161.023 283.404 160.67 283.022C160.316 282.639 160.051 282.183 159.893 281.687C159.3 279.813 159.08 276.713 161.433 272.6C164.927 266.487 169.827 259.58 171.24 257.607C171.492 257.15 171.872 256.776 172.333 256.533C172.333 256.533 176.207 257.627 178.853 255.867C183.313 252.933 183.3 250.5 183.3 250.5C184.347 249.947 185.02 250.38 185.967 251.167C187.967 252.847 192.927 257.347 195.54 262.727C195.978 263.589 196.068 264.586 195.79 265.512C195.512 266.439 194.887 267.222 194.047 267.7L164.767 283.7H164.727C164.304 283.933 163.836 284.071 163.355 284.106C162.874 284.141 162.391 284.07 161.94 283.9Z" fill="white" stroke="#202124" stroke-width="0.84" stroke-linecap="round" stroke-linejoin="round"/>
<path d="M161.94 283.9C161.459 283.705 161.026 283.406 160.673 283.025C160.321 282.643 160.057 282.189 159.9 281.693C159.827 281.473 159.767 281.24 159.707 280.987C159.671 280.795 159.695 280.596 159.776 280.418C159.857 280.24 159.991 280.092 160.16 279.993L193.853 261.56C194.071 261.453 194.32 261.433 194.552 261.504C194.783 261.574 194.979 261.73 195.1 261.94C195.24 262.213 195.387 262.48 195.52 262.753C195.959 263.615 196.048 264.613 195.77 265.539C195.492 266.465 194.868 267.249 194.027 267.727L164.747 283.727H164.707C164.285 283.953 163.82 284.085 163.342 284.115C162.865 284.145 162.387 284.071 161.94 283.9Z" fill="white" stroke="#202124" stroke-width="0.84" stroke-linecap="round" stroke-linejoin="round"/>
<path d="M175.26 263.42L168.46 262.313" stroke="#202124" stroke-width="0.84" stroke-linecap="round" stroke-linejoin="round"/>
<path d="M166.173 265.887L173.08 266.913L166.173 265.887Z" fill="white" stroke="#202124" stroke-width="0.84" stroke-linecap="round" stroke-linejoin="round"/>
<path d="M163.833 268.987L168.847 269.987" stroke="#202124" stroke-width="0.84" stroke-linecap="round" stroke-linejoin="round"/>
<path d="M99.1668 280.073C98.7537 279.759 98.4156 279.356 98.177 278.895C97.9383 278.434 97.8051 277.926 97.7868 277.407C97.7202 275.407 98.3468 272.393 101.72 269.067C106.733 264.127 113.32 258.793 115.214 257.273C115.577 256.905 116.041 256.65 116.547 256.54C116.547 256.54 119.987 258.64 123 257.673C128.087 256.053 128.727 253.707 128.727 253.707C129.887 253.453 130.42 254.053 131.107 255.04C132.58 257.207 136.133 262.873 137.2 268.76C137.39 269.708 137.208 270.692 136.692 271.509C136.175 272.325 135.364 272.912 134.427 273.147L101.907 280.667H101.867C101.401 280.771 100.917 280.772 100.451 280.67C99.9845 280.567 99.5461 280.364 99.1668 280.073Z" fill="white" stroke="#202124" stroke-width="0.84" stroke-linecap="round" stroke-linejoin="round"/>
<path d="M99.1666 280.073C98.7535 279.759 98.4154 279.356 98.1768 278.895C97.9381 278.434 97.8049 277.926 97.7866 277.407C97.7866 277.18 97.7866 276.94 97.7866 276.68C97.8016 276.484 97.8778 276.297 98.0046 276.146C98.1314 275.995 98.3024 275.888 98.4933 275.84L135.907 267.173C136.145 267.127 136.392 267.175 136.595 267.307C136.799 267.438 136.944 267.644 137 267.88C137.067 268.173 137.133 268.473 137.187 268.773C137.377 269.721 137.195 270.705 136.678 271.522C136.162 272.339 135.351 272.925 134.413 273.16L101.907 280.667H101.867C101.401 280.771 100.917 280.772 100.451 280.67C99.9843 280.567 99.5459 280.364 99.1666 280.073Z" fill="white" stroke="#202124" stroke-width="0.84" stroke-linecap="round" stroke-linejoin="round"/>
<path d="M117.513 263.953L111.267 261.053" stroke="#202124" stroke-width="0.84" stroke-linecap="round" stroke-linejoin="round"/>
<path d="M108.1 263.873L114.473 266.727L108.1 263.873Z" fill="white" stroke="#202124" stroke-width="0.84" stroke-linecap="round" stroke-linejoin="round"/>
<path d="M105.007 266.233L109.56 268.54" stroke="#202124" stroke-width="0.84" stroke-linecap="round" stroke-linejoin="round"/>
<path d="M198.54 55.8867C206.753 50.8467 209.16 59.9601 212.147 54.0934V43.6134L203.78 44.7067L198.54 55.8867Z" fill="#202124" stroke="#202124" stroke-miterlimit="10"/>
<path d="M18.2001 386.567H368" stroke="#202124" stroke-linecap="round" stroke-linejoin="round"/>
<defs>
<linearGradient id="paint0_linear_2021_10820" x1="216.827" y1="309.027" x2="216.827" y2="48.04" gradientUnits="userSpaceOnUse">
<stop stop-color="#E8F0FE"/>
<stop offset="0.12" stop-color="#E2ECFE"/>
<stop offset="0.29" stop-color="#D1E1FD"/>
<stop offset="0.47" stop-color="#B5CFFB"/>
<stop offset="0.68" stop-color="#8DB6F9"/>
<stop offset="0.9" stop-color="#5C96F6"/>
<stop offset="1" stop-color="#4285F4"/>
</linearGradient>
</defs>
</svg>
