<svg preserveAspectRatio="none" width="100%" height="100%" overflow="visible" style="display: block;" viewBox="0 0 88 90" fill="none" xmlns="http://www.w3.org/2000/svg">
<g id="Frame 58">
<ellipse id="Ellipse 57" cx="44" cy="45" rx="44" ry="45" transform="rotate(180 44 45)" fill="var(--fill-0, #D9D9D9)"/>
<g id="Frame" clip-path="url(#clip0_390_706)">
<g id="Group">
<g id="Vector">
</g>
<g id="Vector_2" opacity="0.87">
</g>
</g>
<path id="Vector_3" d="M55 37.6667H53.1667V34C53.1667 28.94 49.06 24.8333 44 24.8333C38.94 24.8333 34.8333 28.94 34.8333 34V37.6667H33C30.9833 37.6667 29.3333 39.3167 29.3333 41.3333V59.6667C29.3333 61.6833 30.9833 63.3333 33 63.3333H55C57.0167 63.3333 58.6667 61.6833 58.6667 59.6667V41.3333C58.6667 39.3167 57.0167 37.6667 55 37.6667ZM44 54.1667C41.9833 54.1667 40.3333 52.5167 40.3333 50.5C40.3333 48.4833 41.9833 46.8333 44 46.8333C46.0167 46.8333 47.6667 48.4833 47.6667 50.5C47.6667 52.5167 46.0167 54.1667 44 54.1667ZM38.5 37.6667V34C38.5 30.9567 40.9567 28.5 44 28.5C47.0433 28.5 49.5 30.9567 49.5 34V37.6667H38.5Z" fill="var(--fill-0, #A0A0A0)"/>
</g>
</g>
<defs>
<clipPath id="clip0_390_706">
<rect width="44" height="44" fill="white" transform="translate(22 23)"/>
</clipPath>
</defs>
</svg>
