<svg width="24" height="24" viewBox="0 0 24 24" fill="none" xmlns="http://www.w3.org/2000/svg">
<path d="M12 17.7272L17.13 20.8819C17.2631 20.9627 17.4172 21.0023 17.5727 20.9955C17.7283 20.9888 17.8783 20.9361 18.004 20.8441C18.1296 20.7521 18.2251 20.6249 18.2785 20.4786C18.3318 20.3323 18.3406 20.1735 18.3037 20.0222L16.9087 14.1357L21.4744 10.1982C21.5908 10.096 21.6747 9.9619 21.7158 9.81253C21.7569 9.66317 21.7533 9.50504 21.7055 9.35767C21.6578 9.21031 21.5679 9.08015 21.447 8.98328C21.3261 8.88641 21.1795 8.82705 21.0253 8.81255L15.0337 8.32505L12.7256 2.73755C12.6668 2.5934 12.5663 2.47004 12.4371 2.38321C12.3078 2.29637 12.1557 2.25 12 2.25C11.8443 2.25 11.6921 2.29637 11.5629 2.38321C11.4336 2.47004 11.3332 2.5934 11.2744 2.73755L8.96623 8.32505L2.97467 8.81255C2.81939 8.82619 2.67156 8.88528 2.54967 8.98244C2.42778 9.0796 2.33722 9.21053 2.28931 9.35886C2.2414 9.5072 2.23826 9.66636 2.28028 9.81647C2.32231 9.96658 2.40764 10.101 2.52561 10.2029L7.09123 14.1404L5.69623 20.0222C5.65935 20.1735 5.66815 20.3323 5.7215 20.4786C5.77486 20.6249 5.87038 20.7521 5.996 20.8441C6.12162 20.9361 6.27169 20.9888 6.42725 20.9955C6.58281 21.0023 6.73688 20.9627 6.86998 20.8819L12 17.7272Z" stroke="#343330" stroke-width="2" stroke-linecap="round" stroke-linejoin="round"/>
</svg>
