<svg preserveAspectRatio="none" width="100%" height="100%" overflow="visible" style="display: block;" viewBox="0 0 24 24" fill="none" xmlns="http://www.w3.org/2000/svg">
<g id="Home">
<path id="&#60;span class=&#34;material-symbols-rounded&#34;&#62; home &#60;/span&#62;" d="M6 20.5H9V15.5C9 15.2167 9.09583 14.9792 9.2875 14.7875C9.47917 14.5958 9.71667 14.5 10 14.5H14C14.2833 14.5 14.5208 14.5958 14.7125 14.7875C14.9042 14.9792 15 15.2167 15 15.5V20.5H18V11.5L12 7L6 11.5V20.5ZM4 20.5V11.5C4 11.1833 4.07083 10.8833 4.2125 10.6C4.35417 10.3167 4.55 10.0833 4.8 9.9L10.8 5.4C11.15 5.13333 11.55 5 12 5C12.45 5 12.85 5.13333 13.2 5.4L19.2 9.9C19.45 10.0833 19.6458 10.3167 19.7875 10.6C19.9292 10.8833 20 11.1833 20 11.5V20.5C20 21.05 19.8042 21.5208 19.4125 21.9125C19.0208 22.3042 18.55 22.5 18 22.5H14C13.7167 22.5 13.4792 22.4042 13.2875 22.2125C13.0958 22.0208 13 21.7833 13 21.5V16.5H11V21.5C11 21.7833 10.9042 22.0208 10.7125 22.2125C10.5208 22.4042 10.2833 22.5 10 22.5H6C5.45 22.5 4.97917 22.3042 4.5875 21.9125C4.19583 21.5208 4 21.05 4 20.5Z" fill="var(--fill-0, #1F1F1F)"/>
</g>
</svg>
