<svg preserveAspectRatio="none" width="100%" height="100%" overflow="visible" style="display: block;" viewBox="0 0 30 14" fill="none" xmlns="http://www.w3.org/2000/svg">
<g id="Group">
<path id="Vector" fill-rule="evenodd" clip-rule="evenodd" d="M0.40379 13.0193C0.180447 13.0187 -0.000484422 12.8394 9.74374e-07 12.6189C0.000547046 12.3985 0.182267 12.2199 0.405611 12.2205C6.14488 12.2333 17.6235 12.2591 22.5005 12.2591C25.6819 12.2591 28.6155 10.0543 28.6155 6.57555C28.6155 2.03195 24.4581 0.798885 22.5005 0.798885C20.5501 0.798885 17.0482 2.6374 17.0482 6.57555C17.0482 6.79593 16.8669 6.97499 16.6435 6.97499C16.4202 6.97499 16.2389 6.79593 16.2389 6.57555C16.2389 2.07447 20.2711 0 22.5005 0C24.7227 0 29.4248 1.41751 29.4248 6.57555C29.4248 10.5281 26.1153 13.0579 22.5005 13.0579C17.6231 13.0579 6.14355 13.0322 0.40379 13.0193Z" fill="url(#paint0_linear_401_1789)"/>
</g>
<defs>
<linearGradient id="paint0_linear_401_1789" x1="-8.63648" y1="6.56717" x2="29.0202" y2="6.56717" gradientUnits="userSpaceOnUse">
<stop stop-color="#464394"/>
<stop offset="0.46" stop-color="#BB3030"/>
<stop offset="1" stop-color="#FFCF41"/>
</linearGradient>
</defs>
</svg>
