<svg preserveAspectRatio="none" width="100%" height="100%" overflow="visible" style="display: block;" viewBox="0 0 17 12" fill="none" xmlns="http://www.w3.org/2000/svg">
<g id="Group">
<path id="Vector" fill-rule="evenodd" clip-rule="evenodd" d="M5.41104 3.66182V1.82036C5.41104 1.76123 5.42286 1.70271 5.44563 1.64799C5.44563 1.64799 6.14018 0 7.84283 0C9.0677 0 9.72064 0.368006 10.0767 0.707873C10.5128 1.12433 10.5584 1.54952 10.5584 1.54952C10.5615 1.57105 10.5632 1.59275 10.5632 1.61449V3.52601C12.819 3.59538 14.2825 4.00497 15.1141 4.56584C15.8257 5.04597 16.1297 5.64423 16.1318 6.27309C16.1353 7.12425 15.5275 8.08995 14.4213 8.92287C13.7789 9.40684 12.967 9.85313 12.0333 10.2147C10.7795 10.7004 9.30505 11.0333 7.72415 11.0997C5.28842 11.2019 3.33222 10.9224 2.02895 10.4009C1.0502 10.0093 0.419583 9.46701 0.15464 8.86404C-0.130887 8.21335 -0.0376059 7.46308 0.573735 6.67139C1.30594 5.72298 2.85794 4.67144 5.41104 3.66182Z" fill="url(#paint0_linear_401_1825)"/>
</g>
<defs>
<linearGradient id="paint0_linear_401_1825" x1="8.04077" y1="-1.24205" x2="9.19534" y2="9.91857" gradientUnits="userSpaceOnUse">
<stop stop-color="#464394" stop-opacity="0.95"/>
<stop offset="0.46" stop-color="#BB3030" stop-opacity="0.95"/>
<stop offset="1" stop-color="#FFCF41"/>
</linearGradient>
</defs>
</svg>
