<svg preserveAspectRatio="none" width="100%" height="100%" overflow="visible" style="display: block;" viewBox="0 0 73 22" fill="none" xmlns="http://www.w3.org/2000/svg">
<g id="Group">
<path id="Vector" fill-rule="evenodd" clip-rule="evenodd" d="M6.83204 5.61099V4.19677L7.00918 3.3426L7.48894 2.64629L8.20133 2.17702L9.07488 2.00392H10.7146L11.5881 2.17702L12.3005 2.64629L12.7803 3.3426L12.9574 4.19677V9.95554L13.3092 9.65647C14.6086 8.55201 15.4172 7.37881 15.5367 6.04362L15.7511 5.27036L16.2165 4.64157L16.8768 4.21076C16.8768 4.21076 17.6713 4.03171 17.6732 4.03089C18.0791 4.01339 18.888 3.97941 19.2955 3.96212L20.1138 4.07677L20.8135 4.45693L21.3322 5.05321C21.3322 5.05321 21.6046 5.80611 21.607 5.81022C21.6622 6.14983 21.739 6.48059 21.8409 6.80085C22.1811 7.86991 22.8122 8.81609 23.7946 9.61778L24.1989 9.94752V9.54059L24.3674 8.71257L24.1989 7.88433V6.28137L24.3696 5.44221L24.8558 4.73069L25.5835 4.25542L26.4417 4.08851H34.0935L34.9518 4.25542L35.5559 4.64999L35.9031 4.05002L36.5428 3.35599L36.6113 3.29444C37.6226 2.38675 39.5804 1.519 41.9268 1.519C44.2731 1.519 46.2309 2.38675 47.2422 3.29444L47.3107 3.35599L47.9505 4.05002L48.5231 5.0392L48.8002 5.92365L48.8488 6.39168L49.7008 6.22599H51.3405L52.1987 6.39292L52.9264 6.86817L53.4126 7.57971L53.5268 8.14058L53.6408 7.57971L54.1271 6.86817L54.8546 6.39292L55.713 6.22599H57.3526L58.211 6.39292L58.4785 6.56767V2.86076L58.6555 2.00679L59.1351 1.31028L59.8471 0.841207L60.7214 0.667905H62.361L63.234 0.841207L63.9473 1.31028L64.4264 2.00679L64.6034 2.86076V11.8899H70.6627L71.5211 12.0568L72.249 12.5322L72.7348 13.2436L72.9064 14.0827V15.6859L72.7348 16.525L72.249 17.2364L71.5211 17.7118L70.6627 17.8788H64.3772L63.5188 17.7118L63.3711 17.6153L63.234 17.7057L62.361 17.8788H60.7214L59.8471 17.7057L59.1351 17.2364L59.0366 17.0931L58.9381 17.2364L58.211 17.7118L57.3526 17.8788H49.7008L48.8425 17.7118L48.4944 17.4844C47.5882 19.6915 45.1757 21.57 41.9268 21.57C38.6629 21.57 36.2431 19.6742 35.3467 17.4539L34.9518 17.7118L34.0935 17.8788H32.4538L31.5956 17.7118L30.8679 17.2364L30.3817 16.525L30.2677 15.964L30.1535 16.525L29.6674 17.2364L28.9397 17.7118L28.0814 17.8788H26.4417L25.5835 17.7118L25.1504 17.429L24.7304 17.7057L23.8569 17.8788H14.0188L13.1452 17.7057L12.8552 17.5146L12.7803 17.8759L12.3005 18.5724L11.5881 19.0414L10.7146 19.2145H9.07488L8.20133 19.0414L7.48894 18.5724L7.00918 17.8759L6.83204 17.0219V11.5999H6.12538V15.018L5.94838 15.872L5.46848 16.5685L4.75623 17.0376L3.88254 17.2109H2.24284L1.36929 17.0376L0.657029 16.5685L0.177133 15.872L0 15.018V2.19286L0.177133 1.33868L0.657029 0.642378L1.36929 0.173102L2.24284 0H3.88254L4.75623 0.173102L5.46848 0.642378L5.94838 1.33868L6.12538 2.19286V5.61099H6.83204ZM1.96962 15.018C1.96962 15.1654 2.09192 15.2851 2.24284 15.2851H3.88254C4.03346 15.2851 4.1559 15.1654 4.1559 15.018V9.67418H7.16196C7.23435 9.67418 7.30396 9.64598 7.35519 9.59597C7.40643 9.54575 7.43517 9.47781 7.43517 9.40701V7.80385C7.43517 7.73304 7.40643 7.66492 7.35519 7.61491C7.30396 7.56489 7.23435 7.53668 7.16196 7.53668H4.1559V2.19286C4.1559 2.04528 4.03346 1.92571 3.88254 1.92571H2.24284C2.09192 1.92571 1.96962 2.04528 1.96962 2.19286V15.018ZM26.1685 15.6859C26.1685 15.7567 26.1972 15.8246 26.2485 15.8748C26.2997 15.9249 26.3692 15.9531 26.4417 15.9531H28.0814C28.1538 15.9531 28.2234 15.9249 28.2747 15.8748C28.3259 15.8246 28.3546 15.7567 28.3546 15.6859V11.4109H32.1806V15.6859C32.1806 15.7567 32.2094 15.8246 32.2606 15.8748C32.3118 15.9249 32.3814 15.9531 32.4538 15.9531H34.0935C34.1661 15.9531 34.2355 15.9249 34.2868 15.8748C34.338 15.8246 34.3668 15.7567 34.3668 15.6859V9.54059C34.3668 9.46979 34.338 9.40167 34.2868 9.35165C34.2355 9.30143 34.1661 9.27344 34.0935 9.27344H26.4417C26.3692 9.27344 26.2997 9.30143 26.2485 9.35165C26.1972 9.40167 26.1685 9.46979 26.1685 9.54059V15.6859ZM49.4275 15.6859C49.4275 15.7567 49.4563 15.8246 49.5075 15.8748C49.5588 15.9249 49.6284 15.9531 49.7008 15.9531H57.3526C57.4251 15.9531 57.4946 15.9249 57.5458 15.8748C57.5971 15.8246 57.6259 15.7567 57.6259 15.6859V8.41885C57.6259 8.34784 57.5971 8.27992 57.5458 8.22991C57.4946 8.17969 57.4251 8.15148 57.3526 8.15148H55.713C55.6405 8.15148 55.571 8.17969 55.5197 8.22991C55.4684 8.27992 55.4397 8.34784 55.4397 8.41885V13.8156H51.6138V8.41885C51.6138 8.34784 51.5849 8.27992 51.5337 8.22991C51.4825 8.17969 51.413 8.15148 51.3405 8.15148H49.7008C49.6284 8.15148 49.5588 8.17969 49.5075 8.22991C49.4563 8.27992 49.4275 8.34784 49.4275 8.41885V15.6859ZM18.8365 10.007C19.4156 10.984 20.1854 11.8818 21.1738 12.6883L21.7782 13.1814C21.8339 13.2269 21.9056 13.2487 21.9779 13.2423C22.05 13.236 22.1167 13.2018 22.1631 13.1475L23.1719 11.9656C23.2183 11.9113 23.2407 11.8409 23.2342 11.7705C23.2276 11.6999 23.1928 11.6347 23.1371 11.5894L22.5327 11.0962C21.2355 10.0379 20.4092 8.78418 19.9602 7.37284C19.8306 6.9649 19.732 6.54441 19.6618 6.11176C19.6404 5.97736 19.519 5.88022 19.3801 5.88598C18.9731 5.90306 18.1653 5.93723 17.76 5.95452C17.6224 5.96049 17.5108 6.06545 17.4997 6.19944C17.3382 8.00514 16.3433 9.62931 14.6014 11.1098L14.0073 11.6147C13.9526 11.6612 13.9191 11.7271 13.914 11.7977C13.909 11.8685 13.9329 11.9382 13.9804 11.9918L15.0134 13.1532C15.0609 13.2068 15.1283 13.2397 15.2005 13.2446C15.2729 13.2496 15.3443 13.2261 15.3989 13.1798L15.993 12.6747C16.989 11.8281 17.7791 10.9369 18.3656 10.0033C18.4154 9.92199 18.5054 9.87279 18.6021 9.87341C18.699 9.87423 18.788 9.92508 18.8365 10.007ZM13.7455 14.0827V15.6859C13.7455 15.8335 13.8678 15.9531 14.0188 15.9531H23.8569C24.0078 15.9531 24.1301 15.8335 24.1301 15.6859V14.0827C24.1301 13.9351 24.0078 13.8156 23.8569 13.8156H14.0188C13.8678 13.8156 13.7455 13.9351 13.7455 14.0827ZM26.1685 6.28137V7.88433C26.1685 7.95534 26.1972 8.02325 26.2485 8.07327C26.2997 8.12349 26.3692 8.15148 26.4417 8.15148H34.0935C34.1661 8.15148 34.2355 8.12349 34.2868 8.07327C34.338 8.02325 34.3668 7.95534 34.3668 7.88433V6.28137C34.3668 6.21036 34.338 6.14242 34.2868 6.09241C34.2355 6.04219 34.1661 6.0142 34.0935 6.0142H26.4417C26.3692 6.0142 26.2997 6.04219 26.2485 6.09241C26.1972 6.14242 26.1685 6.21036 26.1685 6.28137ZM40.8664 10.1906V11.582C38.5175 12.0025 36.9363 13.7839 36.9363 15.5667C36.9363 17.6067 39.0059 19.6443 41.9268 19.6443C44.8477 19.6443 46.9172 17.6067 46.9172 15.5667C46.9172 13.7839 45.3361 12.0025 42.9873 11.582V10.1906C44.265 10.0121 45.314 9.5305 45.9102 8.99536L46.3428 8.52608L46.703 7.90388L46.8603 7.40166L46.9172 6.85418L46.8603 6.30667L46.703 5.80447L46.3428 5.18226L45.9102 4.71298C45.156 4.03582 43.6768 3.44449 41.9268 3.44449C40.1767 3.44449 38.6976 4.03582 37.9433 4.71298L37.5107 5.18226L37.1506 5.80447L36.9933 6.30667L36.9363 6.85418L36.9933 7.40166L37.1506 7.90388L37.5107 8.52608L37.9433 8.99536C38.5395 9.5305 39.5886 10.0121 40.8664 10.1906ZM41.9268 5.51817C43.5104 5.51817 44.7962 6.11692 44.7962 6.85418C44.7962 7.59144 43.5104 8.19017 41.9268 8.19017C40.3431 8.19017 39.0574 7.59144 39.0574 6.85418C39.0574 6.11692 40.3431 5.51817 41.9268 5.51817ZM41.9268 13.5628C43.5104 13.5628 44.7962 14.4608 44.7962 15.5667C44.7962 16.6728 43.5104 17.5706 41.9268 17.5706C40.3431 17.5706 39.0574 16.6728 39.0574 15.5667C39.0574 14.4608 40.3431 13.5628 41.9268 13.5628ZM62.361 2.59361H60.7214C60.5697 2.59361 60.4486 2.71318 60.4486 2.86076V15.6859C60.4486 15.8335 60.5697 15.9531 60.7214 15.9531H62.361C62.5114 15.9531 62.6338 15.8335 62.6338 15.6859V2.86076C62.6338 2.71318 62.5114 2.59361 62.361 2.59361ZM64.1044 14.0827V15.6859C64.1044 15.7567 64.1337 15.8246 64.1842 15.8748C64.2361 15.9249 64.3053 15.9531 64.3772 15.9531H70.6627C70.7359 15.9531 70.8051 15.9249 70.8556 15.8748C70.9075 15.8246 70.9368 15.7567 70.9368 15.6859V14.0827C70.9368 14.0119 70.9075 13.944 70.8556 13.8938C70.8051 13.8438 70.7359 13.8156 70.6627 13.8156H64.3772C64.3053 13.8156 64.2361 13.8438 64.1842 13.8938C64.1337 13.944 64.1044 14.0119 64.1044 14.0827ZM10.7146 3.9296H9.07488C8.92396 3.9296 8.80166 4.0492 8.80166 4.19677V17.0219C8.80166 17.1695 8.92396 17.2891 9.07488 17.2891H10.7146C10.8655 17.2891 10.9878 17.1695 10.9878 17.0219V4.19677C10.9878 4.0492 10.8655 3.9296 10.7146 3.9296Z" fill="var(--fill-0, white)"/>
</g>
</svg>
