<svg preserveAspectRatio="none" width="100%" height="100%" overflow="visible" style="display: block;" viewBox="0 0 148 63" fill="none" xmlns="http://www.w3.org/2000/svg">
<g id="Union">
<path d="M134 2C140.627 2 146 7.37258 146 14V40C146 46.6273 140.627 52 134 52H83.9912C83.8812 52.3088 83.6897 52.6015 83.4023 52.8477L75.3008 59.7881C74.5519 60.4295 73.4471 60.4296 72.6982 59.7881L64.5977 52.8477C64.3103 52.6014 64.1178 52.3089 64.0078 52H14C7.37266 52 2.00013 46.6273 2 40V14C2 7.37258 7.37258 2 14 2H134Z" fill="var(--fill-0, white)"/>
<path d="M146 40L148 40V40H146ZM134 52L134 54H134L134 52ZM83.9912 52V50C83.1453 50 82.3909 50.5321 82.1071 51.329L83.9912 52ZM83.4023 52.8477L84.7035 54.3665L84.7036 54.3665L83.4023 52.8477ZM75.3008 59.7881L76.6019 61.307L76.602 61.3069L75.3008 59.7881ZM72.6982 59.7881L71.397 61.3069L71.397 61.3069L72.6982 59.7881ZM64.5977 52.8477L65.8989 51.3289L65.8989 51.3288L64.5977 52.8477ZM64.0078 52L65.892 51.3292C65.6082 50.5323 64.8538 50 64.0078 50V52ZM2 40L-3.9551e-10 40L3.9551e-10 40L2 40ZM14 2L14 0L14 0L14 2ZM134 2V4C139.523 4 144 8.47715 144 14H146H148C148 6.26801 141.732 0 134 0V2ZM146 14H144V40H146H148V14H146ZM146 40L144 40C144 45.5228 139.523 50 134 50L134 52L134 54C141.732 54 148 47.7318 148 40L146 40ZM134 52V50H83.9912V52V54H134V52ZM83.9912 52L82.1071 51.329C82.1077 51.3273 82.1086 51.3253 82.1097 51.323C82.1109 51.3208 82.112 51.319 82.1128 51.3178C82.1136 51.3165 82.1137 51.3167 82.1123 51.3182C82.111 51.3197 82.1075 51.3234 82.1011 51.3288L83.4023 52.8477L84.7036 54.3665C85.2602 53.8896 85.6502 53.3029 85.8753 52.671L83.9912 52ZM83.4023 52.8477L82.1012 51.3288L73.9996 58.2692L75.3008 59.7881L76.602 61.3069L84.7035 54.3665L83.4023 52.8477ZM75.3008 59.7881L73.9997 58.2692L73.9994 58.2693L72.6982 59.7881L71.397 61.3069C72.8948 62.5901 75.1043 62.5898 76.6019 61.307L75.3008 59.7881ZM72.6982 59.7881L73.9995 58.2693L65.8989 51.3289L64.5977 52.8477L63.2964 54.3664L71.397 61.3069L72.6982 59.7881ZM64.5977 52.8477L65.8989 51.3288C65.892 51.3229 65.8881 51.3188 65.8864 51.317C65.8847 51.3151 65.8846 51.3147 65.8853 51.3158C65.8861 51.3169 65.8873 51.3188 65.8886 51.3214C65.8899 51.324 65.8911 51.3267 65.892 51.3292L64.0078 52L62.1237 52.6708C62.3498 53.3061 62.7423 53.8917 63.2964 54.3665L64.5977 52.8477ZM64.0078 52V50H14V52V54H64.0078V52ZM14 52V50C8.47727 50 4.00011 45.5228 4 40L2 40L3.9551e-10 40C0.000153766 47.7318 6.26806 54 14 54V52ZM2 40H4V14H2H0V40H2ZM2 14H4C4 8.47715 8.47715 4 14 4L14 2L14 0C6.26801 2.25495e-07 0 6.26801 0 14H2ZM14 2V4H134V2V0H14V2Z" fill="var(--stroke-0, #D9D9D9)"/>
</g>
</svg>
