<svg preserveAspectRatio="none" width="100%" height="100%" overflow="visible" style="display: block;" viewBox="0 0 167 35" fill="none" xmlns="http://www.w3.org/2000/svg">
<path id="Vector" fill-rule="evenodd" clip-rule="evenodd" d="M58.583 9.97179C58.3983 8.72979 57.3386 7.80946 56.0906 7.80946C48.9313 7.79159 3.86992 7.79159 3.86992 7.79159C1.73437 7.79159 0 6.04563 0 3.89579C0 1.74596 1.73437 0 3.86992 0H91.5642C93.6997 0 95.4341 1.74596 95.4341 3.89579C95.4341 6.04563 93.6997 7.79159 91.5642 7.79159H74.3981C73.1413 7.79159 72.0726 8.71727 71.888 9.96821C71.8827 10.1183 71.872 10.2702 71.872 10.4239C71.872 11.3764 72.3176 12.2253 73.0099 12.7703C73.4573 13.126 74.0093 13.3172 74.5792 13.3172C79.1662 13.3189 117.611 13.3189 117.611 13.3189C119.749 13.3189 121.481 15.0649 121.481 17.2147C121.481 19.3646 119.749 21.1105 117.611 21.1105H110.246C109.485 21.1105 108.766 21.4536 108.283 22.0452C107.892 22.5295 107.66 23.137 107.66 23.7983C107.66 24.665 108.063 25.4424 108.698 25.966C109.151 26.3395 109.719 26.5432 110.303 26.5432C115.597 26.5432 162.169 26.5432 162.169 26.5432C164.304 26.5432 166.039 28.2891 166.039 30.439C166.039 32.5888 164.304 34.3347 162.169 34.3347H87.9659C85.8303 34.3347 84.096 32.5888 84.096 30.439C84.096 28.2891 85.8303 26.5432 87.9659 26.5432H96.0199C96.6057 26.5432 97.1738 26.3395 97.6264 25.966C98.262 25.4424 98.6649 24.665 98.6649 23.7983C98.6649 23.137 98.4306 22.5295 98.04 22.0452C97.559 21.4536 96.8383 21.1105 96.0785 21.1105C90.6074 21.1105 50.6869 21.1105 50.6869 21.1105C48.5514 21.1105 46.817 19.3646 46.817 17.2147C46.817 15.0649 48.5514 13.3189 50.6869 13.3189H55.9095C56.4794 13.3189 57.0314 13.126 57.4788 12.7721C58.1711 12.2253 58.6167 11.3764 58.6167 10.4239C58.6167 10.2702 58.606 10.1183 58.583 9.97179ZM62.7582 34.6922C60.6226 34.6922 58.8883 32.9462 58.8883 30.7964C58.8883 28.6466 60.6226 26.9006 62.7582 26.9006H67.5512C69.6885 26.9006 71.4211 28.6466 71.4211 30.7964C71.4211 32.9462 69.6885 34.6922 67.5512 34.6922H62.7582Z" fill="url(#paint0_linear_401_1769)"/>
<defs>
<linearGradient id="paint0_linear_401_1769" x1="166.039" y1="17.3461" x2="0" y2="17.3461" gradientUnits="userSpaceOnUse">
<stop stop-color="white"/>
<stop offset="1" stop-color="white" stop-opacity="0.75"/>
</linearGradient>
</defs>
</svg>
