<svg preserveAspectRatio="none" width="100%" height="100%" overflow="visible" style="display: block;" viewBox="0 0 13 5" fill="none" xmlns="http://www.w3.org/2000/svg">
<g id="Group">
<path id="Vector" fill-rule="evenodd" clip-rule="evenodd" d="M0.403314 4.58446C0.17998 4.58374 -0.000733594 4.40418 2.23919e-06 4.18373C0.000738073 3.96329 0.182659 3.78493 0.405994 3.78565C3.11546 3.79448 8.53442 3.81215 10.0508 3.81215C10.8909 3.81215 11.6735 3.23852 11.6735 2.31999C11.6735 1.11865 10.5684 0.798903 10.0508 0.798903C9.54042 0.798903 8.63421 1.28942 8.63421 2.31999C8.63421 2.54029 8.4529 2.71925 8.22956 2.71925C8.00621 2.71925 7.82489 2.54029 7.82489 2.31999C7.82489 0.726276 9.2615 0 10.0508 0C10.833 0 12.4829 0.504482 12.4829 2.31999C12.4829 3.71237 11.3242 4.61096 10.0508 4.61096C8.53399 4.61096 3.11354 4.59329 0.403314 4.58446Z" fill="url(#paint0_linear_401_1774)"/>
</g>
<defs>
<linearGradient id="paint0_linear_401_1774" x1="0.404654" y1="2.29354" x2="12.1145" y2="2.29354" gradientUnits="userSpaceOnUse">
<stop stop-color="#464394"/>
<stop offset="0.46" stop-color="#BB3030"/>
<stop offset="1" stop-color="#FFCF41"/>
</linearGradient>
</defs>
</svg>
