<svg preserveAspectRatio="none" width="100%" height="100%" overflow="visible" style="display: block;" viewBox="0 0 69 18" fill="none" xmlns="http://www.w3.org/2000/svg">
<g id="Group">
<path id="Vector" fill-rule="evenodd" clip-rule="evenodd" d="M0 13.0923V0.26715C0 0.119574 0.122306 0 0.273221 0H1.91293C2.06384 0 2.18628 0.119574 2.18628 0.26715V5.61097H5.19234C5.26474 5.61097 5.33434 5.63919 5.38557 5.6892C5.43681 5.73922 5.46555 5.80734 5.46555 5.87814V7.4813C5.46555 7.55211 5.43681 7.62004 5.38557 7.67026C5.33434 7.72028 5.26474 7.74847 5.19234 7.74847H2.18628V13.0923C2.18628 13.2397 2.06384 13.3594 1.91293 13.3594H0.273221C0.122306 13.3594 0 13.2397 0 13.0923ZM24.1989 13.7602V7.61489C24.1989 7.54408 24.2276 7.47596 24.2789 7.42595C24.3301 7.37572 24.3996 7.34774 24.4721 7.34774H32.1239C32.1965 7.34774 32.2659 7.37572 32.3172 7.42595C32.3684 7.47596 32.3971 7.54408 32.3971 7.61489V13.7602C32.3971 13.831 32.3684 13.8989 32.3172 13.9491C32.2659 13.9992 32.1965 14.0273 32.1239 14.0273H30.4842C30.4118 14.0273 30.3422 13.9992 30.291 13.9491C30.2397 13.8989 30.211 13.831 30.211 13.7602V9.48522H26.385V13.7602C26.385 13.831 26.3563 13.8989 26.305 13.9491C26.2538 13.9992 26.1842 14.0273 26.1118 14.0273H24.4721C24.3996 14.0273 24.3301 13.9992 24.2789 13.9491C24.2276 13.8989 24.1989 13.831 24.1989 13.7602ZM47.4579 13.7602V6.49314C47.4579 6.42213 47.4867 6.35422 47.5379 6.3042C47.5891 6.25398 47.6588 6.22577 47.7311 6.22577H49.3709C49.4434 6.22577 49.5128 6.25398 49.5641 6.3042C49.6153 6.35422 49.6442 6.42213 49.6442 6.49314V11.8899H53.47V6.49314C53.47 6.42213 53.4988 6.35422 53.55 6.3042C53.6014 6.25398 53.6709 6.22577 53.7434 6.22577H55.383C55.4555 6.22577 55.525 6.25398 55.5762 6.3042C55.6275 6.35422 55.6563 6.42213 55.6563 6.49314V13.7602C55.6563 13.831 55.6275 13.8989 55.5762 13.9491C55.525 13.9992 55.4555 14.0273 55.383 14.0273H47.7311C47.6588 14.0273 47.5891 13.9992 47.5379 13.9491C47.4867 13.8989 47.4579 13.831 47.4579 13.7602ZM38.8967 8.26488C37.619 8.08643 36.5699 7.6048 35.9737 7.06965L35.5411 6.60038L35.181 5.97818L35.0237 5.47596L34.9667 4.92847L35.0237 4.38097L35.181 3.87877L35.5411 3.25655L35.9737 2.78727C36.728 2.11011 38.2071 1.51878 39.9571 1.51878C41.7072 1.51878 43.1864 2.11011 43.9406 2.78727L44.3732 3.25655L44.7333 3.87877L44.8906 4.38097L44.9476 4.92847L44.8906 5.47596L44.7333 5.97818L44.3732 6.60038L43.9406 7.06965C43.3444 7.6048 42.2954 8.08643 41.0177 8.26488V9.65625C43.3665 10.0767 44.9476 11.8582 44.9476 13.641C44.9476 15.681 42.878 17.7186 39.9571 17.7186C37.0363 17.7186 34.9667 15.681 34.9667 13.641C34.9667 11.8582 36.5478 10.0767 38.8967 9.65625V8.26488ZM39.9571 3.59246C38.3735 3.59246 37.0878 4.19121 37.0878 4.92847C37.0878 5.66574 38.3735 6.26446 39.9571 6.26446C41.5408 6.26446 42.8265 5.66574 42.8265 4.92847C42.8265 4.19121 41.5408 3.59246 39.9571 3.59246ZM39.9571 11.6371C38.3735 11.6371 37.0878 12.5351 37.0878 13.641C37.0878 14.7471 38.3735 15.6449 39.9571 15.6449C41.5408 15.6449 42.8265 14.7471 42.8265 13.641C42.8265 12.5351 41.5408 11.6371 39.9571 11.6371ZM60.3914 0.667905C60.5418 0.667905 60.6642 0.787478 60.6642 0.935055V13.7602C60.6642 13.9078 60.5418 14.0273 60.3914 14.0273H58.7518C58.6001 14.0273 58.479 13.9078 58.479 13.7602V0.935055C58.479 0.787478 58.6001 0.667905 58.7518 0.667905H60.3914ZM8.74497 2.0039C8.89588 2.0039 9.01819 2.12349 9.01819 2.27107V15.0962C9.01819 15.2438 8.89588 15.3634 8.74497 15.3634H7.10526C6.95434 15.3634 6.83204 15.2438 6.83204 15.0962V2.27107C6.83204 2.12349 6.95434 2.0039 7.10526 2.0039H8.74497ZM62.1348 12.157C62.1348 12.0862 62.164 12.0183 62.2146 11.9681C62.2665 11.9181 62.3357 11.8899 62.4076 11.8899H68.6931C68.7663 11.8899 68.8355 11.9181 68.886 11.9681C68.9379 12.0183 68.9672 12.0862 68.9672 12.157V13.7602C68.9672 13.831 68.9379 13.8989 68.886 13.9491C68.8355 13.9992 68.7663 14.0273 68.6931 14.0273H62.4076C62.3357 14.0273 62.2665 13.9992 62.2146 13.9491C62.164 13.8989 62.1348 13.831 62.1348 13.7602V12.157ZM11.7759 12.157C11.7759 12.0094 11.8982 11.8899 12.0491 11.8899H21.8872C22.0382 11.8899 22.1605 12.0094 22.1605 12.157V13.7602C22.1605 13.9078 22.0382 14.0273 21.8872 14.0273H12.0491C11.8982 14.0273 11.7759 13.9078 11.7759 13.7602V12.157ZM24.1989 4.35566C24.1989 4.28465 24.2276 4.21672 24.2789 4.1667C24.3301 4.11648 24.3996 4.08849 24.4721 4.08849H32.1239C32.1965 4.08849 32.2659 4.11648 32.3172 4.1667C32.3684 4.21672 32.3971 4.28465 32.3971 4.35566V5.95862C32.3971 6.02963 32.3684 6.09755 32.3172 6.14756C32.2659 6.19778 32.1965 6.22577 32.1239 6.22577H24.4721C24.3996 6.22577 24.3301 6.19778 24.2789 6.14756C24.2276 6.09755 24.1989 6.02963 24.1989 5.95862V4.35566ZM16.8668 8.08129C16.8184 7.99937 16.7294 7.94853 16.6325 7.9477C16.5357 7.94709 16.4458 7.99629 16.396 8.07759C15.8095 9.01121 15.0194 9.90243 14.0234 10.749L13.4293 11.2541C13.3746 11.3004 13.3033 11.3238 13.2309 11.3189C13.1586 11.314 13.0913 11.281 13.0438 11.2275L12.0108 10.066C11.9633 10.0125 11.9393 9.94277 11.9444 9.87196C11.9495 9.80136 11.983 9.73551 12.0377 9.68899L12.6318 9.1841C14.3737 7.7036 15.3686 6.07943 15.53 4.27373C15.5412 4.13974 15.6527 4.03478 15.7903 4.02882C16.1957 4.01153 17.0035 3.97736 17.4105 3.96027C17.5494 3.95451 17.6708 4.05165 17.6922 4.18606C17.7624 4.6187 17.861 5.03919 17.9906 5.44714C18.4396 6.85847 19.2659 8.11216 20.5631 9.17051L21.1675 9.66367C21.2232 9.70895 21.258 9.77419 21.2645 9.84479C21.2711 9.91518 21.2487 9.98558 21.2023 10.0399L20.1935 11.2218C20.1471 11.2761 20.0804 11.3103 20.0083 11.3166C19.936 11.323 19.8643 11.3012 19.8086 11.2557L19.2042 10.7626C18.2158 9.95613 17.446 9.05834 16.8668 8.08129Z" fill="var(--fill-0, #0D0D0D)"/>
</g>
</svg>
