<svg preserveAspectRatio="none" width="100%" height="100%" overflow="visible" style="display: block;" viewBox="0 0 17 12" fill="none" xmlns="http://www.w3.org/2000/svg">
<g id="Group">
<path id="Vector" fill-rule="evenodd" clip-rule="evenodd" d="M5.35167 3.63111V1.83028C5.35167 1.76791 5.36379 1.70614 5.38804 1.64843C5.38804 1.64843 6.08316 -7.62939e-06 7.78694 -7.62939e-06C9.00999 -7.62939e-06 9.6618 0.369068 10.0174 0.708519C10.4574 1.12872 10.5029 1.55811 10.5029 1.55811C10.5059 1.58085 10.5076 1.60372 10.5076 1.62668V3.48804C12.7298 3.5596 14.1733 3.96642 14.9949 4.52067C15.7091 5.00226 16.0127 5.60298 16.0153 6.23375C16.0183 7.08274 15.4146 8.04753 14.3115 8.87832C12.8182 10.0027 10.4054 10.9224 7.67087 11.0372C5.25638 11.1385 3.31743 10.8609 2.02552 10.344C1.04846 9.95306 0.420044 9.41017 0.155858 8.80817C-0.130849 8.15585 -0.0390324 7.4033 0.573793 6.60958C1.29836 5.67133 2.83107 4.63019 5.35167 3.63111Z" fill="url(#paint0_linear_401_1792)"/>
</g>
<defs>
<linearGradient id="paint0_linear_401_1792" x1="4.52662" y1="7.6517" x2="9.5131" y2="1.05612" gradientUnits="userSpaceOnUse">
<stop stop-color="#464394"/>
<stop offset="0.46" stop-color="#BB3030"/>
<stop offset="1" stop-color="#FFCF41"/>
</linearGradient>
</defs>
</svg>
