<?xml version="1.0" encoding="UTF-8"?>
<svg width="1939px" height="461px" viewBox="0 0 1939 461" version="1.1" xmlns="http://www.w3.org/2000/svg" xmlns:xlink="http://www.w3.org/1999/xlink">
    <!-- Generator: Sketch 53.2 (72643) - https://sketchapp.com -->
    <title>Shapes</title>
    <desc>Created with Sketch.</desc>
    <g id="Game" stroke="none" stroke-width="1" fill="none" fill-rule="evenodd">
        <g id="Game-Light" transform="translate(-230.000000, -186.000000)">
            <g id="Shapes" transform="translate(231.000000, 186.000000)">
                <g id="Group-4">
                    <g id="Group-3" transform="translate(1425.000000, 0.000000)">
                        <circle id="Oval" stroke="#BDC1C6" cx="63.5" cy="120.5" r="63.5"></circle>
                        <rect id="Rectangle" stroke="#BDC1C6" x="64.5" y="184.5" width="143" height="143"></rect>
                        <path d="M490.862159,422.80608 C490.862159,375.861876 452.806363,337.80608 405.862159,337.80608 C358.917956,337.80608 320.862159,375.861876 320.862159,422.80608 C490.862159,422.80608 320.862159,422.80608 490.862159,422.80608 Z" id="Oval" stroke="#BDC1C6" transform="translate(405.862159, 380.306080) rotate(-30.000000) translate(-405.862159, -380.306080) "></path>
                        <rect id="Rectangle" stroke="#BDC1C6" x="314.5" y="0.5" width="101" height="174"></rect>
                        <path d="M222.785714,286 C236.466597,286 241,269.030918 241,255.309634 C241,241.588351 190,252.549196 190,266.270479 C190,279.991763 209.104832,286 222.785714,286 Z" id="Oval" fill="#D93025" style="mix-blend-mode: multiply;"></path>
                        <path d="M105.189629,37.5467681 C118.377295,42.6714444 127,33.333096 127,23.7101422 C127,14.0871883 113.166998,0.503907191 100.624668,8.33611341 C88.0823371,16.1683196 92.0019628,32.4220918 105.189629,37.5467681 Z" id="Oval" fill="#1E8E3E" style="mix-blend-mode: multiply;"></path>
                        <path d="M483.218076,199.07359 C495.770073,203.927241 500.925114,199.07359 508.862752,190.493853 C516.800389,181.914116 512.862881,169.899837 500.925114,177.317828 C488.987347,184.735819 470.66608,194.219938 483.218076,199.07359 Z" id="Oval" fill="#FBBC04" style="mix-blend-mode: multiply;"></path>
                    </g>
                    <g id="Group" transform="translate(0.000000, 0.000000)">
                        <path d="M301.5,22.2465997 L301.5,164.539493 L443.792893,164.539493 L301.5,22.2465997 Z" id="Rectangle" stroke="#BDC1C6" transform="translate(373.000000, 93.039493) rotate(70.000000) translate(-373.000000, -93.039493) "></path>
                        <rect id="Rectangle" stroke="#BDC1C6" x="406.5" y="276.539493" width="82" height="82"></rect>
                        <rect id="Rectangle" stroke="#BDC1C6" x="324.5" y="358.539493" width="82" height="82"></rect>
                        <circle id="Oval" stroke="#BDC1C6" cx="282.5" cy="400.539493" r="41.5"></circle>
                        <path d="M200,291.039493 C200,235.811018 155.228475,191.039493 100,191.039493 C44.771525,191.039493 0,235.811018 0,291.039493 C200,291.039493 0,291.039493 200,291.039493 Z" id="Oval" stroke="#BDC1C6"></path>
                        <path d="M176,357.449949 C176,370.448534 189.593497,370.448534 200.901319,363.020771 C212.20914,355.593008 213.829621,324.227827 200.901319,332.381249 C187.973016,340.534671 176,344.451364 176,357.449949 Z" id="Oval" fill="#1A73E8" style="mix-blend-mode: multiply;"></path>
                        <path d="M324.265879,51.8514984 C337.699729,46.1197859 355.187807,43.6500518 346.443768,27.2300554 C337.699729,10.8100589 310.67298,13.7765214 302.087991,27.2300554 C293.503001,40.6835893 310.83203,57.5832109 324.265879,51.8514984 Z" id="Oval" fill="#D93025" style="mix-blend-mode: multiply;"></path>
                        <path d="M43.1827863,327.529536 C49.8188989,328.429312 58.2771222,328.429312 58.2771222,315.217563 C58.2771222,302.005814 61.2623775,295.276359 43.1827863,306.657224 C25.1031952,318.038088 36.5466738,326.629761 43.1827863,327.529536 Z" id="Oval" fill="#1E8E3E" style="mix-blend-mode: multiply;" transform="translate(45.961102, 314.363430) rotate(110.000000) translate(-45.961102, -314.363430) "></path>
                        <path d="M475.166191,338.317904 C480.043462,347.798181 493.464226,342.257144 496.845887,330.964657 C500.227548,319.67217 500.227548,313.314595 490.135505,319.67217 C480.043462,326.029745 470.28892,328.837628 475.166191,338.317904 Z" id="Oval" fill="#FBBC04" style="mix-blend-mode: multiply;"></path>
                    </g>
                </g>
            </g>
        </g>
    </g>
</svg>