<?xml version="1.0" encoding="UTF-8"?>
<svg width="19px" height="19px" viewBox="0 0 19 19" version="1.1" xmlns="http://www.w3.org/2000/svg" xmlns:xlink="http://www.w3.org/1999/xlink">
    <!-- Generator: Sketch 40.1 (33804) - http://www.bohemiancoding.com/sketch -->
    <title>Search</title>
    <desc>Created with Sketch.</desc>
    <defs></defs>
    <g id="Lab-Catalog" stroke="none" stroke-width="1" fill="none" fill-rule="evenodd">
        <g id="Desktop-HD" transform="translate(-30.000000, -126.000000)" fill="#E4E5E7">
            <g id="Search" transform="translate(30.000000, 124.000000)">
                <path d="M12.8571582,10.1428478 C12.8571582,12.8995475 10.6138519,15.1428537 7.85715222,15.1428537 C5.10045251,15.1428537 2.85714626,12.8995475 2.85714626,10.1428478 C2.85714626,7.38614806 5.10045251,5.14284182 7.85715222,5.14284182 C10.6138519,5.14284182 12.8571582,7.38614806 12.8571582,10.1428478 L12.8571582,10.1428478 Z M18.5714507,19.4285731 C18.5714507,19.0491084 18.4152005,18.6808044 18.1585038,18.4241076 L14.3303742,14.5959781 C15.2343932,13.290173 15.7143044,11.7276711 15.7143044,10.1428478 C15.7143044,5.80132474 12.1986753,2.28569555 7.85715222,2.28569555 C3.51562919,2.28569555 0,5.80132474 0,10.1428478 C0,14.4843708 3.51562919,18 7.85715222,18 C9.44197554,18 11.0044774,17.5200887 12.3102825,16.6160698 L16.1384121,20.4330386 C16.3951088,20.7008961 16.7634128,20.8571463 17.1428776,20.8571463 C17.9241285,20.8571463 18.5714507,20.2098241 18.5714507,19.4285731 L18.5714507,19.4285731 Z"></path>
            </g>
        </g>
    </g>
</svg>