<svg width="82" height="27" viewBox="0 0 82 27" fill="none" xmlns="http://www.w3.org/2000/svg">
<path fill-rule="evenodd" clip-rule="evenodd" d="M11.3711 8.18558V6.77136L11.5482 5.91718L12.028 5.22088L12.7404 4.7516L13.6139 4.5785H15.2536L16.1272 4.7516L16.8396 5.22088L17.3194 5.91718L17.4965 6.77136V12.5301L17.8482 12.2311C19.1476 11.1266 19.9562 9.95339 20.0758 8.61821L20.2901 7.84494L20.7555 7.21615L21.4159 6.78535C21.4159 6.78535 22.2104 6.60629 22.2123 6.60547C22.6182 6.58798 23.427 6.554 23.8345 6.53671L24.6528 6.65136L25.3526 7.03151L25.8712 7.6278C25.8712 7.6278 26.1436 8.38069 26.146 8.38481C26.2013 8.72442 26.2781 9.05518 26.38 9.37544C26.7202 10.4445 27.3512 11.3907 28.3336 12.1924L28.7379 12.5221V12.1152L28.9064 11.2872L28.7379 10.4589V8.85595L28.9087 8.0168L29.3948 7.30527L30.1225 6.83001L30.9808 6.6631H38.6326L39.4909 6.83001L40.0949 7.22457L40.4421 6.62461L41.0819 5.93057L41.1504 5.86902C42.1617 4.96134 44.1195 4.09359 46.4658 4.09359C48.8122 4.09359 50.77 4.96134 51.7813 5.86902L51.8498 5.93057L52.4895 6.62461L53.0622 7.61379L53.3393 8.49823L53.3878 8.96626L54.2398 8.80058H55.8795L56.7378 8.96751L57.4655 9.44275L57.9516 10.1543L58.0658 10.7152L58.1799 10.1543L58.6661 9.44275L59.3937 8.96751L60.2521 8.80058H61.8917L62.75 8.96751L63.0175 9.14226V5.43535L63.1945 4.58137L63.6742 3.88487L64.3862 3.41579L65.2605 3.24249H66.9001L67.7731 3.41579L68.4864 3.88487L68.9655 4.58137L69.1425 5.43535V14.4645H75.2017L76.0601 14.6314L76.7881 15.1068L77.2738 15.8182L77.4455 16.6573V18.2605L77.2738 19.0996L76.7881 19.811L76.0601 20.2864L75.2017 20.4533H68.9163L68.0579 20.2864L67.9102 20.1899L67.7731 20.2802L66.9001 20.4533H65.2605L64.3862 20.2802L63.6742 19.811L63.5757 19.6677L63.4772 19.811L62.75 20.2864L61.8917 20.4533H54.2398L53.3816 20.2864L53.0334 20.059C52.1273 22.266 49.7148 24.1446 46.4658 24.1446C43.202 24.1446 40.7822 22.2487 39.8857 20.0285L39.4909 20.2864L38.6326 20.4533H36.9929L36.1347 20.2864L35.407 19.811L34.9208 19.0996L34.8068 18.5386L34.6926 19.0996L34.2064 19.811L33.4787 20.2864L32.6205 20.4533H30.9808L30.1225 20.2864L29.6895 20.0036L29.2695 20.2802L28.3959 20.4533H18.5578L17.6843 20.2802L17.3943 20.0892L17.3194 20.4504L16.8396 21.147L16.1272 21.616L15.2536 21.7891H13.6139L12.7404 21.616L12.028 21.147L11.5482 20.4504L11.3711 19.5965V14.1744H10.6644V17.5926L10.4874 18.4466L10.0076 19.1431L9.29529 19.6121L8.42161 19.7854H6.7819L5.90835 19.6121L5.19609 19.1431L4.7162 18.4466L4.53907 17.5926V4.76744L4.7162 3.91327L5.19609 3.21696L5.90835 2.74769L6.7819 2.57458H8.42161L9.29529 2.74769L10.0076 3.21696L10.4874 3.91327L10.6644 4.76744V8.18558H11.3711ZM6.50868 17.5926C6.50868 17.74 6.63099 17.8597 6.7819 17.8597H8.42161C8.57253 17.8597 8.69496 17.74 8.69496 17.5926V12.2488H11.701C11.7734 12.2488 11.843 12.2206 11.8943 12.1706C11.9455 12.1203 11.9742 12.0524 11.9742 11.9816V10.3784C11.9742 10.3076 11.9455 10.2395 11.8943 10.1895C11.843 10.1395 11.7734 10.1113 11.701 10.1113H8.69496V4.76744C8.69496 4.61986 8.57253 4.50029 8.42161 4.50029H6.7819C6.63099 4.50029 6.50868 4.61986 6.50868 4.76744V17.5926ZM30.7076 18.2605C30.7076 18.3313 30.7363 18.3992 30.7875 18.4494C30.8388 18.4994 30.9082 18.5276 30.9808 18.5276H32.6205C32.6929 18.5276 32.7625 18.4994 32.8137 18.4494C32.865 18.3992 32.8937 18.3313 32.8937 18.2605V13.9855H36.7197V18.2605C36.7197 18.3313 36.7484 18.3992 36.7997 18.4494C36.8509 18.4994 36.9205 18.5276 36.9929 18.5276H38.6326C38.7051 18.5276 38.7746 18.4994 38.8258 18.4494C38.8771 18.3992 38.9058 18.3313 38.9058 18.2605V12.1152C38.9058 12.0444 38.8771 11.9763 38.8258 11.9262C38.7746 11.876 38.7051 11.848 38.6326 11.848H30.9808C30.9082 11.848 30.8388 11.876 30.7875 11.9262C30.7363 11.9763 30.7076 12.0444 30.7076 12.1152V18.2605ZM53.9666 18.2605C53.9666 18.3313 53.9954 18.3992 54.0466 18.4494C54.0978 18.4994 54.1674 18.5276 54.2398 18.5276H61.8917C61.9642 18.5276 62.0337 18.4994 62.0849 18.4494C62.1361 18.3992 62.165 18.3313 62.165 18.2605V10.9934C62.165 10.9224 62.1361 10.8545 62.0849 10.8045C62.0337 10.7543 61.9642 10.7261 61.8917 10.7261H60.2521C60.1796 10.7261 60.1101 10.7543 60.0587 10.8045C60.0075 10.8545 59.9787 10.9224 59.9787 10.9934V16.3902H56.1529V10.9934C56.1529 10.9224 56.124 10.8545 56.0728 10.8045C56.0215 10.7543 55.9521 10.7261 55.8795 10.7261H54.2398C54.1674 10.7261 54.0978 10.7543 54.0466 10.8045C53.9954 10.8545 53.9666 10.9224 53.9666 10.9934V18.2605ZM23.3755 12.5816C23.9547 13.5586 24.7245 14.4564 25.7129 15.2628L26.3173 15.756C26.3729 15.8015 26.4447 15.8233 26.5169 15.8169C26.5891 15.8105 26.6557 15.7764 26.7022 15.7221L27.7109 14.5402C27.7574 14.4859 27.7798 14.4155 27.7732 14.3451C27.7667 14.2745 27.7318 14.2092 27.6762 14.164L27.0718 13.6708C25.7746 12.6125 24.9483 11.3588 24.4993 9.94743C24.3697 9.53948 24.271 9.11899 24.2009 8.68635C24.1795 8.55195 24.0581 8.4548 23.9192 8.46057C23.5122 8.47765 22.7044 8.51182 22.299 8.52911C22.1614 8.53508 22.0499 8.64003 22.0387 8.77403C21.8773 10.5797 20.8824 12.2039 19.1404 13.6844L18.5464 14.1893C18.4917 14.2358 18.4581 14.3017 18.4531 14.3723C18.448 14.4431 18.472 14.5128 18.5195 14.5663L19.5525 15.7278C19.6 15.7813 19.6673 15.8143 19.7396 15.8192C19.812 15.8241 19.8833 15.8007 19.938 15.7544L20.5321 15.2493C21.5281 14.4027 22.3182 13.5115 22.9047 12.5779C22.9545 12.4966 23.0444 12.4474 23.1412 12.448C23.2381 12.4488 23.3271 12.4997 23.3755 12.5816ZM18.2846 16.6573V18.2605C18.2846 18.4081 18.4069 18.5276 18.5578 18.5276H28.3959C28.5468 18.5276 28.6691 18.4081 28.6691 18.2605V16.6573C28.6691 16.5097 28.5468 16.3902 28.3959 16.3902H18.5578C18.4069 16.3902 18.2846 16.5097 18.2846 16.6573ZM30.7076 8.85595V10.4589C30.7076 10.5299 30.7363 10.5978 30.7875 10.6479C30.8388 10.6981 30.9082 10.7261 30.9808 10.7261H38.6326C38.7051 10.7261 38.7746 10.6981 38.8258 10.6479C38.8771 10.5978 38.9058 10.5299 38.9058 10.4589V8.85595C38.9058 8.78494 38.8771 8.71701 38.8258 8.66699C38.7746 8.61677 38.7051 8.58878 38.6326 8.58878H30.9808C30.9082 8.58878 30.8388 8.61677 30.7875 8.66699C30.7363 8.71701 30.7076 8.78494 30.7076 8.85595ZM45.4054 12.7652V14.1565C43.0565 14.577 41.4754 16.3585 41.4754 18.1413C41.4754 20.1812 43.5449 22.2189 46.4658 22.2189C49.3867 22.2189 51.4563 20.1812 51.4563 18.1413C51.4563 16.3585 49.8751 14.577 47.5264 14.1565V12.7652C48.8041 12.5867 49.853 12.1051 50.4492 11.5699L50.8819 11.1007L51.242 10.4785L51.3993 9.97625L51.4563 9.42876L51.3993 8.88126L51.242 8.37906L50.8819 7.75684L50.4492 7.28757C49.6951 6.6104 48.2159 6.01907 46.4658 6.01907C44.7158 6.01907 43.2367 6.6104 42.4824 7.28757L42.0498 7.75684L41.6896 8.37906L41.5323 8.88126L41.4754 9.42876L41.5323 9.97625L41.6896 10.4785L42.0498 11.1007L42.4824 11.5699C43.0786 12.1051 44.1277 12.5867 45.4054 12.7652ZM46.4658 8.09275C48.0495 8.09275 49.3352 8.6915 49.3352 9.42876C49.3352 10.166 48.0495 10.7648 46.4658 10.7648C44.8821 10.7648 43.5965 10.166 43.5965 9.42876C43.5965 8.6915 44.8821 8.09275 46.4658 8.09275ZM46.4658 16.1374C48.0495 16.1374 49.3352 17.0354 49.3352 18.1413C49.3352 19.2474 48.0495 20.1452 46.4658 20.1452C44.8821 20.1452 43.5965 19.2474 43.5965 18.1413C43.5965 17.0354 44.8821 16.1374 46.4658 16.1374ZM66.9001 5.1682H65.2605C65.1088 5.1682 64.9877 5.28777 64.9877 5.43535V18.2605C64.9877 18.4081 65.1088 18.5276 65.2605 18.5276H66.9001C67.0505 18.5276 67.1729 18.4081 67.1729 18.2605V5.43535C67.1729 5.28777 67.0505 5.1682 66.9001 5.1682ZM68.6435 16.6573V18.2605C68.6435 18.3313 68.6727 18.3992 68.7233 18.4494C68.7752 18.4994 68.8444 18.5276 68.9163 18.5276H75.2017C75.2749 18.5276 75.3441 18.4994 75.3947 18.4494C75.4466 18.3992 75.4759 18.3313 75.4759 18.2605V16.6573C75.4759 16.5865 75.4466 16.5186 75.3947 16.4684C75.3441 16.4184 75.2749 16.3902 75.2017 16.3902H68.9163C68.8444 16.3902 68.7752 16.4184 68.7233 16.4684C68.6727 16.5186 68.6435 16.5865 68.6435 16.6573ZM15.2536 6.50419H13.6139C13.463 6.50419 13.3407 6.62378 13.3407 6.77136V19.5965C13.3407 19.7441 13.463 19.8636 13.6139 19.8636H15.2536C15.4046 19.8636 15.5269 19.7441 15.5269 19.5965V6.77136C15.5269 6.62378 15.4046 6.50419 15.2536 6.50419Z" fill="white"/>
<path fill-rule="evenodd" clip-rule="evenodd" d="M6.50868 17.5925V4.76739C6.50868 4.61982 6.63099 4.50024 6.7819 4.50024H8.42161C8.57252 4.50024 8.69496 4.61982 8.69496 4.76739V10.1112H11.701C11.7734 10.1112 11.843 10.1394 11.8943 10.1894C11.9455 10.2395 11.9742 10.3076 11.9742 10.3784V11.9815C11.9742 12.0523 11.9455 12.1203 11.8943 12.1705C11.843 12.2205 11.7734 12.2487 11.701 12.2487H8.69496V17.5925C8.69496 17.7399 8.57252 17.8597 8.42161 17.8597H6.7819C6.63099 17.8597 6.50868 17.7399 6.50868 17.5925ZM30.7076 18.2604V12.1151C30.7076 12.0443 30.7363 11.9762 30.7875 11.9262C30.8388 11.876 30.9082 11.848 30.9808 11.848H38.6326C38.7051 11.848 38.7746 11.876 38.8258 11.9262C38.8771 11.9762 38.9058 12.0443 38.9058 12.1151V18.2604C38.9058 18.3312 38.8771 18.3992 38.8258 18.4494C38.7746 18.4994 38.7051 18.5276 38.6326 18.5276H36.9929C36.9205 18.5276 36.8509 18.4994 36.7997 18.4494C36.7484 18.3992 36.7197 18.3312 36.7197 18.2604V13.9855H32.8937V18.2604C32.8937 18.3312 32.865 18.3992 32.8137 18.4494C32.7625 18.4994 32.6929 18.5276 32.6205 18.5276H30.9808C30.9082 18.5276 30.8388 18.4994 30.7875 18.4494C30.7363 18.3992 30.7076 18.3312 30.7076 18.2604ZM53.9666 18.2604V10.9934C53.9666 10.9224 53.9954 10.8545 54.0466 10.8044C54.0978 10.7542 54.1674 10.726 54.2398 10.726H55.8795C55.9521 10.726 56.0215 10.7542 56.0728 10.8044C56.124 10.8545 56.1529 10.9224 56.1529 10.9934V16.3901H59.9787V10.9934C59.9787 10.9224 60.0075 10.8545 60.0587 10.8044C60.1101 10.7542 60.1795 10.726 60.2521 10.726H61.8917C61.9642 10.726 62.0337 10.7542 62.0849 10.8044C62.1361 10.8545 62.165 10.9224 62.165 10.9934V18.2604C62.165 18.3312 62.1361 18.3992 62.0849 18.4494C62.0337 18.4994 61.9642 18.5276 61.8917 18.5276H54.2398C54.1674 18.5276 54.0978 18.4994 54.0466 18.4494C53.9954 18.3992 53.9666 18.3312 53.9666 18.2604ZM45.4054 12.7651C44.1277 12.5867 43.0786 12.105 42.4824 11.5699L42.0498 11.1006L41.6896 10.4784L41.5323 9.9762L41.4754 9.42872L41.5323 8.88121L41.6896 8.37901L42.0498 7.75679L42.4824 7.28752C43.2367 6.61036 44.7158 6.01902 46.4658 6.01902C48.2159 6.01902 49.6951 6.61036 50.4492 7.28752L50.8819 7.75679L51.242 8.37901L51.3993 8.88121L51.4563 9.42872L51.3993 9.9762L51.242 10.4784L50.8819 11.1006L50.4492 11.5699C49.853 12.105 48.8041 12.5867 47.5264 12.7651V14.1565C49.8751 14.577 51.4563 16.3584 51.4563 18.1413C51.4563 20.1812 49.3867 22.2188 46.4658 22.2188C43.5449 22.2188 41.4754 20.1812 41.4754 18.1413C41.4754 16.3584 43.0565 14.577 45.4054 14.1565V12.7651ZM46.4658 8.09271C44.8821 8.09271 43.5964 8.69145 43.5964 9.42872C43.5964 10.166 44.8821 10.7647 46.4658 10.7647C48.0495 10.7647 49.3352 10.166 49.3352 9.42872C49.3352 8.69145 48.0495 8.09271 46.4658 8.09271ZM46.4658 16.1374C44.8821 16.1374 43.5964 17.0354 43.5964 18.1413C43.5964 19.2474 44.8821 20.1452 46.4658 20.1452C48.0495 20.1452 49.3352 19.2474 49.3352 18.1413C49.3352 17.0354 48.0495 16.1374 46.4658 16.1374ZM66.9001 5.16815C67.0505 5.16815 67.1729 5.28772 67.1729 5.4353V18.2604C67.1729 18.408 67.0505 18.5276 66.9001 18.5276H65.2605C65.1088 18.5276 64.9877 18.408 64.9877 18.2604V5.4353C64.9877 5.28772 65.1088 5.16815 65.2605 5.16815H66.9001ZM15.2536 6.50414C15.4046 6.50414 15.5269 6.62373 15.5269 6.77131V19.5965C15.5269 19.744 15.4046 19.8636 15.2536 19.8636H13.6139C13.463 19.8636 13.3407 19.744 13.3407 19.5965V6.77131C13.3407 6.62373 13.463 6.50414 13.6139 6.50414H15.2536ZM68.6434 16.6573C68.6434 16.5865 68.6727 16.5185 68.7233 16.4683C68.7752 16.4183 68.8444 16.3901 68.9163 16.3901H75.2017C75.2749 16.3901 75.3441 16.4183 75.3947 16.4683C75.4466 16.5185 75.4759 16.5865 75.4759 16.6573V18.2604C75.4759 18.3312 75.4466 18.3992 75.3947 18.4494C75.3441 18.4994 75.2749 18.5276 75.2017 18.5276H68.9163C68.8444 18.5276 68.7752 18.4994 68.7233 18.4494C68.6727 18.3992 68.6434 18.3312 68.6434 18.2604V16.6573ZM18.2846 16.6573C18.2846 16.5097 18.4069 16.3901 18.5578 16.3901H28.3959C28.5468 16.3901 28.6691 16.5097 28.6691 16.6573V18.2604C28.6691 18.408 28.5468 18.5276 28.3959 18.5276H18.5578C18.4069 18.5276 18.2846 18.408 18.2846 18.2604V16.6573ZM30.7076 8.85591C30.7076 8.7849 30.7363 8.71696 30.7875 8.66695C30.8388 8.61672 30.9082 8.58874 30.9808 8.58874H38.6326C38.7051 8.58874 38.7746 8.61672 38.8258 8.66695C38.8771 8.71696 38.9058 8.7849 38.9058 8.85591V10.4589C38.9058 10.5299 38.8771 10.5978 38.8258 10.6478C38.7746 10.698 38.7051 10.726 38.6326 10.726H30.9808C30.9082 10.726 30.8388 10.698 30.7875 10.6478C30.7363 10.5978 30.7076 10.5299 30.7076 10.4589V8.85591ZM23.3755 12.5815C23.3271 12.4996 23.2381 12.4488 23.1412 12.4479C23.0444 12.4473 22.9545 12.4965 22.9047 12.5778C22.3182 13.5115 21.5281 14.4027 20.5321 15.2492L19.938 15.7543C19.8833 15.8006 19.812 15.8241 19.7396 15.8191C19.6673 15.8142 19.6 15.7813 19.5525 15.7278L18.5195 14.5663C18.472 14.5128 18.448 14.443 18.4531 14.3722C18.4581 14.3016 18.4917 14.2358 18.5464 14.1892L19.1404 13.6843C20.8824 12.2038 21.8773 10.5797 22.0387 8.77398C22.0499 8.63999 22.1614 8.53503 22.299 8.52906C22.7044 8.51177 23.5122 8.4776 23.9192 8.46052C24.0581 8.45476 24.1795 8.5519 24.2009 8.6863C24.271 9.11895 24.3697 9.53944 24.4993 9.94738C24.9483 11.3587 25.7746 12.6124 27.0718 13.6708L27.6762 14.1639C27.7318 14.2092 27.7667 14.2744 27.7732 14.345C27.7797 14.4154 27.7574 14.4858 27.7109 14.5402L26.7022 15.722C26.6557 15.7763 26.5891 15.8105 26.5169 15.8169C26.4447 15.8233 26.3729 15.8014 26.3173 15.756L25.7129 15.2628C24.7244 14.4564 23.9547 13.5586 23.3755 12.5815Z" fill="#4F4F4F"/>
</svg>
