<?xml version="1.0" encoding="UTF-8" standalone="no"?>
<!DOCTYPE svg PUBLIC "-//W3C//DTD SVG 1.1//EN" "http://www.w3.org/Graphics/SVG/1.1/DTD/svg11.dtd">
<svg width="100%" height="100%" viewBox="0 0 3544 1182" version="1.1" xmlns="http://www.w3.org/2000/svg" xmlns:xlink="http://www.w3.org/1999/xlink" xml:space="preserve" xmlns:serif="http://www.serif.com/" style="fill-rule:evenodd;clip-rule:evenodd;stroke-linejoin:round;stroke-miterlimit:2;">
    <g transform="matrix(0.575175,0,0,0.909845,-3012.38,-7983.03)">
        <path d="M6127.79,8954.42L6153.54,8943.46L6260.3,8929.77L6383.51,8929.77L6490.27,8943.46L6577.31,8980.52L6635.95,9035.55L6657.59,9103.04L6657.59,9147.85L6666.85,9126.26L6723.73,9076.58L6804.43,9042.54C6804.43,9042.54 6901.5,9028.38 6901.74,9028.32C6932.26,9027.47 6993.11,9025.81 7023.75,9024.98L7123.77,9034.04L7209.27,9064.08L7272.65,9111.18C7272.65,9111.18 7295.11,9151.34 7303.3,9165.84L7312.05,9138.01L7371.47,9081.8L7460.38,9044.24L7565.27,9031.05L8140.24,9031.05L8213.46,9040.26L8249.22,9015.18L8258.05,9010.05C8347.82,8957.95 8520.55,8906.21 8728.84,8906.21C8937.13,8906.21 9109.86,8957.95 9199.64,9010.05L9208.47,9015.18L9267.63,9056.67L9322.04,9117.46L9330.49,9134.9L9436.2,9134.9L9541.09,9148.09L9600.48,9173.18L9659.87,9148.09L9764.76,9134.9L9867.01,9134.9L9867.01,9038.13L9888.65,8970.64L9947.28,8915.62L10034.3,8878.55L10141.1,8864.87L10264.3,8864.87L10371.1,8878.55L10458.1,8915.62L10516.7,8970.64L10538.4,9038.13L10538.4,9410.09L10888.1,9410.09L10993,9423.27L11081.9,9460.83L11141.3,9517.05L11162.2,9583.35L11162.2,9661.24L11141.3,9727.55L11081.9,9783.76L10993,9821.32L10888.1,9834.5L10415.8,9834.5L10339.3,9824.89L10264.3,9834.5L10141.1,9834.5L10034.3,9820.82L10014.3,9812.27L9992.85,9821.32L9887.96,9834.5L9312.99,9834.5L9274.07,9829.61C9171.05,9933.42 8978.32,10013.8 8728.84,10013.8C8478.96,10013.8 8286.01,9933.16 8183.12,9829.11L8140.24,9834.5L8017.03,9834.5L7912.15,9821.32L7852.76,9796.23L7793.36,9821.32L7688.48,9834.5L7565.27,9834.5L7467.23,9822.18L7371.04,9834.5L6631.79,9834.5L6597.13,9830.06L6577.31,9848.66L6490.27,9885.73L6383.51,9899.41L6260.3,9899.41L6153.54,9885.73L6066.5,9848.66L6007.86,9793.64L6002.66,9777.4L5976.9,9788.37L5870.14,9802.05L5746.93,9802.05L5640.17,9788.37L5553.13,9751.3L5494.5,9696.28L5472.85,9628.79L5472.85,9005.68L5494.5,8938.19L5553.13,8883.16L5640.17,8846.1L5746.93,8832.42L5870.14,8832.42L5976.9,8846.1L6063.95,8883.16L6122.58,8938.19L6127.79,8954.42ZM10264.3,9025.15L10141.1,9025.15C10129.7,9025.15 10120.6,9030.96 10120.6,9038.13L10120.6,9661.24C10120.6,9668.41 10129.7,9674.22 10141.1,9674.22L10264.3,9674.22C10275.6,9674.22 10284.8,9668.41 10284.8,9661.24L10284.8,9038.13C10284.8,9030.96 10275.6,9025.15 10264.3,9025.15ZM6383.51,9090.06L6260.3,9090.06C6248.96,9090.06 6239.77,9095.87 6239.77,9103.04L6239.77,9726.15C6239.77,9733.32 6248.96,9739.13 6260.3,9739.13L6383.51,9739.13C6394.85,9739.13 6404.04,9733.32 6404.04,9726.15L6404.04,9103.04C6404.04,9095.87 6394.85,9090.06 6383.51,9090.06ZM10395.3,9583.35L10395.3,9661.24C10395.3,9664.68 10397.5,9667.98 10401.3,9670.42C10405.2,9672.85 10410.4,9674.22 10415.8,9674.22L10888.1,9674.22C10893.6,9674.22 10898.8,9672.85 10902.6,9670.42C10906.5,9667.98 10908.7,9664.68 10908.7,9661.24L10908.7,9583.35C10908.7,9579.91 10906.5,9576.61 10902.6,9574.17C10898.8,9571.74 10893.6,9570.37 10888.1,9570.37L10415.8,9570.37C10410.4,9570.37 10405.2,9571.74 10401.3,9574.17C10397.5,9576.61 10395.3,9579.91 10395.3,9583.35ZM6611.26,9583.35L6611.26,9661.24C6611.26,9668.41 6620.45,9674.22 6631.79,9674.22L7371.04,9674.22C7382.38,9674.22 7391.57,9668.41 7391.57,9661.24L7391.57,9583.35C7391.57,9576.18 7382.38,9570.37 7371.04,9570.37L6631.79,9570.37C6620.45,9570.37 6611.26,9576.18 6611.26,9583.35ZM6993.8,9385.33C7037.32,9432.8 7095.16,9476.42 7169.43,9515.6L7214.85,9539.56C7219.03,9541.77 7224.42,9542.83 7229.85,9542.52C7235.27,9542.21 7240.28,9540.55 7243.77,9537.91L7319.57,9480.49C7323.06,9477.85 7324.74,9474.43 7324.25,9471.01C7323.76,9467.58 7321.14,9464.41 7316.96,9462.21L7271.54,9438.25C7174.07,9386.83 7111.98,9325.92 7078.24,9257.35C7068.5,9237.53 7061.09,9217.1 7055.82,9196.08C7054.21,9189.55 7045.09,9184.83 7034.65,9185.11C7004.07,9185.94 6943.37,9187.6 6912.91,9188.44C6902.57,9188.73 6894.19,9193.83 6893.35,9200.34C6881.22,9288.07 6806.46,9366.98 6675.57,9438.91L6630.93,9463.44C6626.82,9465.7 6624.3,9468.9 6623.92,9472.33C6623.54,9475.77 6625.34,9479.16 6628.91,9481.76L6706.53,9538.19C6710.1,9540.79 6715.16,9542.39 6720.59,9542.63C6726.03,9542.87 6731.39,9541.73 6735.5,9539.48L6780.14,9514.94C6854.98,9473.81 6914.35,9430.51 6958.42,9385.15C6962.16,9381.2 6968.92,9378.81 6976.19,9378.84C6983.47,9378.88 6990.16,9381.35 6993.8,9385.33ZM7544.74,9204.32L7544.74,9282.2C7544.74,9285.65 7546.9,9288.95 7550.75,9291.38C7554.6,9293.82 7559.82,9295.18 7565.27,9295.18L8140.24,9295.18C8145.69,9295.18 8150.91,9293.82 8154.76,9291.38C8158.61,9288.95 8160.77,9285.65 8160.77,9282.2L8160.77,9204.32C8160.77,9200.87 8158.61,9197.57 8154.76,9195.14C8150.91,9192.7 8145.69,9191.34 8140.24,9191.34L7565.27,9191.34C7559.82,9191.34 7554.6,9192.7 7550.75,9195.14C7546.9,9197.57 7544.74,9200.87 7544.74,9204.32ZM7544.74,9661.24C7544.74,9664.68 7546.9,9667.98 7550.75,9670.42C7554.6,9672.85 7559.82,9674.22 7565.27,9674.22L7688.48,9674.22C7693.92,9674.22 7699.15,9672.85 7703,9670.42C7706.85,9667.98 7709.01,9664.68 7709.01,9661.24L7709.01,9453.54L7996.5,9453.54L7996.5,9661.24C7996.5,9664.68 7998.66,9667.98 8002.51,9670.42C8006.36,9672.85 8011.59,9674.22 8017.03,9674.22L8140.24,9674.22C8145.69,9674.22 8150.91,9672.85 8154.76,9670.42C8158.61,9667.98 8160.77,9664.68 8160.77,9661.24L8160.77,9362.67C8160.77,9359.23 8158.61,9355.92 8154.76,9353.49C8150.91,9351.05 8145.69,9349.69 8140.24,9349.69L7565.27,9349.69C7559.82,9349.69 7554.6,9351.05 7550.75,9353.49C7546.9,9355.92 7544.74,9359.23 7544.74,9362.67L7544.74,9661.24ZM9292.46,9661.24C9292.46,9664.68 9294.62,9667.98 9298.47,9670.42C9302.32,9672.85 9307.55,9674.22 9312.99,9674.22L9887.96,9674.22C9893.41,9674.22 9898.63,9672.85 9902.48,9670.42C9906.33,9667.98 9908.5,9664.68 9908.5,9661.24L9908.5,9308.17C9908.5,9304.72 9906.33,9301.42 9902.48,9298.99C9898.63,9296.55 9893.41,9295.18 9887.96,9295.18L9764.76,9295.18C9759.31,9295.18 9754.09,9296.55 9750.23,9298.99C9746.38,9301.42 9744.22,9304.72 9744.22,9308.17L9744.22,9570.37L9456.74,9570.37L9456.74,9308.17C9456.74,9304.72 9454.57,9301.42 9450.72,9298.99C9446.87,9296.55 9441.65,9295.18 9436.2,9295.18L9312.99,9295.18C9307.55,9295.18 9302.32,9296.55 9298.47,9298.99C9294.62,9301.42 9292.46,9304.72 9292.46,9308.17L9292.46,9661.24ZM8649.16,9394.25L8649.16,9461.85C8472.66,9482.28 8353.85,9568.83 8353.85,9655.45C8353.85,9754.56 8509.36,9853.56 8728.84,9853.56C8948.32,9853.56 9103.83,9754.56 9103.83,9655.45C9103.83,9568.83 8985.02,9482.28 8808.53,9461.85L8808.53,9394.25C8904.54,9385.58 8983.36,9362.18 9028.16,9336.18L9060.67,9313.38L9087.73,9283.15L9099.55,9258.75L9103.83,9232.15L9099.55,9205.55L9087.73,9181.15L9060.67,9150.92L9028.16,9128.12C8971.49,9095.22 8860.34,9066.49 8728.84,9066.49C8597.34,9066.49 8486.2,9095.22 8429.52,9128.12L8397.01,9150.92L8369.95,9181.15L8358.13,9205.55L8353.85,9232.15L8358.13,9258.75L8369.95,9283.15L8397.01,9313.38L8429.52,9336.18C8474.32,9362.18 8553.15,9385.58 8649.16,9394.25ZM8728.84,9167.24C8847.84,9167.24 8944.45,9196.33 8944.45,9232.15C8944.45,9267.97 8847.84,9297.06 8728.84,9297.06C8609.84,9297.06 8513.23,9267.97 8513.23,9232.15C8513.23,9196.33 8609.84,9167.24 8728.84,9167.24ZM8691,9236.11L8728.84,9239.53L8766.68,9236.11C8766.74,9234.79 8766.77,9233.47 8766.77,9232.15C8766.77,9230.69 8766.74,9229.23 8766.66,9227.76C8754.55,9227.1 8741.85,9226.78 8728.84,9226.78C8715.83,9226.78 8703.13,9227.1 8691.02,9227.76C8690.94,9229.23 8690.91,9230.69 8690.91,9232.15C8690.91,9233.47 8690.94,9234.79 8691,9236.11ZM8728.84,9558.09C8847.84,9558.09 8944.45,9601.72 8944.45,9655.45C8944.45,9709.19 8847.84,9752.81 8728.84,9752.81C8609.84,9752.81 8513.23,9709.19 8513.23,9655.45C8513.23,9601.72 8609.84,9558.09 8728.84,9558.09ZM8728.84,9615.58L8703.48,9618.51C8694.84,9630.05 8690.91,9642.6 8690.91,9655.45C8690.91,9668.25 8694.81,9680.75 8703.37,9692.24C8711.59,9692.93 8720.1,9693.28 8728.84,9693.28C8737.58,9693.28 8746.09,9692.93 8754.32,9692.24C8762.87,9680.75 8766.77,9668.25 8766.77,9655.45C8766.77,9642.6 8762.84,9630.05 8754.21,9618.51L8728.84,9615.58ZM7145.69,9216.07C7145.8,9215.32 7145.91,9214.57 7146,9213.82L7145.94,9214.31C7145.86,9214.89 7145.77,9215.48 7145.69,9216.07ZM5726.4,9628.79C5726.4,9635.95 5735.59,9641.77 5746.93,9641.77L5870.14,9641.77C5881.48,9641.77 5890.68,9635.95 5890.68,9628.79L5890.68,9369.16L6116.56,9369.16C6122,9369.16 6127.23,9367.79 6131.08,9365.36C6134.93,9362.92 6137.09,9359.62 6137.09,9356.18L6137.09,9278.29C6137.09,9274.85 6134.93,9271.54 6131.08,9269.11C6127.23,9266.68 6122,9265.31 6116.56,9265.31L5890.68,9265.31L5890.68,9005.68C5890.68,8998.51 5881.48,8992.7 5870.14,8992.7L5746.93,8992.7C5735.59,8992.7 5726.4,8998.51 5726.4,9005.68L5726.4,9628.79Z" style="fill:url(#_Linear1);"/>
    </g>
    <g transform="matrix(0.575175,0,0,0.909845,-3012.38,-7983.03)">
        <path d="M6091.77,9171.75L6091.77,9103.04L6105.08,9061.54L6141.13,9027.71L6194.66,9004.91L6260.3,8996.5L6383.51,8996.5L6449.15,9004.91L6502.68,9027.71L6538.73,9061.54L6552.04,9103.04L6552.04,9382.83L6578.47,9368.3C6676.11,9314.64 6736.87,9257.64 6745.85,9192.77L6761.96,9155.2L6796.93,9124.65L6846.55,9103.72C6846.55,9103.72 6906.25,9095.02 6906.39,9094.98C6936.89,9094.13 6997.67,9092.48 7028.29,9091.64L7089.78,9097.21L7142.36,9115.68L7181.33,9144.65C7181.33,9144.65 7201.8,9181.23 7201.98,9181.43C7206.13,9197.93 7211.9,9214 7219.56,9229.56C7245.12,9281.5 7292.54,9327.47 7366.36,9366.42L7396.74,9382.44L7396.74,9362.67L7409.4,9322.44L7396.74,9282.2L7396.74,9204.32L7409.57,9163.55L7446.1,9128.98L7500.78,9105.89L7565.27,9097.78L8140.24,9097.78L8204.73,9105.89L8250.12,9125.06L8276.21,9095.91L8324.28,9062.19L8329.43,9059.2C8405.42,9015.1 8552.53,8972.94 8728.84,8972.94C8905.15,8972.94 9052.26,9015.1 9128.25,9059.2L9133.4,9062.19L9181.47,9095.91L9224.5,9143.97L9245.32,9186.94L9248.97,9209.68L9312.99,9201.63L9436.2,9201.63L9500.69,9209.74L9555.37,9232.83L9591.9,9267.4L9600.48,9294.65L9609.05,9267.4L9645.59,9232.83L9700.26,9209.74L9764.76,9201.63L9887.96,9201.63L9952.46,9209.74L9972.56,9218.23L9972.56,9038.13L9985.86,8996.64L10021.9,8962.8L10075.4,8940.01L10141.1,8931.59L10264.3,8931.59L10329.9,8940.01L10383.5,8962.8L10419.5,8996.64L10432.8,9038.13L10432.8,9476.81L10888.1,9476.81L10952.6,9484.92L11007.3,9508.02L11043.8,9542.58L11056.7,9583.35L11056.7,9661.24L11043.8,9702.01L11007.3,9736.57L10952.6,9759.67L10888.1,9767.78L10415.8,9767.78L10351.3,9759.67L10340.2,9754.98L10329.9,9759.37L10264.3,9767.78L10141.1,9767.78L10075.4,9759.37L10021.9,9736.57L10014.5,9729.61L10007.1,9736.57L9952.46,9759.67L9887.96,9767.78L9312.99,9767.78L9248.5,9759.67L9222.34,9748.62C9154.25,9855.85 8972.97,9947.12 8728.84,9947.12C8483.59,9947.12 8301.76,9855.01 8234.4,9747.14L8204.73,9759.67L8140.24,9767.78L8017.03,9767.78L7952.54,9759.67L7897.86,9736.57L7861.33,9702.01L7852.76,9674.75L7844.18,9702.01L7807.65,9736.57L7752.97,9759.67L7688.48,9767.78L7565.27,9767.78L7500.78,9759.67L7468.24,9745.93L7436.68,9759.37L7371.04,9767.78L6631.79,9767.78L6566.15,9759.37L6544.36,9750.09L6538.73,9767.64L6502.68,9801.48L6449.15,9824.27L6383.51,9832.68L6260.3,9832.68L6194.66,9824.27L6141.13,9801.48L6105.08,9767.64L6091.77,9726.15L6091.77,9462.72L6038.67,9462.72L6038.67,9628.79L6025.37,9670.28L5989.31,9704.12L5935.79,9726.91L5870.14,9735.33L5746.93,9735.33L5681.29,9726.91L5627.77,9704.12L5591.71,9670.28L5578.4,9628.79L5578.4,9005.68L5591.71,8964.18L5627.77,8930.35L5681.29,8907.55L5746.93,8899.14L5870.14,8899.14L5935.79,8907.55L5989.31,8930.35L6025.37,8964.18L6038.67,9005.68L6038.67,9171.75L6091.77,9171.75ZM5726.4,9628.79C5726.4,9635.95 5735.59,9641.77 5746.93,9641.77L5870.14,9641.77C5881.48,9641.77 5890.68,9635.95 5890.68,9628.79L5890.68,9369.16L6116.56,9369.16C6122,9369.16 6127.23,9367.79 6131.08,9365.36C6134.93,9362.92 6137.09,9359.62 6137.09,9356.18L6137.09,9278.29C6137.09,9274.85 6134.93,9271.54 6131.08,9269.11C6127.23,9266.68 6122,9265.31 6116.56,9265.31L5890.68,9265.31L5890.68,9005.68C5890.68,8998.51 5881.48,8992.7 5870.14,8992.7L5746.93,8992.7C5735.59,8992.7 5726.4,8998.51 5726.4,9005.68L5726.4,9628.79ZM7544.74,9661.24C7544.74,9664.68 7546.9,9667.98 7550.75,9670.42C7554.6,9672.85 7559.82,9674.22 7565.27,9674.22L7688.48,9674.22C7693.92,9674.22 7699.15,9672.85 7703,9670.42C7706.85,9667.98 7709.01,9664.68 7709.01,9661.24L7709.01,9453.54L7996.5,9453.54L7996.5,9661.24C7996.5,9664.68 7998.66,9667.98 8002.51,9670.42C8006.36,9672.85 8011.59,9674.22 8017.03,9674.22L8140.24,9674.22C8145.69,9674.22 8150.91,9672.85 8154.76,9670.42C8158.61,9667.98 8160.77,9664.68 8160.77,9661.24L8160.77,9362.67C8160.77,9359.23 8158.61,9355.92 8154.76,9353.49C8150.91,9351.05 8145.69,9349.69 8140.24,9349.69L7565.27,9349.69C7559.82,9349.69 7554.6,9351.05 7550.75,9353.49C7546.9,9355.92 7544.74,9359.23 7544.74,9362.67L7544.74,9661.24ZM9292.46,9661.24C9292.46,9664.68 9294.62,9667.98 9298.47,9670.42C9302.32,9672.85 9307.55,9674.22 9312.99,9674.22L9887.96,9674.22C9893.41,9674.22 9898.63,9672.85 9902.48,9670.42C9906.33,9667.98 9908.5,9664.68 9908.5,9661.24L9908.5,9308.17C9908.5,9304.72 9906.33,9301.42 9902.48,9298.99C9898.63,9296.55 9893.41,9295.18 9887.96,9295.18L9764.76,9295.18C9759.31,9295.18 9754.09,9296.55 9750.23,9298.99C9746.38,9301.42 9744.22,9304.72 9744.22,9308.17L9744.22,9570.37L9456.74,9570.37L9456.74,9308.17C9456.74,9304.72 9454.57,9301.42 9450.72,9298.99C9446.87,9296.55 9441.65,9295.18 9436.2,9295.18L9312.99,9295.18C9307.55,9295.18 9302.32,9296.55 9298.47,9298.99C9294.62,9301.42 9292.46,9304.72 9292.46,9308.17L9292.46,9661.24ZM6993.8,9385.33C7037.32,9432.8 7095.16,9476.42 7169.43,9515.6L7214.85,9539.56C7219.03,9541.77 7224.42,9542.83 7229.85,9542.52C7235.27,9542.21 7240.28,9540.55 7243.77,9537.91L7319.57,9480.49C7323.06,9477.85 7324.74,9474.43 7324.25,9471.01C7323.76,9467.58 7321.14,9464.41 7316.96,9462.21L7271.54,9438.25C7174.07,9386.83 7111.98,9325.92 7078.24,9257.35C7068.5,9237.53 7061.09,9217.1 7055.82,9196.08C7054.21,9189.55 7045.09,9184.83 7034.65,9185.11C7004.07,9185.94 6943.37,9187.6 6912.91,9188.44C6902.57,9188.73 6894.19,9193.83 6893.35,9200.34C6881.22,9288.07 6806.46,9366.98 6675.57,9438.91L6630.93,9463.44C6626.82,9465.7 6624.3,9468.9 6623.92,9472.33C6623.54,9475.77 6625.34,9479.16 6628.91,9481.76L6706.53,9538.19C6710.1,9540.79 6715.16,9542.39 6720.59,9542.63C6726.03,9542.87 6731.39,9541.73 6735.5,9539.48L6780.14,9514.94C6854.98,9473.81 6914.35,9430.51 6958.42,9385.15C6962.16,9381.2 6968.92,9378.81 6976.19,9378.84C6983.47,9378.88 6990.16,9381.35 6993.8,9385.33ZM6611.26,9583.35L6611.26,9661.24C6611.26,9668.41 6620.45,9674.22 6631.79,9674.22L7371.04,9674.22C7382.38,9674.22 7391.57,9668.41 7391.57,9661.24L7391.57,9583.35C7391.57,9576.18 7382.38,9570.37 7371.04,9570.37L6631.79,9570.37C6620.45,9570.37 6611.26,9576.18 6611.26,9583.35ZM7544.74,9204.32L7544.74,9282.2C7544.74,9285.65 7546.9,9288.95 7550.75,9291.38C7554.6,9293.82 7559.82,9295.18 7565.27,9295.18L8140.24,9295.18C8145.69,9295.18 8150.91,9293.82 8154.76,9291.38C8158.61,9288.95 8160.77,9285.65 8160.77,9282.2L8160.77,9204.32C8160.77,9200.87 8158.61,9197.57 8154.76,9195.14C8150.91,9192.7 8145.69,9191.34 8140.24,9191.34L7565.27,9191.34C7559.82,9191.34 7554.6,9192.7 7550.75,9195.14C7546.9,9197.57 7544.74,9200.87 7544.74,9204.32ZM8649.16,9394.25L8649.16,9461.85C8472.66,9482.28 8353.85,9568.83 8353.85,9655.45C8353.85,9754.56 8509.36,9853.56 8728.84,9853.56C8948.32,9853.56 9103.83,9754.56 9103.83,9655.45C9103.83,9568.83 8985.02,9482.28 8808.53,9461.85L8808.53,9394.25C8904.54,9385.58 8983.36,9362.18 9028.16,9336.18L9060.67,9313.38L9087.73,9283.15L9099.55,9258.75L9103.83,9232.15L9099.55,9205.55L9087.73,9181.15L9060.67,9150.92L9028.16,9128.12C8971.49,9095.22 8860.34,9066.49 8728.84,9066.49C8597.34,9066.49 8486.2,9095.22 8429.52,9128.12L8397.01,9150.92L8369.95,9181.15L8358.13,9205.55L8353.85,9232.15L8358.13,9258.75L8369.95,9283.15L8397.01,9313.38L8429.52,9336.18C8474.32,9362.18 8553.15,9385.58 8649.16,9394.25ZM8728.84,9167.24C8847.84,9167.24 8944.45,9196.33 8944.45,9232.15C8944.45,9267.97 8847.84,9297.06 8728.84,9297.06C8609.84,9297.06 8513.23,9267.97 8513.23,9232.15C8513.23,9196.33 8609.84,9167.24 8728.84,9167.24ZM8728.84,9558.09C8847.84,9558.09 8944.45,9601.72 8944.45,9655.45C8944.45,9709.19 8847.84,9752.81 8728.84,9752.81C8609.84,9752.81 8513.23,9709.19 8513.23,9655.45C8513.23,9601.72 8609.84,9558.09 8728.84,9558.09ZM10264.3,9025.15L10141.1,9025.15C10129.7,9025.15 10120.6,9030.96 10120.6,9038.13L10120.6,9661.24C10120.6,9668.41 10129.7,9674.22 10141.1,9674.22L10264.3,9674.22C10275.6,9674.22 10284.8,9668.41 10284.8,9661.24L10284.8,9038.13C10284.8,9030.96 10275.6,9025.15 10264.3,9025.15ZM10395.3,9583.35L10395.3,9661.24C10395.3,9664.68 10397.5,9667.98 10401.3,9670.42C10405.2,9672.85 10410.4,9674.22 10415.8,9674.22L10888.1,9674.22C10893.6,9674.22 10898.8,9672.85 10902.6,9670.42C10906.5,9667.98 10908.7,9664.68 10908.7,9661.24L10908.7,9583.35C10908.7,9579.91 10906.5,9576.61 10902.6,9574.17C10898.8,9571.74 10893.6,9570.37 10888.1,9570.37L10415.8,9570.37C10410.4,9570.37 10405.2,9571.74 10401.3,9574.17C10397.5,9576.61 10395.3,9579.91 10395.3,9583.35ZM6383.51,9090.06L6260.3,9090.06C6248.96,9090.06 6239.77,9095.87 6239.77,9103.04L6239.77,9726.15C6239.77,9733.32 6248.96,9739.13 6260.3,9739.13L6383.51,9739.13C6394.85,9739.13 6404.04,9733.32 6404.04,9726.15L6404.04,9103.04C6404.04,9095.87 6394.85,9090.06 6383.51,9090.06Z" style="fill:white;"/>
    </g>
    <g transform="matrix(0.575175,0,0,0.909845,-3012.38,-7983.03)">
        <path d="M5726.4,9628.79L5726.4,9005.68C5726.4,8998.51 5735.59,8992.7 5746.93,8992.7L5870.14,8992.7C5881.48,8992.7 5890.68,8998.51 5890.68,9005.68L5890.68,9265.31L6116.56,9265.31C6122,9265.31 6127.23,9266.68 6131.08,9269.11C6134.93,9271.54 6137.09,9274.85 6137.09,9278.29L6137.09,9356.18C6137.09,9359.62 6134.93,9362.92 6131.08,9365.36C6127.23,9367.79 6122,9369.16 6116.56,9369.16L5890.68,9369.16L5890.68,9628.79C5890.68,9635.95 5881.48,9641.77 5870.14,9641.77L5746.93,9641.77C5735.59,9641.77 5726.4,9635.95 5726.4,9628.79ZM7544.74,9661.24L7544.74,9362.67C7544.74,9359.23 7546.9,9355.92 7550.75,9353.49C7554.6,9351.05 7559.82,9349.69 7565.27,9349.69L8140.24,9349.69C8145.69,9349.69 8150.91,9351.05 8154.76,9353.49C8158.61,9355.92 8160.77,9359.23 8160.77,9362.67L8160.77,9661.24C8160.77,9664.68 8158.61,9667.98 8154.76,9670.42C8150.91,9672.85 8145.69,9674.22 8140.24,9674.22L8017.03,9674.22C8011.59,9674.22 8006.36,9672.85 8002.51,9670.42C7998.66,9667.98 7996.5,9664.68 7996.5,9661.24L7996.5,9453.54L7709.01,9453.54L7709.01,9661.24C7709.01,9664.68 7706.85,9667.98 7703,9670.42C7699.15,9672.85 7693.92,9674.22 7688.48,9674.22L7565.27,9674.22C7559.82,9674.22 7554.6,9672.85 7550.75,9670.42C7546.9,9667.98 7544.74,9664.68 7544.74,9661.24ZM9292.46,9661.24L9292.46,9308.17C9292.46,9304.72 9294.62,9301.42 9298.47,9298.99C9302.32,9296.55 9307.55,9295.18 9312.99,9295.18L9436.2,9295.18C9441.65,9295.18 9446.87,9296.55 9450.72,9298.99C9454.57,9301.42 9456.74,9304.72 9456.74,9308.17L9456.74,9570.37L9744.22,9570.37L9744.22,9308.17C9744.22,9304.72 9746.38,9301.42 9750.23,9298.99C9754.09,9296.55 9759.31,9295.18 9764.76,9295.18L9887.96,9295.18C9893.41,9295.18 9898.63,9296.55 9902.48,9298.99C9906.33,9301.42 9908.5,9304.72 9908.5,9308.17L9908.5,9661.24C9908.5,9664.68 9906.33,9667.98 9902.48,9670.42C9898.63,9672.85 9893.41,9674.22 9887.96,9674.22L9312.99,9674.22C9307.55,9674.22 9302.32,9672.85 9298.47,9670.42C9294.62,9667.98 9292.46,9664.68 9292.46,9661.24ZM8649.16,9394.25C8553.15,9385.58 8474.32,9362.18 8429.52,9336.18L8397.01,9313.38L8369.95,9283.15L8358.13,9258.75L8353.85,9232.15L8358.13,9205.55L8369.95,9181.15L8397.01,9150.92L8429.52,9128.12C8486.2,9095.22 8597.34,9066.49 8728.84,9066.49C8860.34,9066.49 8971.49,9095.22 9028.16,9128.12L9060.67,9150.92L9087.73,9181.15L9099.55,9205.55L9103.83,9232.15L9099.55,9258.75L9087.73,9283.15L9060.67,9313.38L9028.16,9336.18C8983.36,9362.18 8904.54,9385.58 8808.53,9394.25L8808.53,9461.85C8985.02,9482.28 9103.83,9568.83 9103.83,9655.45C9103.83,9754.56 8948.32,9853.56 8728.84,9853.56C8509.36,9853.56 8353.85,9754.56 8353.85,9655.45C8353.85,9568.83 8472.66,9482.28 8649.16,9461.85L8649.16,9394.25ZM8728.84,9167.24C8609.84,9167.24 8513.23,9196.33 8513.23,9232.15C8513.23,9267.97 8609.84,9297.06 8728.84,9297.06C8847.84,9297.06 8944.45,9267.97 8944.45,9232.15C8944.45,9196.33 8847.84,9167.24 8728.84,9167.24ZM8728.84,9558.09C8609.84,9558.09 8513.23,9601.72 8513.23,9655.45C8513.23,9709.19 8609.84,9752.81 8728.84,9752.81C8847.84,9752.81 8944.45,9709.19 8944.45,9655.45C8944.45,9601.72 8847.84,9558.09 8728.84,9558.09ZM10264.3,9025.15C10275.6,9025.15 10284.8,9030.96 10284.8,9038.13L10284.8,9661.24C10284.8,9668.41 10275.6,9674.22 10264.3,9674.22L10141.1,9674.22C10129.7,9674.22 10120.6,9668.41 10120.6,9661.24L10120.6,9038.13C10120.6,9030.96 10129.7,9025.15 10141.1,9025.15L10264.3,9025.15ZM6383.51,9090.06C6394.85,9090.06 6404.04,9095.87 6404.04,9103.04L6404.04,9726.15C6404.04,9733.32 6394.85,9739.13 6383.51,9739.13L6260.3,9739.13C6248.96,9739.13 6239.77,9733.32 6239.77,9726.15L6239.77,9103.04C6239.77,9095.87 6248.96,9090.06 6260.3,9090.06L6383.51,9090.06ZM10395.3,9583.35C10395.3,9579.91 10397.5,9576.61 10401.3,9574.17C10405.2,9571.74 10410.4,9570.37 10415.8,9570.37L10888.1,9570.37C10893.6,9570.37 10898.8,9571.74 10902.6,9574.17C10906.5,9576.61 10908.7,9579.91 10908.7,9583.35L10908.7,9661.24C10908.7,9664.68 10906.5,9667.98 10902.6,9670.42C10898.8,9672.85 10893.6,9674.22 10888.1,9674.22L10415.8,9674.22C10410.4,9674.22 10405.2,9672.85 10401.3,9670.42C10397.5,9667.98 10395.3,9664.68 10395.3,9661.24L10395.3,9583.35ZM6611.26,9583.35C6611.26,9576.18 6620.45,9570.37 6631.79,9570.37L7371.04,9570.37C7382.38,9570.37 7391.57,9576.18 7391.57,9583.35L7391.57,9661.24C7391.57,9668.41 7382.38,9674.22 7371.04,9674.22L6631.79,9674.22C6620.45,9674.22 6611.26,9668.41 6611.26,9661.24L6611.26,9583.35ZM7544.74,9204.32C7544.74,9200.87 7546.9,9197.57 7550.75,9195.14C7554.6,9192.7 7559.82,9191.34 7565.27,9191.34L8140.24,9191.34C8145.69,9191.34 8150.91,9192.7 8154.76,9195.14C8158.61,9197.57 8160.77,9200.87 8160.77,9204.32L8160.77,9282.2C8160.77,9285.65 8158.61,9288.95 8154.76,9291.38C8150.91,9293.82 8145.69,9295.18 8140.24,9295.18L7565.27,9295.18C7559.82,9295.18 7554.6,9293.82 7550.75,9291.38C7546.9,9288.95 7544.74,9285.65 7544.74,9282.2L7544.74,9204.32ZM6993.8,9385.33C6990.16,9381.35 6983.47,9378.88 6976.19,9378.84C6968.92,9378.81 6962.16,9381.2 6958.42,9385.15C6914.35,9430.51 6854.98,9473.81 6780.14,9514.94L6735.5,9539.48C6731.39,9541.73 6726.03,9542.87 6720.59,9542.63C6715.16,9542.39 6710.1,9540.79 6706.53,9538.19L6628.91,9481.76C6625.34,9479.16 6623.54,9475.77 6623.92,9472.33C6624.3,9468.9 6626.82,9465.7 6630.93,9463.44L6675.57,9438.91C6806.46,9366.98 6881.22,9288.07 6893.35,9200.34C6894.19,9193.83 6902.57,9188.73 6912.91,9188.44C6943.37,9187.6 7004.07,9185.94 7034.65,9185.11C7045.09,9184.83 7054.21,9189.55 7055.82,9196.08C7061.09,9217.1 7068.5,9237.53 7078.24,9257.35C7111.98,9325.92 7174.07,9386.83 7271.54,9438.25L7316.96,9462.21C7321.14,9464.41 7323.76,9467.58 7324.25,9471.01C7324.74,9474.43 7323.06,9477.85 7319.57,9480.49L7243.77,9537.91C7240.28,9540.55 7235.27,9542.21 7229.85,9542.52C7224.42,9542.83 7219.03,9541.77 7214.85,9539.56L7169.43,9515.6C7095.16,9476.42 7037.32,9432.8 6993.8,9385.33Z"/>
    </g>
    <defs>
        <linearGradient id="_Linear1" x1="0" y1="0" x2="1" y2="0" gradientUnits="userSpaceOnUse" gradientTransform="matrix(5182.26,0,0,860.863,5726.4,9423.13)"><stop offset="0" style="stop-color:rgb(70,67,148);stop-opacity:1"/><stop offset="0.46" style="stop-color:rgb(187,48,48);stop-opacity:1"/><stop offset="1" style="stop-color:rgb(255,207,65);stop-opacity:1"/></linearGradient>
    </defs>
</svg>
