<svg width="82" height="27" viewBox="0 0 82 27" fill="none" xmlns="http://www.w3.org/2000/svg">
<path fill-rule="evenodd" clip-rule="evenodd" d="M11.3711 8.18545V6.77123L11.5482 5.91706L12.028 5.22076L12.7404 4.75148L13.6139 4.57838H15.2536L16.1272 4.75148L16.8396 5.22076L17.3194 5.91706L17.4965 6.77123V12.53L17.8482 12.2309C19.1476 11.1265 19.9562 9.95327 20.0758 8.61809L20.2901 7.84482L20.7555 7.21603L21.4159 6.78522C21.4159 6.78522 22.2104 6.60617 22.2123 6.60535C22.6182 6.58785 23.427 6.55388 23.8345 6.53659L24.6528 6.65124L25.3526 7.03139L25.8712 7.62768C25.8712 7.62768 26.1436 8.38057 26.146 8.38469C26.2013 8.7243 26.278 9.05505 26.38 9.37532C26.7201 10.4444 27.3512 11.3906 28.3336 12.1922L28.7379 12.522V12.1151L28.9064 11.287L28.7379 10.4588V8.85583L28.9087 8.01667L29.3948 7.30515L30.1225 6.82989L30.9808 6.66298H38.6326L39.4909 6.82989L40.0949 7.22445L40.4421 6.62448L41.0819 5.93045L41.1504 5.8689C42.1617 4.96122 44.1194 4.09346 46.4658 4.09346C48.8122 4.09346 50.77 4.96122 51.7813 5.8689L51.8498 5.93045L52.4895 6.62448L53.0622 7.61367L53.3393 8.49811L53.3878 8.96614L54.2398 8.80046H55.8795L56.7378 8.96739L57.4655 9.44263L57.9516 10.1542L58.0658 10.715L58.1799 10.1542L58.6661 9.44263L59.3937 8.96739L60.2521 8.80046H61.8917L62.75 8.96739L63.0175 9.14214V5.43522L63.1945 4.58125L63.6742 3.88475L64.3862 3.41567L65.2605 3.24237H66.9001L67.7731 3.41567L68.4864 3.88475L68.9655 4.58125L69.1425 5.43522V14.4643H75.2017L76.0601 14.6313L76.7881 15.1067L77.2738 15.818L77.4455 16.6572V18.2604L77.2738 19.0995L76.7881 19.8108L76.0601 20.2863L75.2017 20.4532H68.9163L68.0579 20.2863L67.9102 20.1898L67.7731 20.2801L66.9001 20.4532H65.2605L64.3862 20.2801L63.6742 19.8108L63.5757 19.6676L63.4772 19.8108L62.75 20.2863L61.8917 20.4532H54.2398L53.3816 20.2863L53.0334 20.0589C52.1273 22.2659 49.7148 24.1445 46.4658 24.1445C43.202 24.1445 40.7822 22.2486 39.8857 20.0284L39.4909 20.2863L38.6326 20.4532H36.9929L36.1347 20.2863L35.407 19.8108L34.9208 19.0995L34.8068 18.5384L34.6926 19.0995L34.2064 19.8108L33.4787 20.2863L32.6205 20.4532H30.9808L30.1225 20.2863L29.6895 20.0035L29.2695 20.2801L28.3959 20.4532H18.5578L17.6843 20.2801L17.3943 20.0891L17.3194 20.4503L16.8396 21.1469L16.1272 21.6159L15.2536 21.789H13.6139L12.7404 21.6159L12.028 21.1469L11.5482 20.4503L11.3711 19.5964V14.1743H10.6644V17.5925L10.4874 18.4464L10.0075 19.1429L9.29529 19.612L8.42161 19.7853H6.7819L5.90835 19.612L5.19609 19.1429L4.7162 18.4464L4.53906 17.5925V4.76732L4.7162 3.91315L5.19609 3.21684L5.90835 2.74756L6.7819 2.57446H8.42161L9.29529 2.74756L10.0075 3.21684L10.4874 3.91315L10.6644 4.76732V8.18545H11.3711ZM6.50868 17.5925C6.50868 17.7398 6.63099 17.8596 6.7819 17.8596H8.42161C8.57252 17.8596 8.69496 17.7398 8.69496 17.5925V12.2486H11.701C11.7734 12.2486 11.843 12.2204 11.8943 12.1704C11.9455 12.1202 11.9742 12.0523 11.9742 11.9815V10.3783C11.9742 10.3075 11.9455 10.2394 11.8943 10.1894C11.843 10.1394 11.7734 10.1111 11.701 10.1111H8.69496V4.76732C8.69496 4.61974 8.57252 4.50017 8.42161 4.50017H6.7819C6.63099 4.50017 6.50868 4.61974 6.50868 4.76732V17.5925ZM30.7076 18.2604C30.7076 18.3312 30.7363 18.3991 30.7875 18.4493C30.8388 18.4993 30.9082 18.5275 30.9808 18.5275H32.6205C32.6929 18.5275 32.7625 18.4993 32.8137 18.4493C32.865 18.3991 32.8937 18.3312 32.8937 18.2604V13.9854H36.7197V18.2604C36.7197 18.3312 36.7484 18.3991 36.7997 18.4493C36.8509 18.4993 36.9205 18.5275 36.9929 18.5275H38.6326C38.7051 18.5275 38.7746 18.4993 38.8258 18.4493C38.8771 18.3991 38.9058 18.3312 38.9058 18.2604V12.1151C38.9058 12.0443 38.8771 11.9761 38.8258 11.9261C38.7746 11.8759 38.7051 11.8479 38.6326 11.8479H30.9808C30.9082 11.8479 30.8388 11.8759 30.7875 11.9261C30.7363 11.9761 30.7076 12.0443 30.7076 12.1151V18.2604ZM53.9666 18.2604C53.9666 18.3312 53.9953 18.3991 54.0466 18.4493C54.0978 18.4993 54.1674 18.5275 54.2398 18.5275H61.8917C61.9642 18.5275 62.0337 18.4993 62.0849 18.4493C62.1361 18.3991 62.165 18.3312 62.165 18.2604V10.9933C62.165 10.9223 62.1361 10.8544 62.0849 10.8044C62.0337 10.7541 61.9642 10.7259 61.8917 10.7259H60.2521C60.1796 10.7259 60.1101 10.7541 60.0587 10.8044C60.0075 10.8544 59.9787 10.9223 59.9787 10.9933V16.39H56.1529V10.9933C56.1529 10.9223 56.124 10.8544 56.0728 10.8044C56.0215 10.7541 55.9521 10.7259 55.8795 10.7259H54.2398C54.1674 10.7259 54.0978 10.7541 54.0466 10.8044C53.9953 10.8544 53.9666 10.9223 53.9666 10.9933V18.2604ZM23.3755 12.5815C23.9547 13.5585 24.7244 14.4563 25.7129 15.2627L26.3173 15.7559C26.3729 15.8014 26.4447 15.8232 26.5169 15.8168C26.5891 15.8104 26.6557 15.7763 26.7022 15.7219L27.7109 14.5401C27.7574 14.4857 27.7797 14.4153 27.7732 14.345C27.7667 14.2744 27.7318 14.2091 27.6762 14.1638L27.0718 13.6707C25.7746 12.6123 24.9483 11.3586 24.4993 9.9473C24.3697 9.53936 24.271 9.11887 24.2009 8.68623C24.1795 8.55182 24.0581 8.45468 23.9192 8.46044C23.5122 8.47753 22.7044 8.51169 22.299 8.52898C22.1614 8.53495 22.0499 8.63991 22.0387 8.7739C21.8773 10.5796 20.8824 12.2038 19.1404 13.6843L18.5464 14.1892C18.4917 14.2357 18.4581 14.3015 18.4531 14.3721C18.448 14.4429 18.472 14.5127 18.5195 14.5662L19.5525 15.7277C19.6 15.7812 19.6673 15.8141 19.7396 15.8191C19.812 15.824 19.8833 15.8006 19.938 15.7543L20.5321 15.2492C21.5281 14.4026 22.3182 13.5114 22.9047 12.5778C22.9545 12.4965 23.0444 12.4473 23.1412 12.4479C23.2381 12.4487 23.3271 12.4995 23.3755 12.5815ZM18.2846 16.6572V18.2604C18.2846 18.4079 18.4069 18.5275 18.5578 18.5275H28.3959C28.5468 18.5275 28.6691 18.4079 28.6691 18.2604V16.6572C28.6691 16.5096 28.5468 16.39 28.3959 16.39H18.5578C18.4069 16.39 18.2846 16.5096 18.2846 16.6572ZM30.7076 8.85583V10.4588C30.7076 10.5298 30.7363 10.5977 30.7875 10.6477C30.8388 10.698 30.9082 10.7259 30.9808 10.7259H38.6326C38.7051 10.7259 38.7746 10.698 38.8258 10.6477C38.8771 10.5977 38.9058 10.5298 38.9058 10.4588V8.85583C38.9058 8.78482 38.8771 8.71689 38.8258 8.66687C38.7746 8.61665 38.7051 8.58866 38.6326 8.58866H30.9808C30.9082 8.58866 30.8388 8.61665 30.7875 8.66687C30.7363 8.71689 30.7076 8.78482 30.7076 8.85583ZM45.4054 12.7651V14.1564C43.0565 14.5769 41.4754 16.3583 41.4754 18.1412C41.4754 20.1811 43.5449 22.2188 46.4658 22.2188C49.3867 22.2188 51.4563 20.1811 51.4563 18.1412C51.4563 16.3583 49.8751 14.5769 47.5264 14.1564V12.7651C48.8041 12.5866 49.853 12.105 50.4492 11.5698L50.8819 11.1005L51.242 10.4783L51.3993 9.97613L51.4563 9.42864L51.3993 8.88114L51.242 8.37894L50.8819 7.75672L50.4492 7.28744C49.6951 6.61028 48.2159 6.01895 46.4658 6.01895C44.7158 6.01895 43.2367 6.61028 42.4824 7.28744L42.0498 7.75672L41.6896 8.37894L41.5323 8.88114L41.4754 9.42864L41.5323 9.97613L41.6896 10.4783L42.0498 11.1005L42.4824 11.5698C43.0786 12.105 44.1277 12.5866 45.4054 12.7651ZM46.4658 8.09263C48.0495 8.09263 49.3352 8.69138 49.3352 9.42864C49.3352 10.1659 48.0495 10.7646 46.4658 10.7646C44.8821 10.7646 43.5964 10.1659 43.5964 9.42864C43.5964 8.69138 44.8821 8.09263 46.4658 8.09263ZM46.4658 16.1373C48.0495 16.1373 49.3352 17.0353 49.3352 18.1412C49.3352 19.2473 48.0495 20.1451 46.4658 20.1451C44.8821 20.1451 43.5964 19.2473 43.5964 18.1412C43.5964 17.0353 44.8821 16.1373 46.4658 16.1373ZM66.9001 5.16807H65.2605C65.1088 5.16807 64.9877 5.28765 64.9877 5.43522V18.2604C64.9877 18.4079 65.1088 18.5275 65.2605 18.5275H66.9001C67.0505 18.5275 67.1729 18.4079 67.1729 18.2604V5.43522C67.1729 5.28765 67.0505 5.16807 66.9001 5.16807ZM68.6434 16.6572V18.2604C68.6434 18.3312 68.6727 18.3991 68.7233 18.4493C68.7752 18.4993 68.8444 18.5275 68.9163 18.5275H75.2017C75.2749 18.5275 75.3441 18.4993 75.3947 18.4493C75.4466 18.3991 75.4759 18.3312 75.4759 18.2604V16.6572C75.4759 16.5864 75.4466 16.5185 75.3947 16.4682C75.3441 16.4182 75.2749 16.39 75.2017 16.39H68.9163C68.8444 16.39 68.7752 16.4182 68.7233 16.4682C68.6727 16.5185 68.6434 16.5864 68.6434 16.6572ZM15.2536 6.50406H13.6139C13.463 6.50406 13.3407 6.62366 13.3407 6.77123V19.5964C13.3407 19.744 13.463 19.8635 13.6139 19.8635H15.2536C15.4046 19.8635 15.5269 19.744 15.5269 19.5964V6.77123C15.5269 6.62366 15.4046 6.50406 15.2536 6.50406Z" fill="white"/>
<path fill-rule="evenodd" clip-rule="evenodd" d="M6.50867 17.5925V4.76739C6.50867 4.61982 6.63097 4.50024 6.78189 4.50024H8.42159C8.57251 4.50024 8.69495 4.61982 8.69495 4.76739V10.1112H11.701C11.7734 10.1112 11.843 10.1394 11.8942 10.1894C11.9455 10.2395 11.9742 10.3076 11.9742 10.3784V11.9815C11.9742 12.0523 11.9455 12.1203 11.8942 12.1705C11.843 12.2205 11.7734 12.2487 11.701 12.2487H8.69495V17.5925C8.69495 17.7399 8.57251 17.8597 8.42159 17.8597H6.78189C6.63097 17.8597 6.50867 17.7399 6.50867 17.5925ZM30.7075 18.2604V12.1151C30.7075 12.0443 30.7363 11.9762 30.7875 11.9262C30.8388 11.876 30.9082 11.848 30.9808 11.848H38.6326C38.7051 11.848 38.7746 11.876 38.8258 11.9262C38.8771 11.9762 38.9058 12.0443 38.9058 12.1151V18.2604C38.9058 18.3312 38.8771 18.3992 38.8258 18.4494C38.7746 18.4994 38.7051 18.5276 38.6326 18.5276H36.9929C36.9205 18.5276 36.8509 18.4994 36.7996 18.4494C36.7484 18.3992 36.7197 18.3312 36.7197 18.2604V13.9855H32.8937V18.2604C32.8937 18.3312 32.8649 18.3992 32.8137 18.4494C32.7625 18.4994 32.6929 18.5276 32.6205 18.5276H30.9808C30.9082 18.5276 30.8388 18.4994 30.7875 18.4494C30.7363 18.3992 30.7075 18.3312 30.7075 18.2604ZM53.9666 18.2604V10.9934C53.9666 10.9224 53.9953 10.8545 54.0466 10.8044C54.0978 10.7542 54.1674 10.726 54.2398 10.726H55.8795C55.952 10.726 56.0215 10.7542 56.0728 10.8044C56.124 10.8545 56.1529 10.9224 56.1529 10.9934V16.3901H59.9787V10.9934C59.9787 10.9224 60.0075 10.8545 60.0587 10.8044C60.1101 10.7542 60.1795 10.726 60.2521 10.726H61.8916C61.9642 10.726 62.0336 10.7542 62.0849 10.8044C62.1361 10.8545 62.165 10.9224 62.165 10.9934V18.2604C62.165 18.3312 62.1361 18.3992 62.0849 18.4494C62.0336 18.4994 61.9642 18.5276 61.8916 18.5276H54.2398C54.1674 18.5276 54.0978 18.4994 54.0466 18.4494C53.9953 18.3992 53.9666 18.3312 53.9666 18.2604ZM45.4054 12.7651C44.1277 12.5867 43.0786 12.105 42.4824 11.5699L42.0497 11.1006L41.6896 10.4784L41.5323 9.9762L41.4754 9.42872L41.5323 8.88121L41.6896 8.37901L42.0497 7.75679L42.4824 7.28752C43.2367 6.61036 44.7158 6.01902 46.4658 6.01902C48.2158 6.01902 49.6951 6.61036 50.4492 7.28752L50.8819 7.75679L51.242 8.37901L51.3993 8.88121L51.4563 9.42872L51.3993 9.9762L51.242 10.4784L50.8819 11.1006L50.4492 11.5699C49.853 12.105 48.8041 12.5867 47.5263 12.7651V14.1565C49.8751 14.577 51.4563 16.3584 51.4563 18.1413C51.4563 20.1812 49.3867 22.2188 46.4658 22.2188C43.5449 22.2188 41.4754 20.1812 41.4754 18.1413C41.4754 16.3584 43.0565 14.577 45.4054 14.1565V12.7651ZM46.4658 8.09271C44.8821 8.09271 43.5964 8.69145 43.5964 9.42872C43.5964 10.166 44.8821 10.7647 46.4658 10.7647C48.0495 10.7647 49.3352 10.166 49.3352 9.42872C49.3352 8.69145 48.0495 8.09271 46.4658 8.09271ZM46.4658 16.1374C44.8821 16.1374 43.5964 17.0354 43.5964 18.1413C43.5964 19.2474 44.8821 20.1452 46.4658 20.1452C48.0495 20.1452 49.3352 19.2474 49.3352 18.1413C49.3352 17.0354 48.0495 16.1374 46.4658 16.1374ZM66.9001 5.16815C67.0504 5.16815 67.1729 5.28772 67.1729 5.4353V18.2604C67.1729 18.408 67.0504 18.5276 66.9001 18.5276H65.2605C65.1088 18.5276 64.9877 18.408 64.9877 18.2604V5.4353C64.9877 5.28772 65.1088 5.16815 65.2605 5.16815H66.9001ZM15.2536 6.50414C15.4045 6.50414 15.5269 6.62373 15.5269 6.77131V19.5965C15.5269 19.744 15.4045 19.8636 15.2536 19.8636H13.6139C13.463 19.8636 13.3407 19.744 13.3407 19.5965V6.77131C13.3407 6.62373 13.463 6.50414 13.6139 6.50414H15.2536ZM68.6434 16.6573C68.6434 16.5865 68.6727 16.5185 68.7233 16.4683C68.7752 16.4183 68.8444 16.3901 68.9163 16.3901H75.2017C75.2749 16.3901 75.3441 16.4183 75.3947 16.4683C75.4466 16.5185 75.4759 16.5865 75.4759 16.6573V18.2604C75.4759 18.3312 75.4466 18.3992 75.3947 18.4494C75.3441 18.4994 75.2749 18.5276 75.2017 18.5276H68.9163C68.8444 18.5276 68.7752 18.4994 68.7233 18.4494C68.6727 18.3992 68.6434 18.3312 68.6434 18.2604V16.6573ZM18.2846 16.6573C18.2846 16.5097 18.4069 16.3901 18.5578 16.3901H28.3959C28.5468 16.3901 28.6691 16.5097 28.6691 16.6573V18.2604C28.6691 18.408 28.5468 18.5276 28.3959 18.5276H18.5578C18.4069 18.5276 18.2846 18.408 18.2846 18.2604V16.6573ZM30.7075 8.85591C30.7075 8.7849 30.7363 8.71696 30.7875 8.66695C30.8388 8.61672 30.9082 8.58874 30.9808 8.58874H38.6326C38.7051 8.58874 38.7746 8.61672 38.8258 8.66695C38.8771 8.71696 38.9058 8.7849 38.9058 8.85591V10.4589C38.9058 10.5299 38.8771 10.5978 38.8258 10.6478C38.7746 10.698 38.7051 10.726 38.6326 10.726H30.9808C30.9082 10.726 30.8388 10.698 30.7875 10.6478C30.7363 10.5978 30.7075 10.5299 30.7075 10.4589V8.85591ZM23.3755 12.5815C23.3271 12.4996 23.238 12.4488 23.1412 12.4479C23.0444 12.4473 22.9544 12.4965 22.9047 12.5778C22.3182 13.5115 21.5281 14.4027 20.5321 15.2492L19.938 15.7543C19.8833 15.8006 19.812 15.8241 19.7396 15.8191C19.6673 15.8142 19.6 15.7813 19.5525 15.7278L18.5195 14.5663C18.472 14.5128 18.448 14.443 18.4531 14.3722C18.4581 14.3016 18.4917 14.2358 18.5464 14.1892L19.1404 13.6843C20.8823 12.2038 21.8773 10.5797 22.0387 8.77398C22.0499 8.63999 22.1614 8.53503 22.299 8.52906C22.7044 8.51177 23.5122 8.4776 23.9192 8.46052C24.0581 8.45476 24.1795 8.5519 24.2009 8.6863C24.271 9.11895 24.3696 9.53944 24.4993 9.94738C24.9483 11.3587 25.7746 12.6124 27.0717 13.6708L27.6762 14.1639C27.7318 14.2092 27.7667 14.2744 27.7732 14.345C27.7797 14.4154 27.7574 14.4858 27.7109 14.5402L26.7022 15.722C26.6557 15.7763 26.5891 15.8105 26.5169 15.8169C26.4447 15.8233 26.3729 15.8014 26.3173 15.756L25.7128 15.2628C24.7244 14.4564 23.9547 13.5586 23.3755 12.5815Z" fill="#4F4F4F"/>
</svg>
