<svg width="64" height="64" viewBox="0 0 64 64" fill="none" xmlns="http://www.w3.org/2000/svg">
<path d="M31.712 62.6959C48.641 62.6959 62.3646 48.9723 62.3646 32.0433C62.3646 15.1143 48.641 1.39062 31.712 1.39062C14.783 1.39062 1.05933 15.1143 1.05933 32.0433C1.05933 48.9723 14.783 62.6959 31.712 62.6959Z" fill="white"/>
<path d="M14.7529 40.4576C17.3555 40.4576 19.4654 38.3477 19.4654 35.7451C19.4654 33.1425 17.3555 31.0327 14.7529 31.0327C12.1503 31.0327 10.0405 33.1425 10.0405 35.7451C10.0405 38.3477 12.1503 40.4576 14.7529 40.4576Z" fill="#FF9696"/>
<path d="M49.1094 41.1309C51.712 41.1309 53.8218 39.0211 53.8218 36.4185C53.8218 33.8159 51.712 31.7061 49.1094 31.7061C46.5068 31.7061 44.397 33.8159 44.397 36.4185C44.397 39.0211 46.5068 41.1309 49.1094 41.1309Z" fill="#FF9696"/>
<path fill-rule="evenodd" clip-rule="evenodd" d="M31.7063 0C49.206 0 63.4127 14.2067 63.4127 31.7063C63.4127 49.206 49.206 63.4126 31.7063 63.4126C14.2067 63.4126 0 49.206 0 31.7063C0 14.2067 14.2067 0 31.7063 0ZM31.7063 2.78087C15.7422 2.78087 2.7809 15.7421 2.7809 31.7063C2.7809 47.6705 15.7422 60.6318 31.7063 60.6318C47.6705 60.6318 60.6318 47.6705 60.6318 31.7063C60.6318 15.7421 47.6705 2.78087 31.7063 2.78087Z" fill="#D9D9D9"/>
<path fill-rule="evenodd" clip-rule="evenodd" d="M41.9258 42.2631C36.2379 47.7886 27.1863 47.7886 21.4983 42.2631L21.2774 42.0488C20.6758 41.4634 20.506 40.5627 20.8536 39.7987C21.2013 39.0341 21.9908 38.5699 22.8235 38.638C28.7506 39.0981 34.677 39.0839 40.5993 38.6319C41.4374 38.5639 42.2269 39.0294 42.5739 39.7947C42.9215 40.56 42.7504 41.4614 42.1522 42.0428L41.9258 42.2631ZM40.5569 40.8537L40.7745 40.6415L40.7785 40.6375C40.7873 40.6294 40.7893 40.6166 40.7846 40.6065C40.7798 40.5957 40.7691 40.5896 40.7576 40.5903H40.7536C34.7261 41.0504 28.6987 41.0652 22.6712 40.597H22.6672C22.6571 40.5957 22.647 40.6018 22.6423 40.6119C22.6375 40.6213 22.6402 40.6327 22.6476 40.6402L22.8673 40.8537C27.7932 45.6389 35.6309 45.6389 40.5569 40.8537Z" fill="#606060"/>
<path fill-rule="evenodd" clip-rule="evenodd" d="M16.8972 28.8928C16.63 29.3646 16.0299 29.5302 15.5582 29.2637C15.0856 28.996 14.9195 28.396 15.1866 27.9242C16.6728 25.3009 18.9347 23.9694 21.1632 23.9343C23.4053 23.9002 25.686 25.1637 27.1808 27.9435C27.4376 28.421 27.2579 29.0164 26.781 29.2739C26.3033 29.5302 25.7066 29.351 25.4498 28.8735C24.3762 26.8774 22.8044 25.8737 21.194 25.8986C19.5699 25.9247 17.9793 26.9806 16.8972 28.8928Z" fill="#606060"/>
<path fill-rule="evenodd" clip-rule="evenodd" d="M37.9626 28.8928C37.6955 29.3646 37.0953 29.5302 36.6236 29.2637C36.151 28.996 35.9849 28.396 36.252 27.9242C37.7382 25.3009 40.0001 23.9694 42.2286 23.9343C44.4708 23.9002 46.7515 25.1637 48.2462 27.9435C48.5031 28.421 48.3233 29.0164 47.8465 29.2739C47.3687 29.5302 46.772 29.351 46.5152 28.8735C45.4416 26.8774 43.8698 25.8737 42.2594 25.8986C40.6354 25.9247 39.0447 26.9806 37.9626 28.8928Z" fill="#606060"/>
</svg>
