<svg width="65" height="67" viewBox="0 0 65 67" fill="none" xmlns="http://www.w3.org/2000/svg">
<path d="M32.5461 66.1295C49.7396 66.1295 63.6777 52.2772 63.6777 35.1895C63.6777 18.1018 49.7396 4.24951 32.5461 4.24951C15.3526 4.24951 1.41455 18.1018 1.41455 35.1895C1.41455 52.2772 15.3526 66.1295 32.5461 66.1295Z" fill="white"/>
<path d="M14.9828 43.6826C17.6261 43.6826 19.7689 41.553 19.7689 38.926C19.7689 36.299 17.6261 34.1694 14.9828 34.1694C12.3396 34.1694 10.1968 36.299 10.1968 38.926C10.1968 41.553 12.3396 43.6826 14.9828 43.6826Z" fill="#FF9696"/>
<path d="M49.8759 44.3628C52.5192 44.3628 54.662 42.2332 54.662 39.6062C54.662 36.9792 52.5192 34.8496 49.8759 34.8496C47.2326 34.8496 45.0898 36.9792 45.0898 39.6062C45.0898 42.2332 47.2326 44.3628 49.8759 44.3628Z" fill="#FF9696"/>
<path fill-rule="evenodd" clip-rule="evenodd" d="M32.2017 2.8457C49.9748 2.8457 64.4035 17.1856 64.4035 34.8493C64.4035 52.513 49.9748 66.8528 32.2017 66.8528C14.4287 66.8528 0 52.513 0 34.8493C0 17.1856 14.4287 2.8457 32.2017 2.8457ZM32.2017 5.65264C15.9881 5.65264 2.82435 18.7354 2.82435 34.8493C2.82435 50.9631 15.9881 64.0459 32.2017 64.0459C48.4154 64.0459 61.5791 50.9631 61.5791 34.8493C61.5791 18.7354 48.4154 5.65264 32.2017 5.65264Z" fill="#D9D9D9"/>
<path fill-rule="evenodd" clip-rule="evenodd" d="M17.1603 32.0096C16.889 32.4858 16.2794 32.653 15.8003 32.3839C15.3204 32.1138 15.1517 31.5082 15.423 31.0319C16.9324 28.3841 19.2296 27.0401 21.4929 27.0046C23.7701 26.9702 26.0864 28.2455 27.6046 31.0514C27.8654 31.5334 27.6829 32.1344 27.1986 32.3942C26.7134 32.653 26.1073 32.4721 25.8465 31.9901C24.7561 29.9753 23.1597 28.9622 21.5242 28.9874C19.8748 29.0137 18.2593 30.0795 17.1603 32.0096Z" fill="#606060"/>
<path fill-rule="evenodd" clip-rule="evenodd" d="M38.5558 32.0096C38.2845 32.4858 37.6749 32.653 37.1958 32.3839C36.7159 32.1138 36.5472 31.5082 36.8185 31.0319C38.3279 28.3841 40.6251 27.0401 42.8884 27.0046C45.1656 26.9702 47.482 28.2455 49.0001 31.0514C49.2609 31.5334 49.0784 32.1344 48.5941 32.3942C48.1089 32.653 47.5028 32.4721 47.242 31.9901C46.1517 29.9753 44.5553 28.9622 42.9197 28.9874C41.2703 29.0137 39.6548 30.0795 38.5558 32.0096Z" fill="#606060"/>
<path d="M28.4707 12.0396C30.5326 14.0888 33.8756 14.0888 35.9375 12.0396C37.9995 9.99035 37.9995 6.66789 35.9375 4.61866C33.8756 2.56943 30.5326 2.56943 28.4707 4.61866C26.4087 6.66789 26.4087 9.99035 28.4707 12.0396Z" fill="#FFAA00"/>
<path fill-rule="evenodd" clip-rule="evenodd" d="M32.2041 8.32908C32.2041 8.32908 43.9127 2.51084 48.6771 0.143877C49.1015 -0.067028 49.6043 -0.045248 50.008 0.203484C50.4117 0.451069 50.6573 0.888896 50.6573 1.36C50.6573 4.88809 50.6573 11.7701 50.6573 15.2982C50.6573 15.7693 50.4117 16.2071 50.008 16.4547C49.6043 16.7034 49.1015 16.7252 48.6771 16.5143C43.9127 14.1473 32.2041 8.32908 32.2041 8.32908Z" fill="#FFAA00"/>
<path fill-rule="evenodd" clip-rule="evenodd" d="M32.2036 8.32961C32.2036 8.32961 20.495 14.1479 15.7307 16.5148C15.3062 16.7257 14.8034 16.7039 14.3997 16.4552C13.9961 16.2076 13.7504 15.7698 13.7504 15.2987C13.7504 11.7706 13.7504 4.88861 13.7504 1.36052C13.7504 0.889419 13.9961 0.451591 14.3997 0.204006C14.8034 -0.0447256 15.3062 -0.0665062 15.7307 0.1444C20.495 2.51136 32.2036 8.32961 32.2036 8.32961Z" fill="#FFAA00"/>
<path fill-rule="evenodd" clip-rule="evenodd" d="M39.7898 43.814C38.1649 46.4286 35.2933 48.0205 32.2012 48.0205C29.1091 48.0205 26.2375 46.4286 24.6126 43.814L24.6098 43.8093L24.4525 43.4482L24.4049 43.0653L24.4661 42.6839L24.6361 42.3282L24.9004 42.0351L25.2301 41.8318L25.6041 41.7271L25.9982 41.7312C30.358 42.3853 34.7173 42.3269 39.0751 41.6237L39.3821 41.6176L39.672 41.6965L39.9286 41.8529L40.1342 42.0793L40.2664 42.3547L40.3145 42.6492L40.2775 42.9463L40.1552 43.2258L39.7898 43.814ZM27.1739 43.8875C28.4675 45.2447 30.2795 46.0369 32.2012 46.0369C34.127 46.0369 35.9428 45.2413 37.2372 43.8786C33.8827 44.2621 30.5283 44.2737 27.1739 43.8875Z" fill="#606060"/>
</svg>
