<svg preserveAspectRatio="none" width="100%" height="100%" overflow="visible" style="display: block;" viewBox="0 0 76 25" fill="none" xmlns="http://www.w3.org/2000/svg">
<g id="Group">
<path id="Vector" fill-rule="evenodd" clip-rule="evenodd" d="M8.71609 2.51106L9.05878 2.28548L10.4796 2.00369H12.1193L13.5401 2.28548L14.6984 3.04825L15.4788 4.18091L15.7668 5.57003V6.49232L15.89 6.04795L16.647 5.02542L17.721 4.32479C17.721 4.32479 19.0128 4.03335 19.016 4.03211C19.4222 4.01462 20.232 3.98045 20.6397 3.96337L21.9708 4.14984L23.1087 4.76813L23.9521 5.73756C23.9521 5.73756 24.251 6.56415 24.36 6.8626L24.4765 6.28979L25.2673 5.13285L26.4505 4.35978L27.8464 4.08829H35.4982L36.4727 4.27785L36.9486 3.76164L37.0661 3.65606C38.2607 2.58371 40.5595 1.51878 43.3314 1.51878C46.1034 1.51878 48.4021 2.58371 49.597 3.65606L49.7145 3.76164L50.5018 4.61562L51.2259 5.86682L51.3383 6.22579H52.7452L54.1411 6.49726L54.9314 7.01367L55.7218 6.49726L57.1177 6.22579H58.4785V4.23402L58.7665 2.8449L59.5467 1.71246L60.7048 0.949466L62.1261 0.667905H63.7657L65.187 0.949466L66.3448 1.71246L67.1247 2.8449L67.4135 4.23402V11.8899H72.0674L73.4634 12.1611L74.6465 12.9342L75.437 14.0914L75.7152 15.456V17.0592L75.437 18.424L74.6465 19.5809L73.4634 20.354L72.0674 20.6253H65.7819L64.7638 20.4275L63.7657 20.6253H62.1261L60.7048 20.3437L60.4386 20.1677L60.1532 20.354L58.7573 20.6253H51.1055L50.5875 20.5246C49.2165 22.6613 46.6516 24.3157 43.3314 24.3157C40.006 24.3157 37.4382 22.6559 36.0689 20.5143L35.4982 20.6253H33.8585L32.4628 20.354L31.6724 19.8376L30.8819 20.354L29.4861 20.6253H27.8464L26.5417 20.3717L25.2615 20.6253H15.4234L14.9622 20.5339L14.6984 20.9167L13.5401 21.6797L12.1193 21.9613H10.4796L9.05878 21.6797L7.90043 20.9167L7.12003 19.7843L7.05083 19.45L6.70801 19.6758L5.28723 19.9574H3.64752L2.22673 19.6758L1.06838 18.9128L0.288122 17.7804L0 16.3913V3.56611L0.288122 2.17702L1.06838 1.04436L2.22673 0.281562L3.64752 0H5.28723L6.70801 0.281562L7.86649 1.04436L8.64675 2.17702L8.71609 2.51106ZM63.7657 3.96687H62.1261C61.9744 3.96687 61.8533 4.08644 61.8533 4.23402V17.0592C61.8533 17.2067 61.9744 17.3263 62.1261 17.3263H63.7657C63.9161 17.3263 64.0385 17.2067 64.0385 17.0592V4.23402C64.0385 4.08644 63.9161 3.96687 63.7657 3.96687ZM12.1193 5.30286H10.4796C10.3286 5.30286 10.2063 5.42245 10.2063 5.57003V18.3952C10.2063 18.5427 10.3286 18.6623 10.4796 18.6623H12.1193C12.2702 18.6623 12.3925 18.5427 12.3925 18.3952V5.57003C12.3925 5.42245 12.2702 5.30286 12.1193 5.30286ZM65.5091 15.456V17.0592C65.5091 17.13 65.5384 17.1979 65.5889 17.2481C65.6408 17.2981 65.71 17.3263 65.7819 17.3263H72.0674C72.1406 17.3263 72.2098 17.2981 72.2603 17.2481C72.3122 17.1979 72.3415 17.13 72.3415 17.0592V15.456C72.3415 15.3852 72.3122 15.3173 72.2603 15.267C72.2098 15.217 72.1406 15.1888 72.0674 15.1888H65.7819C65.71 15.1888 65.6408 15.217 65.5889 15.267C65.5384 15.3173 65.5091 15.3852 65.5091 15.456ZM15.1502 15.456V17.0592C15.1502 17.2067 15.2725 17.3263 15.4234 17.3263H25.2615C25.4125 17.3263 25.5348 17.2067 25.5348 17.0592V15.456C25.5348 15.3084 25.4125 15.1888 25.2615 15.1888H15.4234C15.2725 15.1888 15.1502 15.3084 15.1502 15.456ZM20.2411 11.3802C20.8203 12.3573 21.5901 13.2551 22.5785 14.0615L23.1829 14.5547C23.2386 14.6002 23.3103 14.622 23.3826 14.6156C23.4547 14.6092 23.5214 14.5751 23.5678 14.5207L24.5766 13.3389C24.623 13.2845 24.6454 13.2141 24.6388 13.1437C24.6323 13.0731 24.5975 13.0079 24.5418 12.9626L23.9374 12.4695C22.6402 11.4111 21.8139 10.1574 21.3649 8.7461C21.2353 8.33815 21.1367 7.91766 21.0665 7.48502C21.0451 7.35062 20.9237 7.25347 20.7848 7.25923C20.3778 7.27632 19.57 7.31049 19.1646 7.32778C19.027 7.33374 18.9155 7.4387 18.9043 7.57269C18.7429 9.37839 17.748 11.0026 16.0061 12.4831L15.412 12.988C15.3573 13.0345 15.3238 13.1003 15.3187 13.1709C15.3136 13.2417 15.3376 13.3115 15.3851 13.365L16.4181 14.5265C16.4656 14.58 16.5329 14.6129 16.6052 14.6179C16.6776 14.6228 16.7489 14.5994 16.8036 14.553L17.3977 14.0479C18.3937 13.2014 19.1838 12.3102 19.7703 11.3765C19.8201 11.2952 19.91 11.246 20.0068 11.2467C20.1037 11.2475 20.1927 11.2983 20.2411 11.3802ZM27.5732 7.65462V9.25758C27.5732 9.32859 27.6019 9.39651 27.6532 9.44652C27.7044 9.49674 27.7739 9.52473 27.8464 9.52473H35.4982C35.5708 9.52473 35.6402 9.49674 35.6915 9.44652C35.7427 9.39651 35.7714 9.32859 35.7714 9.25758V7.65462C35.7714 7.58361 35.7427 7.51568 35.6915 7.46566C35.6402 7.41544 35.5708 7.38745 35.4982 7.38745H27.8464C27.7739 7.38745 27.7044 7.41544 27.6532 7.46566C27.6019 7.51568 27.5732 7.58361 27.5732 7.65462ZM27.5732 17.0592C27.5732 17.13 27.6019 17.1979 27.6532 17.2481C27.7044 17.2981 27.7739 17.3263 27.8464 17.3263H29.4861C29.5585 17.3263 29.6281 17.2981 29.6793 17.2481C29.7306 17.1979 29.7593 17.13 29.7593 17.0592V12.7842H33.5853V17.0592C33.5853 17.13 33.614 17.1979 33.6653 17.2481C33.7165 17.2981 33.7861 17.3263 33.8585 17.3263H35.4982C35.5708 17.3263 35.6402 17.2981 35.6915 17.2481C35.7427 17.1979 35.7714 17.13 35.7714 17.0592V10.9138C35.7714 10.843 35.7427 10.7749 35.6915 10.7249C35.6402 10.6747 35.5708 10.6467 35.4982 10.6467H27.8464C27.7739 10.6467 27.7044 10.6747 27.6532 10.7249C27.6019 10.7749 27.5732 10.843 27.5732 10.9138V17.0592ZM50.8322 17.0592C50.8322 17.13 50.861 17.1979 50.9122 17.2481C50.9634 17.2981 51.0331 17.3263 51.1055 17.3263H58.7573C58.8298 17.3263 58.8993 17.2981 58.9505 17.2481C59.0018 17.1979 59.0306 17.13 59.0306 17.0592V9.7921C59.0306 9.72109 59.0018 9.65318 58.9505 9.60316C58.8993 9.55294 58.8298 9.52473 58.7573 9.52473H57.1177C57.0452 9.52473 56.9757 9.55294 56.9243 9.60316C56.8731 9.65318 56.8444 9.72109 56.8444 9.7921V15.1888H53.0185V9.7921C53.0185 9.72109 52.9896 9.65318 52.9384 9.60316C52.8872 9.55294 52.8177 9.52473 52.7452 9.52473H51.1055C51.0331 9.52473 50.9634 9.55294 50.9122 9.60316C50.861 9.65318 50.8322 9.72109 50.8322 9.7921V17.0592ZM42.2711 11.5638V12.9552C39.9222 13.3757 38.341 15.1571 38.341 16.94C38.341 18.9799 40.4106 21.0176 43.3314 21.0176C46.2523 21.0176 48.3219 18.9799 48.3219 16.94C48.3219 15.1571 46.7408 13.3757 44.392 12.9552V11.5638C45.6697 11.3854 46.7187 10.9038 47.3149 10.3686L47.7475 9.89934L48.1076 9.27714L48.2649 8.77492L48.3219 8.22743L48.2649 7.67993L48.1076 7.17773L47.7475 6.55551L47.3149 6.08624C46.5607 5.40907 45.0815 4.81774 43.3314 4.81774C41.5814 4.81774 40.1023 5.40907 39.348 6.08624L38.9154 6.55551L38.5553 7.17773L38.398 7.67993L38.341 8.22743L38.398 8.77492L38.5553 9.27714L38.9154 9.89934L39.348 10.3686C39.9442 10.9038 40.9933 11.3854 42.2711 11.5638ZM43.3314 6.89142C44.9151 6.89142 46.2008 7.49017 46.2008 8.22743C46.2008 8.9647 44.9151 9.56342 43.3314 9.56342C41.7478 9.56342 40.4621 8.9647 40.4621 8.22743C40.4621 7.49017 41.7478 6.89142 43.3314 6.89142ZM42.8279 8.30894L43.3314 8.37933L43.835 8.30894C43.8358 8.28177 43.8362 8.2546 43.8362 8.22743C43.8362 8.19738 43.8358 8.16732 43.8348 8.13706C43.6736 8.12348 43.5046 8.1169 43.3314 8.1169C43.1583 8.1169 42.9893 8.12348 42.8281 8.13706C42.8271 8.16732 42.8267 8.19738 42.8267 8.22743C42.8267 8.2546 42.8271 8.28177 42.8279 8.30894ZM43.3314 14.9361C44.9151 14.9361 46.2008 15.8341 46.2008 16.94C46.2008 18.0461 44.9151 18.9439 43.3314 18.9439C41.7478 18.9439 40.4621 18.0461 40.4621 16.94C40.4621 15.8341 41.7478 14.9361 43.3314 14.9361ZM43.3314 16.1194L42.994 16.1797C42.879 16.4172 42.8267 16.6755 42.8267 16.94C42.8267 17.2034 42.8786 17.4607 42.9925 17.6972C43.1019 17.7114 43.2151 17.7186 43.3314 17.7186C43.4478 17.7186 43.561 17.7114 43.6705 17.6972C43.7843 17.4607 43.8362 17.2034 43.8362 16.94C43.8362 16.6755 43.7839 16.4172 43.6691 16.1797L43.3314 16.1194ZM22.2625 7.89647C22.264 7.88103 22.2655 7.86559 22.2667 7.85016L22.2659 7.86023C22.2648 7.87216 22.2636 7.88432 22.2625 7.89647ZM3.3743 16.3913C3.3743 16.5386 3.4966 16.6584 3.64752 16.6584H5.28723C5.43814 16.6584 5.56058 16.5386 5.56058 16.3913V11.0474H8.56664C8.63903 11.0474 8.70864 11.0192 8.75987 10.9692C8.81111 10.919 8.83985 10.8511 8.83985 10.7803V9.1771C8.83985 9.1063 8.81111 9.03818 8.75987 8.98816C8.70864 8.93815 8.63903 8.90993 8.56664 8.90993H5.56058V3.56611C5.56058 3.41854 5.43814 3.29896 5.28723 3.29896H3.64752C3.4966 3.29896 3.3743 3.41854 3.3743 3.56611V16.3913Z" fill="url(#paint0_linear_401_1817)"/>
</g>
<defs>
<linearGradient id="paint0_linear_401_1817" x1="3.3743" y1="12.1583" x2="72.341" y2="12.1583" gradientUnits="userSpaceOnUse">
<stop stop-color="#464394"/>
<stop offset="0.46" stop-color="#BB3030"/>
<stop offset="1" stop-color="#FFCF41"/>
</linearGradient>
</defs>
</svg>
