<svg preserveAspectRatio="none" width="100%" height="100%" overflow="visible" style="display: block;" viewBox="0 0 87 44" fill="none" xmlns="http://www.w3.org/2000/svg">
<path id="Ellipse 48" d="M84.825 0.5C86.0262 0.5 87.0057 1.47445 86.9457 2.67417C86.4084 13.4194 81.9031 23.6152 74.2591 31.2591C66.1013 39.417 55.0369 44 43.5 44C31.9631 44 20.8987 39.417 12.7409 31.2591C5.09695 23.6152 0.59163 13.4195 0.0543145 2.67417C-0.00567731 1.47445 0.973781 0.500006 2.175 0.500006C3.37622 0.500006 4.3437 1.47476 4.41036 2.67413C4.94341 12.2649 8.98882 21.3553 15.8168 28.1832C23.1588 35.5253 33.1168 39.65 43.5 39.65C53.8832 39.65 63.8412 35.5253 71.1832 28.1832C78.0112 21.3553 82.0566 12.2649 82.5896 2.67413C82.6563 1.47476 83.6238 0.5 84.825 0.5Z" fill="var(--fill-0, #FFAA00)"/>
</svg>
