<svg preserveAspectRatio="none" width="100%" height="100%" overflow="visible" style="display: block;" viewBox="0 0 148 67" fill="none" xmlns="http://www.w3.org/2000/svg">
<g id="Union">
<path d="M134 2C140.627 2 146 7.37258 146 14V42C146 48.6274 140.627 54 134 54H81.6982L75.6836 63.376C74.8966 64.6028 73.1034 64.6028 72.3164 63.376L66.3008 54H14C7.37258 54 2 48.6274 2 42V14C2 7.37258 7.37258 2 14 2H134Z" fill="var(--fill-0, white)"/>
<path d="M146 14L148 14L146 14ZM134 54L134 56H134L134 54ZM81.6982 54V52C81.017 52 80.3827 52.3467 80.0148 52.9201L81.6982 54ZM75.6836 63.376L77.367 64.4559L77.367 64.4559L75.6836 63.376ZM72.3164 63.376L73.9998 62.2961L73.9997 62.296L72.3164 63.376ZM66.3008 54L67.9841 52.92C67.6163 52.3467 66.9819 52 66.3008 52V54ZM2 42L0 42L2 42ZM14 2L14 0L14 0L14 2ZM134 2V4C139.523 4 144 8.47715 144 14L146 14L148 14C148 6.26801 141.732 0 134 0V2ZM146 14H144V42H146H148V14H146ZM146 42H144C144 47.5228 139.523 52 134 52L134 54L134 56C141.732 56 148 49.732 148 42H146ZM134 54V52H81.6982V54V56H134V54ZM81.6982 54L80.0148 52.9201L74.0002 62.2961L75.6836 63.376L77.367 64.4559L83.3816 55.0799L81.6982 54ZM75.6836 63.376L74.0002 62.2961L73.9998 62.2961L72.3164 63.376L70.633 64.4559C72.207 66.9095 75.793 66.9095 77.367 64.4559L75.6836 63.376ZM72.3164 63.376L73.9997 62.296L67.9841 52.92L66.3008 54L64.6175 55.08L70.6331 64.456L72.3164 63.376ZM66.3008 54V52H14V54V56H66.3008V54ZM14 54V52C8.47715 52 4 47.5228 4 42L2 42L0 42C3.75828e-08 49.732 6.26801 56 14 56V54ZM2 42H4V14H2H0V42H2ZM2 14H4C4 8.47715 8.47715 4 14 4L14 2L14 0C6.26801 2.2549e-07 0 6.26801 0 14H2ZM14 2V4H134V2V0H14V2Z" fill="var(--stroke-0, #D9D9D9)"/>
</g>
</svg>
