<svg preserveAspectRatio="none" width="100%" height="100%" overflow="visible" style="display: block;" viewBox="0 0 22 24" fill="none" xmlns="http://www.w3.org/2000/svg">
<g id="Group">
<path id="Vector" fill-rule="evenodd" clip-rule="evenodd" d="M19.4535 17.7627C19.869 16.3138 20.1689 14.5253 20.281 12.3451C20.3168 11.6466 20.6189 11.1395 20.9028 10.5842C21.4627 9.48909 22.0265 8.27327 21.5115 5.9392C21.3181 5.06323 20.6782 4.04247 19.7579 3.09935C18.4573 1.76653 16.6066 0.575613 14.8904 0.127349C13.6259 -0.202931 12.6229 0.149511 11.5096 0.823763C10.6092 1.36947 9.61504 2.14549 8.20865 2.78539C5.29058 4.1129 2.17584 6.49852 0.817009 8.72861C-0.276443 10.5237 -0.368118 12.0748 1.14621 13.3C1.6448 13.7035 2.10234 13.8136 2.49123 13.7948C2.65846 13.7865 2.81622 13.7506 2.96372 13.6947C3.03277 13.9281 3.18034 14.3182 3.28213 14.5324C2.88532 14.3091 2.33904 14.1781 1.56008 14.2569L1.20433 14.3475L0.896326 14.5325L0.654194 14.7978L0.495291 15.1287L0.439729 15.4912L0.490266 15.8473L0.639796 16.1739L0.882396 16.4492L2.36084 17.6964L2.67087 17.8882L3.016 17.9813L3.37333 17.9727L3.7204 17.8595L4.01934 17.6509L4.24175 17.3709L4.37501 17.0397L4.37737 17.014L5.08645 16.432C5.20045 16.5993 5.31289 16.7614 5.42137 16.9168C6.12554 17.923 7.56097 19.016 8.74465 19.3975C8.80934 19.4185 8.87482 19.4394 8.94108 19.4603L8.48684 20.3389L8.46278 20.3468L8.16661 20.5463L7.93907 20.822L7.79752 21.1584L7.75932 21.5212L7.82523 21.8722L7.98817 22.1905L8.24063 22.4536L9.76876 23.6393L9.82319 23.6697C9.62418 22.0531 10.0507 20.3699 11.1466 19.0157C13.1723 16.5124 16.7744 16.0109 19.4535 17.7627Z" fill="var(--fill-0, #464394)"/>
</g>
</svg>
