<svg preserveAspectRatio="none" width="100%" height="100%" overflow="visible" style="display: block;" viewBox="0 0 24 24" fill="none" xmlns="http://www.w3.org/2000/svg">
<g id="Frame">
<path id="&#60;span class=&#34;material-symbols-rounded&#34;&#62; language_korean_latin &#60;/span&#62;" d="M4.65556 12.6053C5.10494 12.6053 5.48951 12.5044 5.80926 12.3026C6.12901 12.1009 6.28889 11.7982 6.28889 11.3947C6.28889 10.9912 6.12901 10.6842 5.80926 10.4737C5.48951 10.2632 5.10494 10.1579 4.65556 10.1579C4.20617 10.1579 3.8216 10.2632 3.50185 10.4737C3.1821 10.6842 3.02222 10.9912 3.02222 11.3947C3.02222 11.7982 3.1821 12.1009 3.50185 12.3026C3.8216 12.5044 4.20617 12.6053 4.65556 12.6053ZM1.57037 8.63158C1.41481 8.63158 1.28086 8.57456 1.16852 8.46053C1.05617 8.34649 1 8.21053 1 8.05263C1 7.89474 1.05617 7.75877 1.16852 7.64474C1.28086 7.5307 1.41481 7.47368 1.57037 7.47368H3.95556V6.68421C3.95556 6.49123 4.02037 6.32895 4.15 6.19737C4.27963 6.06579 4.43951 6 4.62963 6C4.81975 6 4.97963 6.06579 5.10926 6.19737C5.23889 6.32895 5.3037 6.49123 5.3037 6.68421V7.47368H7.71481C7.87037 7.47368 8.00432 7.5307 8.11667 7.64474C8.22901 7.75877 8.28518 7.89474 8.28518 8.05263C8.28518 8.21053 8.22901 8.34649 8.11667 8.46053C8.00432 8.57456 7.87037 8.63158 7.71481 8.63158H1.57037ZM4.65556 13.7632C3.84321 13.7632 3.14753 13.557 2.56852 13.1447C1.98951 12.7325 1.7 12.1491 1.7 11.3947C1.7 10.6228 1.98951 10.0351 2.56852 9.63158C3.14753 9.22807 3.84321 9.02632 4.65556 9.02632C5.48519 9.02632 6.18951 9.22807 6.76852 9.63158C7.34753 10.0351 7.63704 10.6228 7.63704 11.3947C7.63704 12.1667 7.34753 12.7544 6.76852 13.1579C6.18951 13.5614 5.48519 13.7632 4.65556 13.7632ZM3.8 18C3.50617 18 3.25988 17.8991 3.06111 17.6974C2.86235 17.4956 2.76296 17.2456 2.76296 16.9474V15C2.76296 14.807 2.8321 14.6447 2.97037 14.5132C3.10864 14.3816 3.27284 14.3158 3.46296 14.3158C3.65309 14.3158 3.81296 14.3816 3.94259 14.5132C4.07222 14.6447 4.13704 14.807 4.13704 15V16.8421H10.4111C10.5667 16.8421 10.7006 16.8991 10.813 17.0132C10.9253 17.1272 10.9815 17.2632 10.9815 17.4211C10.9815 17.5789 10.9253 17.7149 10.813 17.8289C10.7006 17.943 10.5667 18 10.4111 18H3.8ZM9.78889 15.2368C9.59877 15.2368 9.43889 15.1711 9.30926 15.0395C9.17963 14.9079 9.11481 14.7456 9.11481 14.5526V6.65789C9.11481 6.46491 9.17963 6.30702 9.30926 6.18421C9.43889 6.0614 9.59877 6 9.78889 6C9.97901 6 10.1346 6.0614 10.2556 6.18421C10.3765 6.30702 10.437 6.46491 10.437 6.65789V9.94737H11.6556C11.8111 9.94737 11.9451 10.0044 12.0574 10.1184C12.1698 10.2325 12.2259 10.3684 12.2259 10.5263C12.2259 10.6842 12.1698 10.8202 12.0574 10.9342C11.9451 11.0482 11.8111 11.1053 11.6556 11.1053H10.463V14.5526C10.463 14.7456 10.3981 14.9079 10.2685 15.0395C10.1389 15.1711 9.97901 15.2368 9.78889 15.2368ZM17.2556 15.8421C17.7395 15.8421 18.2105 15.7281 18.6685 15.5C19.1265 15.2719 19.5457 14.9474 19.9259 14.5263V11.7368C19.5284 11.7895 19.1611 11.8509 18.8241 11.9211C18.487 11.9912 18.1716 12.0702 17.8778 12.1579C17.1 12.4035 16.5167 12.7105 16.1278 13.0789C15.7389 13.4474 15.5444 13.8772 15.5444 14.3684C15.5444 14.8246 15.7 15.1842 16.0111 15.4474C16.3222 15.7105 16.737 15.8421 17.2556 15.8421ZM16.6593 17.6316C15.6741 17.6316 14.8963 17.3465 14.3259 16.7763C13.7556 16.2061 13.4704 15.4298 13.4704 14.4474C13.4704 13.5351 13.7556 12.7895 14.3259 12.2105C14.8963 11.6316 15.8123 11.1667 17.0741 10.8158C17.4716 10.7105 17.908 10.614 18.3833 10.5263C18.8586 10.4386 19.3728 10.3596 19.9259 10.2895C19.8914 9.46491 19.7012 8.86404 19.3556 8.48684C19.0099 8.10965 18.4741 7.92105 17.7481 7.92105C17.3852 7.92105 17.0309 7.97368 16.6852 8.07895C16.3395 8.18421 15.9333 8.35965 15.4667 8.60526C15.2593 8.72807 15.0432 8.76316 14.8185 8.71053C14.5938 8.65789 14.421 8.52632 14.3 8.31579C14.179 8.10526 14.1531 7.88158 14.2222 7.64474C14.2914 7.40789 14.4296 7.22807 14.637 7.10526C15.1728 6.80702 15.7475 6.56579 16.3611 6.38158C16.9747 6.19737 17.6012 6.10526 18.2407 6.10526C19.4679 6.10526 20.4012 6.49123 21.0407 7.26316C21.6802 8.03509 22 9.15789 22 10.6316V16.5263C22 16.7719 21.9179 16.9781 21.7537 17.1447C21.5895 17.3114 21.3864 17.3947 21.1444 17.3947H21.0148C20.7901 17.3947 20.6 17.3202 20.4444 17.1711C20.2889 17.0219 20.1938 16.8421 20.1593 16.6316L20.1074 16.2105C19.6235 16.6491 19.092 16.9956 18.513 17.25C17.9339 17.5044 17.316 17.6316 16.6593 17.6316Z" fill="var(--fill-0, #1F1F1F)"/>
</g>
</svg>
