<svg preserveAspectRatio="none" width="100%" height="100%" overflow="visible" style="display: block;" viewBox="0 0 126 62" fill="none" xmlns="http://www.w3.org/2000/svg">
<g id="Union">
<path d="M112 2C118.627 2 124 7.37258 124 14V40C124 46.6274 118.627 52 112 52H71.333C71.2603 52.1096 71.1761 52.2164 71.0771 52.3164L64.4219 59.0459C63.6391 59.8374 62.3609 59.8374 61.5781 59.0459L54.9229 52.3164C54.8239 52.2164 54.7396 52.1096 54.667 52H14C7.37258 52 2 46.6274 2 40V14C2 7.37258 7.37258 2 14 2H112Z" fill="var(--fill-0, white)"/>
<path d="M112 2L112 0H112V2ZM124 40L126 40V40H124ZM112 52L112 54H112L112 52ZM71.333 52V50C70.6625 50 70.0367 50.336 69.6661 50.8948L71.333 52ZM71.0771 52.3164L72.4992 53.7228L72.4992 53.7227L71.0771 52.3164ZM64.4219 59.0459L62.9998 57.6395L62.9998 57.6396L64.4219 59.0459ZM61.5781 59.0459L60.1561 60.4522L60.1562 60.4523L61.5781 59.0459ZM54.9229 52.3164L53.5008 53.7227L53.5008 53.7228L54.9229 52.3164ZM54.667 52L56.3338 50.8946C55.9633 50.3359 55.3374 50 54.667 50V52ZM14 52L14 54H14V52ZM2 14L0 14V14H2ZM14 2L14 0L14 2ZM112 2L112 4C117.523 4 122 8.47715 122 14H124H126C126 6.26801 119.732 1.50327e-07 112 0L112 2ZM124 14H122V40H124H126V14H124ZM124 40L122 40C122 45.5228 117.523 50 112 50L112 52L112 54C119.732 54 126 47.732 126 40L124 40ZM112 52V50H71.333V52V54H112V52ZM71.333 52L69.6661 50.8948C69.6565 50.9093 69.6525 50.9127 69.6551 50.9101L71.0771 52.3164L72.4992 53.7227C72.6997 53.52 72.8642 53.3099 72.9999 53.1052L71.333 52ZM71.0771 52.3164L69.6551 50.9101L62.9998 57.6395L64.4219 59.0459L65.8439 60.4522L72.4992 53.7228L71.0771 52.3164ZM64.4219 59.0459L62.9998 57.6396L63.0001 57.6395L61.5781 59.0459L60.1562 60.4523C61.7217 62.0351 64.2783 62.0354 65.8439 60.4522L64.4219 59.0459ZM61.5781 59.0459L63.0002 57.6395L56.3449 50.9101L54.9229 52.3164L53.5008 53.7228L60.1561 60.4522L61.5781 59.0459ZM54.9229 52.3164L56.3449 50.9101C56.3476 50.9128 56.3435 50.9093 56.3338 50.8946L54.667 52L53.0002 53.1054C53.1358 53.3098 53.3003 53.52 53.5008 53.7227L54.9229 52.3164ZM54.667 52V50H14V52V54H54.667V52ZM14 52L14 50C8.47715 50 4 45.5228 4 40H2H0C0 47.732 6.26801 54 14 54L14 52ZM2 40H4V14H2H0V40H2ZM2 14L4 14C4 8.47715 8.47715 4 14 4L14 2L14 0C6.26801 1.50327e-07 3.00663e-07 6.26801 0 14L2 14ZM14 2V4H112V2V0H14V2Z" fill="var(--stroke-0, #D9D9D9)"/>
</g>
</svg>
