<svg preserveAspectRatio="none" width="100%" height="100%" overflow="visible" style="display: block;" viewBox="0 0 90 90" fill="none" xmlns="http://www.w3.org/2000/svg">
<g id="Frame 59">
<ellipse id="Ellipse 57" cx="45" cy="45" rx="45" ry="45" transform="rotate(180 45 45)" fill="var(--fill-0, #D9D9D9)"/>
<path id="Vector" d="M32 65C31.4333 65 30.9587 64.792 30.576 64.376C30.1933 63.96 30.0013 63.4458 30 62.8333C29.9987 62.2209 30.1907 61.7066 30.576 61.2906C30.9613 60.8746 31.436 60.6666 32 60.6666H56C56.5667 60.6666 57.042 60.8746 57.426 61.2906C57.81 61.7066 58.0013 62.2209 58 62.8333C57.9987 63.4458 57.8067 63.9607 57.424 64.3781C57.0413 64.7956 56.5667 65.0029 56 65H32ZM33.4 57.4166C32.4333 57.4166 31.5753 57.0736 30.826 56.3875C30.0767 55.7014 29.618 54.8347 29.45 53.7875L27.45 40.0292C27.3833 40.0292 27.3087 40.0385 27.226 40.0573C27.1433 40.0761 27.068 40.0848 27 40.0833C26.1667 40.0833 25.4587 39.7677 24.876 39.1365C24.2933 38.5053 24.0013 37.7376 24 36.8333C23.9987 35.9291 24.2907 35.1621 24.876 34.5323C25.4613 33.9026 26.1693 33.5862 27 33.5833C27.8307 33.5804 28.5393 33.8968 29.126 34.5323C29.7127 35.1679 30.004 35.9349 30 36.8333C30 37.0861 29.9747 37.3208 29.924 37.5375C29.8733 37.7542 29.8153 37.9528 29.75 38.1333L36 41.1667L42.25 31.9042C41.8833 31.6153 41.5833 31.2361 41.35 30.7667C41.1167 30.2972 41 29.7917 41 29.25C41 28.3472 41.292 27.5795 41.876 26.9468C42.46 26.3142 43.168 25.9986 44 26C44.832 26.0014 45.5407 26.3178 46.126 26.949C46.7113 27.5802 47.0027 28.3472 47 29.25C47 29.7917 46.8833 30.2972 46.65 30.7667C46.4167 31.2361 46.1167 31.6153 45.75 31.9042L52 41.1667L58.25 38.1333C58.1833 37.9528 58.1247 37.7542 58.074 37.5375C58.0233 37.3208 57.9987 37.0861 58 36.8333C58 35.9306 58.292 35.1628 58.876 34.5302C59.46 33.8975 60.168 33.5819 61 33.5833C61.832 33.5848 62.5406 33.9011 63.126 34.5323C63.7113 35.1636 64.0026 35.9306 64 36.8333C63.9973 37.7361 63.706 38.5038 63.126 39.1365C62.546 39.7692 61.8373 40.0848 61 40.0833C60.9333 40.0833 60.8586 40.0747 60.776 40.0573C60.6933 40.04 60.618 40.0306 60.55 40.0292L58.55 53.7875C58.3833 54.8347 57.9253 55.7014 57.176 56.3875C56.4266 57.0736 55.568 57.4166 54.6 57.4166H33.4Z" fill="var(--fill-0, #A0A0A0)"/>
</g>
</svg>
