<svg preserveAspectRatio="none" width="100%" height="100%" overflow="visible" style="display: block;" viewBox="0 0 22 31" fill="none" xmlns="http://www.w3.org/2000/svg">
<g id="Group">
<path id="Vector" fill-rule="evenodd" clip-rule="evenodd" d="M0 19.2825C0.609524 17.7837 1.56207 16.0728 2.97202 14.1594C3.3147 13.6943 3.36112 13.2058 3.46811 12.7043C3.55975 12.2741 3.66243 11.8339 3.82912 11.3788C3.17803 10.9589 2.74538 10.4578 2.51618 9.93592C2.1312 9.05939 2.20656 8.03984 3.03014 6.97351C3.76712 6.01876 5.26164 4.94016 7.70634 3.91601V2.6549L7.70839 2.61041V2.58703L7.73174 2.35083L7.80093 2.12384L7.80245 2.12C7.80245 2.12 8.71195 0 10.917 0C12.4454 0 13.2471 0.499224 13.6913 0.923302C14.3633 1.56517 14.4055 2.23541 14.4055 2.23541L14.4018 2.20665L14.4146 2.38112V2.40911L14.4164 2.45129V3.56402C16.4566 3.70627 17.8142 4.15143 18.6268 4.69936C19.5948 5.35235 19.9801 6.18171 19.9833 7.03715C19.9871 8.02104 19.3775 9.16675 18.1616 10.148C18.2791 10.3945 18.3863 10.656 18.4873 10.9328C18.838 11.8941 19.1134 13.0874 19.7925 14.4286C21.3042 17.4136 22.2538 21.3891 21.8885 24.0839C21.6884 25.5601 21.1735 26.667 20.3265 27.3331C19.751 27.7855 19.0163 28.0528 18.0828 28.0731L18.1123 28.1532C18.138 28.223 18.1533 28.2959 18.1578 28.3699L18.1794 28.7265C18.184 28.8012 18.1774 28.876 18.1599 28.9489L18.0747 29.3039C18.057 29.3775 18.0284 29.4481 17.9898 29.5133L17.8036 29.8285C17.7654 29.8929 17.7178 29.9519 17.6622 30.0029L17.3975 30.2464C17.3426 30.2966 17.2806 30.3392 17.2134 30.3722L16.8893 30.5309C16.8213 30.5643 16.7488 30.5877 16.6739 30.5999L16.3098 30.6613C16.2721 30.6674 16.2339 30.6709 16.1957 30.6716L14.2496 30.7111C14.2116 30.7119 14.1735 30.71 14.1358 30.7054L13.7715 30.6597C13.6966 30.6502 13.6236 30.6302 13.5546 30.5999L13.2257 30.4561C13.1574 30.4262 13.0939 30.3867 13.0371 30.3392L12.7631 30.1091C12.7056 30.0608 12.6555 30.0048 12.6145 29.942L12.4147 29.6379C12.3733 29.575 12.3415 29.506 12.3203 29.4339L12.2183 29.0857C12.1974 29.014 12.1871 28.94 12.1878 28.8653L12.1912 28.5102C12.1919 28.4366 12.2033 28.3637 12.2252 28.2932L12.2407 28.243C11.1628 28.4792 9.74375 28.4642 8.60093 28.1996L8.62998 28.2932C8.65182 28.3637 8.66328 28.4366 8.66398 28.5102L8.66739 28.8653C8.66809 28.94 8.6578 29.014 8.63686 29.0857L8.53484 29.4339C8.51367 29.506 8.48189 29.575 8.44044 29.6379L8.24069 29.942C8.19967 30.0048 8.14959 30.0608 8.0921 30.1091L7.8181 30.3392C7.76123 30.3867 7.69771 30.4262 7.62949 30.4561L7.30061 30.5999C7.23161 30.6302 7.15854 30.6502 7.08364 30.6597L6.71937 30.7054C6.68164 30.71 6.64361 30.7119 6.60558 30.7111L4.65953 30.6716C4.62127 30.6709 4.58312 30.6674 4.5454 30.6613L4.18124 30.5999C4.10642 30.5877 4.03385 30.5643 3.96583 30.5309L3.88646 30.4922C4.41864 30.1172 4.88889 29.664 5.27947 29.1502L6.58037 29.1766L6.77507 29.1525L6.89702 29.0988L6.99868 29.0137L7.07401 28.899L7.11247 28.7675L7.11119 28.636L7.0629 28.4803C6.99309 28.3319 6.97269 28.1644 7.00653 28.0022L7.20737 27.0398C7.25364 26.8177 7.39676 26.6276 7.59845 26.5198C7.80011 26.4121 8.03973 26.3979 8.25312 26.4807C8.31671 26.5056 8.37957 26.5298 8.44157 26.5532C9.47085 26.9454 11.0708 26.9895 12.1177 26.6924C12.2984 26.641 12.4863 26.5869 12.6784 26.5298C12.8872 26.468 13.1126 26.4957 13.2998 26.6061C13.4869 26.7165 13.6185 26.899 13.6625 27.1099L13.8487 28.0022C13.8825 28.1644 13.8621 28.3319 13.7923 28.4803L13.744 28.636L13.7427 28.7675L13.7812 28.899L13.8565 29.0137L13.9581 29.0988L14.0801 29.1525L14.2748 29.1766L16.1063 29.1394L16.3009 29.1068L16.421 29.0482L16.5191 28.9577L16.5893 28.8392L16.6215 28.7054L16.6134 28.5731L16.5675 28.4489L16.4507 28.2943C16.0569 27.9186 15.7066 27.7341 15.3864 27.6809C15.0526 27.6253 14.7937 27.3626 14.7465 27.0317C14.6993 26.7004 14.8747 26.3776 15.1801 26.233C15.3662 26.1452 15.6797 25.9634 15.8544 25.845C16.0325 25.7238 16.2536 25.6812 16.4646 25.728C16.6756 25.7744 16.8574 25.9056 16.9663 26.09C17.0063 26.1579 17.0559 26.2215 17.1187 26.2767C17.2991 26.4358 17.5688 26.5409 17.9669 26.5409C18.5464 26.5409 19.0071 26.4094 19.3582 26.1333C19.9366 25.6786 20.2116 24.8887 20.3483 23.8803C20.6803 21.4313 19.7764 17.8274 18.4026 15.1142C17.6906 13.7081 17.393 12.4601 17.0253 11.4528C16.8741 11.0383 16.7099 10.6644 16.5014 10.3358C16.2799 9.98691 16.3773 9.52756 16.7219 9.29558C16.8269 9.22465 16.9279 9.15294 17.0246 9.08009C17.8922 8.42672 18.432 7.71047 18.4294 7.04291C18.4279 6.63992 18.2059 6.27335 17.75 5.96584C16.9959 5.45702 15.6603 5.12229 13.6152 5.05941C13.1958 5.04637 12.8625 4.70703 12.8625 4.29292V2.46241C12.8614 2.44669 12.8608 2.43097 12.8606 2.41525C12.8448 2.37115 12.768 2.17598 12.6109 2.02567C12.343 1.76992 11.8388 1.53374 10.917 1.53374C9.87001 1.53374 9.37132 2.42828 9.26087 2.65719L9.26025 2.66639V4.42943C9.26025 4.74269 9.06702 5.02451 8.77232 5.14107C6.40443 6.0778 4.94541 7.02297 4.26604 7.90295C3.86657 8.42058 3.75515 8.90065 3.94194 9.32588C4.11924 9.72925 4.54097 10.0694 5.14925 10.3512C5.33953 10.4394 5.48548 10.5996 5.55385 10.796C5.62222 10.9923 5.60715 11.2074 5.51209 11.3922C5.21999 11.9608 5.09933 12.5011 4.98869 13.0199C4.83719 13.7308 4.71407 14.4029 4.22871 15.0617C3.0231 16.6978 2.17043 18.1571 1.59781 19.4389C1.13591 19.335 0.654198 19.2798 0.159664 19.2798C0.10722 19.2798 0.0539986 19.281 0 19.2825ZM12.8615 2.40374C12.8617 2.4072 12.862 2.41026 12.8623 2.41333L12.8638 2.42407L12.8635 2.4233L12.8639 2.42599C12.9191 2.80329 13.2467 3.08319 13.6329 3.08319L12.8615 2.40374Z" fill="var(--fill-0, white)"/>
</g>
</svg>
