<svg preserveAspectRatio="none" width="100%" height="100%" overflow="visible" style="display: block;" viewBox="0 0 24 33" fill="none" xmlns="http://www.w3.org/2000/svg">
<g id="Group">
<path id="Vector" fill-rule="evenodd" clip-rule="evenodd" d="M0 20.2169C0.621955 18.5559 1.64599 16.6456 3.22554 14.5018C3.49126 14.1414 3.49593 13.7526 3.57867 13.3638C3.63772 13.0874 3.70182 12.8071 3.78146 12.5218C3.25817 12.0839 2.8965 11.5943 2.67818 11.097C2.18597 9.9758 2.24153 8.66484 3.29508 7.30059C4.03498 6.34238 5.47153 5.24385 7.80101 4.20359V3.41793L7.95644 2.63956L7.95959 2.63189C7.95959 2.63189 9.10187 0 11.8513 0C13.7088 0 14.671 0.641875 15.2108 1.15721C15.544 1.47546 15.7552 1.7983 15.8919 2.06862L16.081 2.53412L16.1719 2.95628L16.1905 3.21203V3.63918C18.0071 3.85122 19.2514 4.31517 20.0359 4.84431C21.2815 5.68441 21.7552 6.76416 21.7593 7.865C21.7633 8.90525 21.2336 10.1215 20.1069 11.2013C20.1432 11.2933 20.1787 11.3872 20.2135 11.4823C20.555 12.4183 20.8184 13.582 21.4797 14.888C23.0661 18.0206 24.0404 22.197 23.6571 25.0248C23.4225 26.7553 22.778 28.0332 21.7852 28.8135C21.2804 29.2108 20.6778 29.4983 19.9564 29.6387C19.9539 29.751 19.9394 29.8622 19.9132 29.9715L19.828 30.3262C19.7912 30.4795 19.7316 30.6268 19.6511 30.7629L19.465 31.0777C19.3853 31.2127 19.286 31.3354 19.1703 31.4416L18.9056 31.6851C18.7912 31.7901 18.662 31.8787 18.5219 31.9469L18.1979 32.1061C18.0563 32.1755 17.9051 32.2238 17.7492 32.2499L17.385 32.3112C17.3064 32.3242 17.2269 32.3315 17.1472 32.3334L15.2012 32.3729C15.122 32.3745 15.0427 32.3702 14.9641 32.3603L14.5998 32.3147C14.4438 32.2951 14.2916 32.2533 14.1478 32.1904L13.8189 32.0466C13.6768 31.9845 13.5445 31.9025 13.4261 31.8032L13.152 31.5731C13.0323 31.4723 12.928 31.3553 12.8425 31.2249L12.6427 30.9209C12.5564 30.7894 12.4901 30.646 12.446 30.4956L12.344 30.1475C12.333 30.1099 12.3235 30.0719 12.3153 30.034C11.6994 30.0835 11.044 30.0754 10.4133 30.0106C10.4042 30.0566 10.393 30.1022 10.3797 30.1475L10.2777 30.4956C10.2336 30.646 10.1674 30.7894 10.081 30.9209L9.88132 31.2249C9.79577 31.3553 9.6915 31.4723 9.57174 31.5731L9.2977 31.8032C9.1793 31.9025 9.04694 31.9845 8.90483 32.0466L8.57591 32.1904C8.43217 32.2533 8.27993 32.2951 8.12395 32.3147L7.75968 32.3603C7.68105 32.3702 7.6018 32.3745 7.52255 32.3729L5.57654 32.3334C5.49682 32.3315 5.41734 32.3242 5.33871 32.3112L4.97459 32.2499C4.81866 32.2238 4.6675 32.1755 4.52586 32.1061L4.20179 31.9469C4.12678 31.9105 4.05487 31.868 3.98669 31.8204C5.94408 30.8457 7.31537 28.914 7.44804 26.6628C7.53867 26.7583 7.61679 26.8638 7.68097 26.9773C7.80695 26.8342 7.95916 26.7127 8.13199 26.6203C8.55217 26.3956 9.05137 26.3661 9.49591 26.5386C9.55771 26.5628 9.61878 26.5861 9.67907 26.6092C10.5582 26.9443 11.9251 26.9788 12.8194 26.725C12.9971 26.6743 13.182 26.621 13.3711 26.5651C13.806 26.4362 14.2757 26.4937 14.6656 26.7238C14.7981 26.8016 14.9172 26.8975 15.0204 27.0068C15.1788 26.7119 15.4304 26.4665 15.7506 26.3147C15.9054 26.2418 16.166 26.0904 16.3113 25.9914C16.6823 25.7395 17.143 25.651 17.5825 25.748C18.0198 25.8446 18.3969 26.1157 18.6242 26.4964C18.6843 26.5401 18.7778 26.5409 18.9012 26.5409C19.9641 26.5409 20.2962 25.7234 20.4483 24.6011C20.7623 22.2852 19.8832 18.8822 18.5839 16.3166C17.8542 14.8753 17.5446 13.5977 17.1677 12.5651C17.0383 12.2104 16.9008 11.8891 16.7223 11.6077C16.261 10.8807 16.4638 9.92365 17.1817 9.44014C17.2742 9.37764 17.3632 9.31437 17.4484 9.25034C18.0591 8.7906 18.5238 8.34659 18.522 7.87689C18.5214 7.71776 18.3893 7.60388 18.2095 7.48272C17.5386 7.03026 16.3409 6.77643 14.5215 6.72045C13.6476 6.6936 12.9532 5.98656 12.9532 5.12383V3.44746C12.7783 3.28642 12.4384 3.19516 11.8513 3.19516C11.4157 3.19516 11.1605 3.4881 11.0383 3.6848V5.25957C11.0383 5.91256 10.6358 6.49959 10.0217 6.74269C7.85155 7.60081 6.4923 8.43133 5.86984 9.23731C5.69778 9.46008 5.56807 9.64298 5.64849 9.82626C5.75994 10.0801 6.05876 10.253 6.44114 10.4302C6.83754 10.6138 7.14164 10.9478 7.28406 11.3565C7.42652 11.7653 7.39513 12.2135 7.19704 12.5989C6.94204 13.095 6.84321 13.569 6.74664 14.0222C6.57101 14.8458 6.40649 15.6176 5.8437 16.3811C4.70126 17.9317 3.88386 19.3051 3.3316 20.5049C2.63544 20.2503 1.88141 20.1107 1.09396 20.1107C0.75637 20.1107 0.38576 20.1475 0 20.2169ZM7.08982 29.1329C7.06978 29.1448 7.04946 29.1559 7.02887 29.1667L7.09347 29.1682C7.09212 29.1563 7.09091 29.1448 7.08982 29.1329ZM15.6337 29.1352C15.6327 29.1463 15.6315 29.1571 15.6303 29.1682L15.6912 29.167C15.6718 29.1567 15.6526 29.1463 15.6337 29.1352Z" fill="url(#paint0_linear_401_1834)"/>
</g>
<defs>
<linearGradient id="paint0_linear_401_1834" x1="0.787447" y1="16.1867" x2="22.1263" y2="16.1867" gradientUnits="userSpaceOnUse">
<stop stop-color="#464394"/>
<stop offset="0.46" stop-color="#BB3030"/>
<stop offset="1" stop-color="#FFCF41"/>
</linearGradient>
</defs>
</svg>
