<svg preserveAspectRatio="none" width="100%" height="100%" overflow="visible" style="display: block;" viewBox="0 0 24 24" fill="none" xmlns="http://www.w3.org/2000/svg">
<path id="Language" d="M12 24C10.3547 24 8.80211 23.6846 7.34211 23.0539C5.88211 22.4232 4.60884 21.5644 3.52232 20.4777C2.43558 19.3912 1.57684 18.1179 0.946105 16.6579C0.315369 15.1979 0 13.6453 0 12C0 10.3417 0.315369 8.78579 0.946105 7.33232C1.57684 5.87884 2.43558 4.60884 3.52232 3.52232C4.60884 2.43558 5.88211 1.57684 7.34211 0.946106C8.80211 0.315369 10.3547 0 12 0C13.6583 0 15.2142 0.315369 16.6677 0.946106C18.1212 1.57684 19.3912 2.43558 20.4777 3.52232C21.5644 4.60884 22.4232 5.87884 23.0539 7.33232C23.6846 8.78579 24 10.3417 24 12C24 13.6453 23.6846 15.1979 23.0539 16.6579C22.4232 18.1179 21.5644 19.3912 20.4777 20.4777C19.3912 21.5644 18.1212 22.4232 16.6677 23.0539C15.2142 23.6846 13.6583 24 12 24ZM12 22.0784C12.6446 21.2235 13.1872 20.3612 13.6276 19.4915C14.068 18.6218 14.4267 17.6712 14.7038 16.6396H9.29621C9.58947 17.7036 9.95232 18.6704 10.3847 19.5401C10.8169 20.4098 11.3554 21.2559 12 22.0784ZM9.55389 21.7311C9.06968 21.0363 8.63484 20.2465 8.24937 19.3617C7.86389 18.4766 7.56432 17.5693 7.35063 16.6396H3.06568C3.73284 17.9514 4.62758 19.0535 5.74989 19.9459C6.87221 20.8381 8.14021 21.4332 9.55389 21.7311ZM14.4461 21.7311C15.8598 21.4332 17.1278 20.8381 18.2501 19.9459C19.3724 19.0535 20.2672 17.9514 20.9343 16.6396H16.6494C16.3951 17.5773 16.0752 18.4886 15.6897 19.3737C15.3044 20.2587 14.8899 21.0445 14.4461 21.7311ZM2.27116 14.7448H6.96695C6.88758 14.2754 6.83 13.8151 6.79421 13.3639C6.75863 12.9129 6.74084 12.4583 6.74084 12C6.74084 11.5417 6.75863 11.0871 6.79421 10.6361C6.83 10.1849 6.88758 9.72463 6.96695 9.25516H2.27116C2.14968 9.68421 2.05663 10.1303 1.992 10.5935C1.92716 11.0566 1.89474 11.5255 1.89474 12C1.89474 12.4745 1.92716 12.9434 1.992 13.4065C2.05663 13.8697 2.14968 14.3158 2.27116 14.7448ZM8.86137 14.7448H15.1386C15.2178 14.2754 15.2753 13.8192 15.3111 13.3762C15.3466 12.9333 15.3644 12.4745 15.3644 12C15.3644 11.5255 15.3466 11.0667 15.3111 10.6238C15.2753 10.1808 15.2178 9.72463 15.1386 9.25516H8.86137C8.78221 9.72463 8.72474 10.1808 8.68895 10.6238C8.65337 11.0667 8.63558 11.5255 8.63558 12C8.63558 12.4745 8.65337 12.9333 8.68895 13.3762C8.72474 13.8192 8.78221 14.2754 8.86137 14.7448ZM17.0331 14.7448H21.7288C21.8503 14.3158 21.9434 13.8697 22.008 13.4065C22.0728 12.9434 22.1053 12.4745 22.1053 12C22.1053 11.5255 22.0728 11.0566 22.008 10.5935C21.9434 10.1303 21.8503 9.68421 21.7288 9.25516H17.0331C17.1124 9.72463 17.17 10.1849 17.2058 10.6361C17.2414 11.0871 17.2592 11.5417 17.2592 12C17.2592 12.4583 17.2414 12.9129 17.2058 13.3639C17.17 13.8151 17.1124 14.2754 17.0331 14.7448ZM16.6494 7.36042H20.9343C20.2592 6.03242 19.3705 4.93032 18.2684 4.05411C17.1663 3.17811 15.8922 2.57895 14.4461 2.25663C14.9303 2.99179 15.3611 3.79589 15.7383 4.66895C16.1158 5.54179 16.4195 6.43895 16.6494 7.36042ZM9.29621 7.36042H14.7038C14.4105 6.30442 14.0417 5.33147 13.5973 4.44158C13.1526 3.55168 12.6202 2.71168 12 1.92158C11.3798 2.71168 10.8474 3.55168 10.4027 4.44158C9.95832 5.33147 9.58947 6.30442 9.29621 7.36042ZM3.06568 7.36042H7.35063C7.58053 6.43895 7.88421 5.54179 8.26168 4.66895C8.63895 3.79589 9.06968 2.99179 9.55389 2.25663C8.09958 2.57895 6.82347 3.18021 5.72558 4.06042C4.62747 4.94042 3.74084 6.04042 3.06568 7.36042Z" fill="var(--fill-0, #1F1F1F)"/>
</svg>
